%TF.GenerationSoftware,KiCad,Pcbnew,10.0.5*%
%TF.CreationDate,2026-08-11T18:38:34+05:30*%
%TF.ProjectId,p5,70352e6b-6963-4616-945f-706362585858,rev?*%
%TF.SameCoordinates,Original*%
%TF.FileFunction,Copper,L1,Top*%
%TF.FilePolarity,Positive*%
%FSLAX46Y46*%
G04 Gerber Fmt 4.6, Leading zero omitted, Abs format (unit mm)*
G04 Created by KiCad (PCBNEW 10.0.5) date 2026-08-11 18:38:34*
%MOMM*%
%LPD*%
G01*
G04 APERTURE LIST*
G04 Aperture macros list*
%AMRoundRect*
0 Rectangle with rounded corners*
0 $1 Rounding radius*
0 $2 $3 $4 $5 $6 $7 $8 $9 X,Y pos of 4 corners*
0 Add a 4 corners polygon primitive as box body*
4,1,4,$2,$3,$4,$5,$6,$7,$8,$9,$2,$3,0*
0 Add four circle primitives for the rounded corners*
1,1,$1+$1,$2,$3*
1,1,$1+$1,$4,$5*
1,1,$1+$1,$6,$7*
1,1,$1+$1,$8,$9*
0 Add four rect primitives between the rounded corners*
20,1,$1+$1,$2,$3,$4,$5,0*
20,1,$1+$1,$4,$5,$6,$7,0*
20,1,$1+$1,$6,$7,$8,$9,0*
20,1,$1+$1,$8,$9,$2,$3,0*%
G04 Aperture macros list end*
%TA.AperFunction,NonConductor*%
%ADD10C,0.200000*%
%TD*%
%TA.AperFunction,SMDPad,CuDef*%
%ADD11RoundRect,0.250000X0.475000X-0.250000X0.475000X0.250000X-0.475000X0.250000X-0.475000X-0.250000X0*%
%TD*%
%TA.AperFunction,ComponentPad*%
%ADD12RoundRect,0.170000X-0.680000X-0.680000X0.680000X-0.680000X0.680000X0.680000X-0.680000X0.680000X0*%
%TD*%
%TA.AperFunction,ComponentPad*%
%ADD13C,1.700000*%
%TD*%
%TA.AperFunction,SMDPad,CuDef*%
%ADD14RoundRect,0.250000X-0.450000X0.262500X-0.450000X-0.262500X0.450000X-0.262500X0.450000X0.262500X0*%
%TD*%
%TA.AperFunction,ComponentPad*%
%ADD15C,2.000000*%
%TD*%
%TA.AperFunction,SMDPad,CuDef*%
%ADD16RoundRect,0.375000X-0.625000X-0.375000X0.625000X-0.375000X0.625000X0.375000X-0.625000X0.375000X0*%
%TD*%
%TA.AperFunction,SMDPad,CuDef*%
%ADD17RoundRect,0.500000X-0.500000X-1.400000X0.500000X-1.400000X0.500000X1.400000X-0.500000X1.400000X0*%
%TD*%
%TA.AperFunction,ComponentPad*%
%ADD18R,1.700000X1.700000*%
%TD*%
%TA.AperFunction,ComponentPad*%
%ADD19C,1.600000*%
%TD*%
%TA.AperFunction,SMDPad,CuDef*%
%ADD20RoundRect,0.250000X-0.250000X-0.475000X0.250000X-0.475000X0.250000X0.475000X-0.250000X0.475000X0*%
%TD*%
%TA.AperFunction,SMDPad,CuDef*%
%ADD21RoundRect,0.250000X-0.475000X0.250000X-0.475000X-0.250000X0.475000X-0.250000X0.475000X0.250000X0*%
%TD*%
%TA.AperFunction,SMDPad,CuDef*%
%ADD22RoundRect,0.100000X-0.575000X0.100000X-0.575000X-0.100000X0.575000X-0.100000X0.575000X0.100000X0*%
%TD*%
%TA.AperFunction,ComponentPad*%
%ADD23O,1.900000X1.200000*%
%TD*%
%TA.AperFunction,SMDPad,CuDef*%
%ADD24R,1.900000X1.200000*%
%TD*%
%TA.AperFunction,ComponentPad*%
%ADD25C,1.450000*%
%TD*%
%TA.AperFunction,SMDPad,CuDef*%
%ADD26RoundRect,0.250000X-0.700000X0.500000X-0.700000X-0.500000X0.700000X-0.500000X0.700000X0.500000X0*%
%TD*%
%TA.AperFunction,ComponentPad*%
%ADD27R,1.500000X1.500000*%
%TD*%
%TA.AperFunction,ComponentPad*%
%ADD28C,1.500000*%
%TD*%
%TA.AperFunction,SMDPad,CuDef*%
%ADD29RoundRect,0.250000X0.262500X0.450000X-0.262500X0.450000X-0.262500X-0.450000X0.262500X-0.450000X0*%
%TD*%
%TA.AperFunction,SMDPad,CuDef*%
%ADD30R,1.500000X0.900000*%
%TD*%
%TA.AperFunction,SMDPad,CuDef*%
%ADD31R,0.900000X1.500000*%
%TD*%
%TA.AperFunction,SMDPad,CuDef*%
%ADD32R,1.050000X1.050000*%
%TD*%
%TA.AperFunction,HeatsinkPad*%
%ADD33C,0.600000*%
%TD*%
%TA.AperFunction,HeatsinkPad*%
%ADD34R,4.200000X4.200000*%
%TD*%
%TA.AperFunction,SMDPad,CuDef*%
%ADD35RoundRect,0.250000X-0.262500X-0.450000X0.262500X-0.450000X0.262500X0.450000X-0.262500X0.450000X0*%
%TD*%
%TA.AperFunction,ComponentPad*%
%ADD36R,1.800000X1.800000*%
%TD*%
%TA.AperFunction,ComponentPad*%
%ADD37C,1.800000*%
%TD*%
%TA.AperFunction,Conductor*%
%ADD38C,0.550000*%
%TD*%
%TA.AperFunction,Conductor*%
%ADD39C,0.300000*%
%TD*%
G04 APERTURE END LIST*
D10*
X80368034Y-65250000D02*
G75*
G02*
X78131966Y-65250000I-1118034J0D01*
G01*
X78131966Y-65250000D02*
G75*
G02*
X80368034Y-65250000I1118034J0D01*
G01*
X80618034Y-152000000D02*
G75*
G02*
X78381966Y-152000000I-1118034J0D01*
G01*
X78381966Y-152000000D02*
G75*
G02*
X80618034Y-152000000I1118034J0D01*
G01*
X176618034Y-65500000D02*
G75*
G02*
X174381966Y-65500000I-1118034J0D01*
G01*
X174381966Y-65500000D02*
G75*
G02*
X176618034Y-65500000I1118034J0D01*
G01*
X176618034Y-152000000D02*
G75*
G02*
X174381966Y-152000000I-1118034J0D01*
G01*
X174381966Y-152000000D02*
G75*
G02*
X176618034Y-152000000I1118034J0D01*
G01*
D11*
%TO.P,C3,1*%
%TO.N,+3V3*%
X129000000Y-93400000D03*
%TO.P,C3,2*%
%TO.N,GND*%
X129000000Y-91500000D03*
%TD*%
D12*
%TO.P,U4,1,GND_1*%
%TO.N,GND*%
X154920000Y-111500000D03*
D13*
%TO.P,U4,2,VCC_2*%
%TO.N,+3V3*%
X157460000Y-111500000D03*
%TO.P,U4,3,SCL_3*%
%TO.N,Net-(U1-TXD0{slash}IO1)*%
X160000000Y-111500000D03*
%TO.P,U4,4,SDA_4*%
%TO.N,Net-(U1-RXD0{slash}IO3)*%
X162540000Y-111500000D03*
%TD*%
D11*
%TO.P,C2,1*%
%TO.N,+3V3*%
X116500000Y-93400000D03*
%TO.P,C2,2*%
%TO.N,GND*%
X116500000Y-91500000D03*
%TD*%
D14*
%TO.P,R2,1*%
%TO.N,+3V3*%
X141500000Y-118500000D03*
%TO.P,R2,2*%
%TO.N,Net-(U3-DATA)*%
X141500000Y-120325000D03*
%TD*%
D15*
%TO.P,SW1,1,1_1*%
%TO.N,GND*%
X87000000Y-147500000D03*
X80500000Y-147500000D03*
%TO.P,SW1,2,2_2*%
%TO.N,Net-(C4-Pad1)*%
X87000000Y-143000000D03*
X80500000Y-143000000D03*
%TD*%
D16*
%TO.P,U2,1,GND_1*%
%TO.N,GND*%
X107200000Y-72700000D03*
%TO.P,U2,2,VO_2*%
%TO.N,+3V3*%
X107200000Y-75000000D03*
D17*
X113500000Y-75000000D03*
D16*
%TO.P,U2,3,VI_3*%
%TO.N,+5V*%
X107200000Y-77300000D03*
%TD*%
D18*
%TO.P,J2,1,Pin_1_1*%
%TO.N,+3V3*%
X147000000Y-136000000D03*
D13*
%TO.P,J2,2,Pin_2_2*%
%TO.N,GND*%
X147000000Y-138540000D03*
%TD*%
D19*
%TO.P,R4,1*%
%TO.N,GND*%
X81200000Y-122000000D03*
%TO.P,R4,2*%
X88800000Y-122000000D03*
%TD*%
D20*
%TO.P,C4,1*%
%TO.N,Net-(C4-Pad1)*%
X96500000Y-142500000D03*
%TO.P,C4,2*%
%TO.N,GND*%
X98400000Y-142500000D03*
%TD*%
D15*
%TO.P,SW2,1,1_1*%
%TO.N,GND*%
X113000000Y-148000000D03*
X106500000Y-148000000D03*
%TO.P,SW2,2,2_2*%
%TO.N,Net-(R5-Pad2)*%
X113000000Y-143500000D03*
X106500000Y-143500000D03*
%TD*%
D21*
%TO.P,C1,1*%
%TO.N,+5V*%
X98500000Y-77050000D03*
%TO.P,C1,2*%
%TO.N,GND*%
X98500000Y-78950000D03*
%TD*%
D22*
%TO.P,J1,1,VBUS_1*%
%TO.N,+5V*%
X90000000Y-72200000D03*
%TO.P,J1,2,D-_2*%
%TO.N,unconnected-(J1-D--Pad2)*%
X90000000Y-72850000D03*
%TO.P,J1,3,D+_3*%
%TO.N,unconnected-(J1-D+-Pad3)*%
X90000000Y-73500000D03*
%TO.P,J1,4,ID_4*%
%TO.N,unconnected-(J1-ID-Pad4)*%
X90000000Y-74150000D03*
%TO.P,J1,5,GND_5*%
%TO.N,GND*%
X90000000Y-74800000D03*
D23*
%TO.P,J1,SH,Shield_SH*%
X87300000Y-70000000D03*
D24*
X87300000Y-70600000D03*
D25*
X90000000Y-71000000D03*
D26*
X87300000Y-72500000D03*
X87300000Y-74500000D03*
D25*
X90000000Y-76000000D03*
D24*
X87300000Y-76400000D03*
D23*
X87300000Y-77000000D03*
%TD*%
D27*
%TO.P,U3,1,VDD_1*%
%TO.N,+3V3*%
X128500000Y-112000000D03*
D28*
%TO.P,U3,2,DATA_2*%
%TO.N,Net-(U3-DATA)*%
X128500000Y-114540000D03*
%TO.P,U3,3,NC_3*%
%TO.N,unconnected-(U3-NC-Pad3)*%
X128500000Y-117080000D03*
%TO.P,U3,4,GND_4*%
%TO.N,GND*%
X128500000Y-119620000D03*
%TD*%
D29*
%TO.P,R3,1*%
%TO.N,+3V3*%
X134825000Y-131500000D03*
%TO.P,R3,2*%
%TO.N,Net-(D1-A)*%
X133000000Y-131500000D03*
%TD*%
D30*
%TO.P,U1,1,GND_1*%
%TO.N,GND*%
X142250000Y-89865000D03*
%TO.P,U1,2,VDD_2*%
%TO.N,+3V3*%
X142250000Y-91135000D03*
%TO.P,U1,3,EN_3*%
%TO.N,GND*%
X142250000Y-92405000D03*
%TO.P,U1,4,SENSOR_VP_4*%
%TO.N,unconnected-(U1-SENSOR_VP-Pad4)*%
X142250000Y-93675000D03*
%TO.P,U1,5,SENSOR_VN_5*%
%TO.N,unconnected-(U1-SENSOR_VN-Pad5)*%
X142250000Y-94945000D03*
%TO.P,U1,6,IO34_6*%
%TO.N,unconnected-(U1-IO34-Pad6)*%
X142250000Y-96215000D03*
%TO.P,U1,7,IO35_7*%
%TO.N,unconnected-(U1-IO35-Pad7)*%
X142250000Y-97485000D03*
%TO.P,U1,8,IO32_8*%
%TO.N,unconnected-(U1-IO32-Pad8)*%
X142250000Y-98755000D03*
%TO.P,U1,9,IO33_9*%
%TO.N,unconnected-(U1-IO33-Pad9)*%
X142250000Y-100025000D03*
%TO.P,U1,10,IO25_10*%
%TO.N,unconnected-(U1-IO25-Pad10)*%
X142250000Y-101295000D03*
%TO.P,U1,11,IO26_11*%
%TO.N,unconnected-(U1-IO26-Pad11)*%
X142250000Y-102565000D03*
%TO.P,U1,12,IO27_12*%
%TO.N,unconnected-(U1-IO27-Pad12)*%
X142250000Y-103835000D03*
%TO.P,U1,13,IO14_13*%
%TO.N,unconnected-(U1-IO14-Pad13)*%
X142250000Y-105105000D03*
%TO.P,U1,14,IO12_14*%
%TO.N,unconnected-(U1-IO12-Pad14)*%
X142250000Y-106375000D03*
D31*
%TO.P,U1,15,GND_15*%
%TO.N,GND*%
X145290000Y-107625000D03*
%TO.P,U1,16,IO13_16*%
%TO.N,unconnected-(U1-IO13-Pad16)*%
X146560000Y-107625000D03*
%TO.P,U1,17,SHD/SD2_17*%
%TO.N,unconnected-(U1-SHD{slash}SD2-Pad17)*%
X147830000Y-107625000D03*
%TO.P,U1,18,SWP/SD3_18*%
%TO.N,unconnected-(U1-SWP{slash}SD3-Pad18)*%
X149100000Y-107625000D03*
%TO.P,U1,19,SCS/CMD_19*%
%TO.N,unconnected-(U1-SCS{slash}CMD-Pad19)*%
X150370000Y-107625000D03*
%TO.P,U1,20,SCK/CLK_20*%
%TO.N,unconnected-(U1-SCK{slash}CLK-Pad20)*%
X151640000Y-107625000D03*
%TO.P,U1,21,SDO/SD0_21*%
%TO.N,unconnected-(U1-SDO{slash}SD0-Pad21)*%
X152910000Y-107625000D03*
%TO.P,U1,22,SDI/SD1_22*%
%TO.N,unconnected-(U1-SDI{slash}SD1-Pad22)*%
X154180000Y-107625000D03*
%TO.P,U1,23,IO15_23*%
%TO.N,unconnected-(U1-IO15-Pad23)*%
X155450000Y-107625000D03*
%TO.P,U1,24,IO2_24*%
%TO.N,unconnected-(U1-IO2-Pad24)*%
X156720000Y-107625000D03*
D30*
%TO.P,U1,25,IO0_25*%
%TO.N,unconnected-(U1-IO0-Pad25)*%
X159750000Y-106375000D03*
%TO.P,U1,26,IO4_26*%
%TO.N,unconnected-(U1-IO4-Pad26)*%
X159750000Y-105105000D03*
%TO.P,U1,27,IO16_27*%
%TO.N,unconnected-(U1-IO16-Pad27)*%
X159750000Y-103835000D03*
%TO.P,U1,28,IO17_28*%
%TO.N,unconnected-(U1-IO17-Pad28)*%
X159750000Y-102565000D03*
%TO.P,U1,29,IO5_29*%
%TO.N,unconnected-(U1-IO5-Pad29)*%
X159750000Y-101295000D03*
%TO.P,U1,30,IO18_30*%
%TO.N,unconnected-(U1-IO18-Pad30)*%
X159750000Y-100025000D03*
%TO.P,U1,31,IO19_31*%
%TO.N,unconnected-(U1-IO19-Pad31)*%
X159750000Y-98755000D03*
%TO.P,U1,32,NC_32*%
%TO.N,unconnected-(U1-NC-Pad32)*%
X159750000Y-97485000D03*
%TO.P,U1,33,IO21_33*%
%TO.N,unconnected-(U1-IO21-Pad33)*%
X159750000Y-96215000D03*
%TO.P,U1,34,RXD0/IO3_34*%
%TO.N,Net-(U1-RXD0{slash}IO3)*%
X159750000Y-94945000D03*
%TO.P,U1,35,TXD0/IO1_35*%
%TO.N,Net-(U1-TXD0{slash}IO1)*%
X159750000Y-93675000D03*
%TO.P,U1,36,IO22_36*%
%TO.N,unconnected-(U1-IO22-Pad36)*%
X159750000Y-92405000D03*
%TO.P,U1,37,IO23_37*%
%TO.N,unconnected-(U1-IO23-Pad37)*%
X159750000Y-91135000D03*
%TO.P,U1,38,GND_38*%
%TO.N,GND*%
X159750000Y-89865000D03*
D32*
%TO.P,U1,39,GND_39*%
X148795000Y-95680000D03*
D33*
X148795000Y-96442500D03*
D32*
X148795000Y-97205000D03*
D33*
X148795000Y-97967500D03*
D32*
X148795000Y-98730000D03*
D33*
X149557500Y-95680000D03*
X149557500Y-97205000D03*
X149557500Y-98730000D03*
D32*
X150320000Y-95680000D03*
D33*
X150320000Y-96442500D03*
D32*
X150320000Y-97205000D03*
D34*
X150320000Y-97205000D03*
D33*
X150320000Y-97967500D03*
D32*
X150320000Y-98730000D03*
D33*
X151082500Y-95680000D03*
X151082500Y-97205000D03*
X151082500Y-98730000D03*
D32*
X151845000Y-95680000D03*
D33*
X151845000Y-96442500D03*
D32*
X151845000Y-97205000D03*
D33*
X151845000Y-97967500D03*
D32*
X151845000Y-98730000D03*
%TD*%
D35*
%TO.P,R6,1*%
%TO.N,+3V3*%
X84587500Y-136000000D03*
%TO.P,R6,2*%
%TO.N,Net-(C4-Pad1)*%
X86412500Y-136000000D03*
%TD*%
D29*
%TO.P,R5,1*%
%TO.N,+3V3*%
X108912500Y-135000000D03*
%TO.P,R5,2*%
%TO.N,Net-(R5-Pad2)*%
X107087500Y-135000000D03*
%TD*%
D36*
%TO.P,D1,1,K_1*%
%TO.N,GND*%
X132500000Y-145540000D03*
D37*
%TO.P,D1,2,A_2*%
%TO.N,Net-(D1-A)*%
X132500000Y-143000000D03*
%TD*%
D29*
%TO.P,R1,1*%
%TO.N,+3V3*%
X86325000Y-108000000D03*
%TO.P,R1,2*%
%TO.N,GND*%
X84500000Y-108000000D03*
%TD*%
%TO.N,GND*%
D38*
X88850000Y-71859056D02*
X88850000Y-74490944D01*
X106025000Y-71525000D02*
X89184056Y-71525000D01*
X89184056Y-74825000D02*
X90000000Y-74825000D01*
X89184056Y-71525000D02*
X88850000Y-71859056D01*
X88850000Y-74490944D02*
X89184056Y-74825000D01*
X107200000Y-72700000D02*
X106025000Y-71525000D01*
%TO.N,+5V*%
D39*
X90000000Y-72200000D02*
X98200000Y-72200000D01*
X90500000Y-72300000D02*
X90100000Y-72300000D01*
X98500000Y-72500000D02*
X98500000Y-77050000D01*
X107600000Y-77050000D02*
X107850000Y-77300000D01*
X98200000Y-72200000D02*
X98500000Y-72500000D01*
X98500000Y-77050000D02*
X107600000Y-77050000D01*
X90000000Y-72200000D02*
X90100000Y-72300000D01*
%TO.N,+3V3*%
X147000000Y-119500000D02*
X146000000Y-118500000D01*
X108912500Y-132412500D02*
X108500000Y-132000000D01*
X129000000Y-104000000D02*
X127500000Y-105500000D01*
X114500000Y-134500000D02*
X114000000Y-135000000D01*
X157460000Y-111500000D02*
X157460000Y-117540000D01*
X107850000Y-75000000D02*
X114150000Y-75000000D01*
X108500000Y-132000000D02*
X85000000Y-132000000D01*
X113500000Y-93000000D02*
X113500000Y-75000000D01*
X136100000Y-93400000D02*
X129000000Y-93400000D01*
X114000000Y-135000000D02*
X108912500Y-135000000D01*
X114000000Y-108000000D02*
X114500000Y-108500000D01*
X156500000Y-118500000D02*
X146000000Y-118500000D01*
X146000000Y-131500000D02*
X147000000Y-130500000D01*
X108912500Y-135000000D02*
X108912500Y-132412500D01*
X157460000Y-117540000D02*
X156500000Y-118500000D01*
X140500000Y-112000000D02*
X141500000Y-113000000D01*
X146000000Y-118500000D02*
X141500000Y-118500000D01*
X86325000Y-108000000D02*
X114000000Y-108000000D01*
X128500000Y-106500000D02*
X127500000Y-105500000D01*
X128500000Y-112000000D02*
X140500000Y-112000000D01*
X116500000Y-93400000D02*
X113900000Y-93400000D01*
X147000000Y-130500000D02*
X147000000Y-119500000D01*
X147000000Y-136000000D02*
X147000000Y-130500000D01*
X138365000Y-91135000D02*
X136100000Y-93400000D01*
X134825000Y-131500000D02*
X146000000Y-131500000D01*
X129000000Y-93400000D02*
X129000000Y-104000000D01*
X141500000Y-118500000D02*
X141500000Y-113000000D01*
X114000000Y-108000000D02*
X116500000Y-105500000D01*
X116500000Y-105500000D02*
X116500000Y-93400000D01*
X142750000Y-91135000D02*
X138365000Y-91135000D01*
X114500000Y-108500000D02*
X114500000Y-134500000D01*
X127500000Y-105500000D02*
X116500000Y-105500000D01*
X113900000Y-93400000D02*
X113500000Y-93000000D01*
X84587500Y-132412500D02*
X85000000Y-132000000D01*
X84587500Y-136000000D02*
X84587500Y-132412500D01*
X128500000Y-112000000D02*
X128500000Y-106500000D01*
%TO.N,Net-(C4-Pad1)*%
X96000000Y-143000000D02*
X96500000Y-142500000D01*
X86412500Y-136000000D02*
X86412500Y-142412500D01*
X87000000Y-143000000D02*
X96000000Y-143000000D01*
X80500000Y-143000000D02*
X87000000Y-143000000D01*
X86412500Y-142412500D02*
X87000000Y-143000000D01*
%TO.N,Net-(D1-A)*%
X133000000Y-131500000D02*
X133000000Y-142500000D01*
X133000000Y-142500000D02*
X132500000Y-143000000D01*
%TO.N,Net-(U3-DATA)*%
X128500000Y-114540000D02*
X132540000Y-114540000D01*
X133675000Y-120325000D02*
X141500000Y-120325000D01*
X132540000Y-114540000D02*
X133000000Y-115000000D01*
X133000000Y-120000000D02*
X133500000Y-120500000D01*
X133000000Y-115000000D02*
X133000000Y-120000000D01*
X133500000Y-120500000D02*
X133675000Y-120325000D01*
%TO.N,Net-(R5-Pad2)*%
X106500000Y-135587500D02*
X107087500Y-135000000D01*
X106500000Y-143500000D02*
X106500000Y-135587500D01*
X113000000Y-143500000D02*
X106500000Y-143500000D01*
%TO.N,Net-(U1-TXD0{slash}IO1)*%
X160000000Y-111500000D02*
X158500000Y-110000000D01*
X158500000Y-110000000D02*
X158500000Y-94375000D01*
X158500000Y-94375000D02*
X159200000Y-93675000D01*
X159200000Y-93675000D02*
X160250000Y-93675000D01*
%TO.N,Net-(U1-RXD0{slash}IO3)*%
X162540000Y-111500000D02*
X162540000Y-95540000D01*
X162540000Y-95540000D02*
X161945000Y-94945000D01*
X161945000Y-94945000D02*
X160250000Y-94945000D01*
%TD*%
%TA.AperFunction,Conductor*%
%TO.N,GND*%
G36*
X174336803Y-64020185D02*
G01*
X174382558Y-64072989D01*
X174392502Y-64142147D01*
X174363477Y-64205703D01*
X174357445Y-64212181D01*
X174205170Y-64364455D01*
X174205164Y-64364462D01*
X174068032Y-64543176D01*
X174068021Y-64543192D01*
X173955390Y-64738273D01*
X173955382Y-64738289D01*
X173869176Y-64946411D01*
X173810871Y-65164012D01*
X173781466Y-65387353D01*
X173781466Y-65612646D01*
X173792711Y-65698052D01*
X173810871Y-65835989D01*
X173842116Y-65952599D01*
X173869176Y-66053588D01*
X173955382Y-66261710D01*
X173955390Y-66261726D01*
X174068021Y-66456807D01*
X174068032Y-66456823D01*
X174205164Y-66635537D01*
X174205170Y-66635544D01*
X174364455Y-66794829D01*
X174364461Y-66794834D01*
X174543185Y-66931974D01*
X174543192Y-66931978D01*
X174738273Y-67044609D01*
X174738289Y-67044617D01*
X174832585Y-67083675D01*
X174946410Y-67130823D01*
X175164011Y-67189129D01*
X175387361Y-67218534D01*
X175387368Y-67218534D01*
X175612632Y-67218534D01*
X175612639Y-67218534D01*
X175835989Y-67189129D01*
X176053590Y-67130823D01*
X176210256Y-67065929D01*
X176261710Y-67044617D01*
X176261713Y-67044615D01*
X176261719Y-67044613D01*
X176456815Y-66931974D01*
X176635539Y-66794834D01*
X176708983Y-66721390D01*
X176787819Y-66642555D01*
X176849142Y-66609070D01*
X176918834Y-66614054D01*
X176974767Y-66655926D01*
X176999184Y-66721390D01*
X176999500Y-66730236D01*
X176999500Y-89490281D01*
X160945457Y-89178552D01*
X160943354Y-89172913D01*
X160943350Y-89172906D01*
X160857190Y-89057812D01*
X160857187Y-89057809D01*
X160742093Y-88971649D01*
X160742086Y-88971645D01*
X160607379Y-88921403D01*
X160607372Y-88921401D01*
X160547844Y-88915000D01*
X160000000Y-88915000D01*
X160000000Y-89160194D01*
X159500000Y-89150485D01*
X159500000Y-88915000D01*
X158952155Y-88915000D01*
X158892627Y-88921401D01*
X158892620Y-88921403D01*
X158757913Y-88971645D01*
X158757906Y-88971649D01*
X158642812Y-89057809D01*
X158642809Y-89057812D01*
X158586708Y-89132751D01*
X126000000Y-88500000D01*
X126000000Y-88315000D01*
X127000000Y-88315000D01*
X175000000Y-88315000D01*
X175000000Y-67401930D01*
X175000000Y-67375000D01*
X127000000Y-67375000D01*
X127000000Y-88315000D01*
X126000000Y-88315000D01*
X126000000Y-64000500D01*
X174269764Y-64000500D01*
X174336803Y-64020185D01*
G37*
%TD.AperFunction*%
%TD*%
%TA.AperFunction,Conductor*%
%TO.N,GND*%
G36*
X126000000Y-88315000D02*
G01*
X126000000Y-88500000D01*
X158586708Y-89132751D01*
X158586708Y-89132750D01*
X158586709Y-89132751D01*
X158556647Y-89172910D01*
X158556645Y-89172913D01*
X158506403Y-89307620D01*
X158506401Y-89307627D01*
X158500000Y-89367155D01*
X158500000Y-89615000D01*
X161000000Y-89615000D01*
X161000000Y-89367172D01*
X160999999Y-89367155D01*
X160993598Y-89307627D01*
X160993596Y-89307620D01*
X160945457Y-89178552D01*
X176999500Y-89490281D01*
X176999500Y-150769764D01*
X176979815Y-150836803D01*
X176927011Y-150882558D01*
X176857853Y-150892502D01*
X176794297Y-150863477D01*
X176787819Y-150857445D01*
X176635544Y-150705170D01*
X176635537Y-150705164D01*
X176456823Y-150568032D01*
X176456821Y-150568030D01*
X176456815Y-150568026D01*
X176456810Y-150568023D01*
X176456807Y-150568021D01*
X176261726Y-150455390D01*
X176261710Y-150455382D01*
X176053588Y-150369176D01*
X175952599Y-150342116D01*
X175835989Y-150310871D01*
X175786355Y-150304336D01*
X175612646Y-150281466D01*
X175612639Y-150281466D01*
X175387361Y-150281466D01*
X175387353Y-150281466D01*
X175188827Y-150307603D01*
X175164011Y-150310871D01*
X175105706Y-150326493D01*
X174946411Y-150369176D01*
X174738289Y-150455382D01*
X174738273Y-150455390D01*
X174543192Y-150568021D01*
X174543176Y-150568032D01*
X174364462Y-150705164D01*
X174364455Y-150705170D01*
X174205170Y-150864455D01*
X174205164Y-150864462D01*
X174068032Y-151043176D01*
X174068021Y-151043192D01*
X173955390Y-151238273D01*
X173955382Y-151238289D01*
X173869176Y-151446411D01*
X173810871Y-151664012D01*
X173781466Y-151887353D01*
X173781466Y-152112646D01*
X173792711Y-152198052D01*
X173810871Y-152335989D01*
X173842116Y-152452599D01*
X173869176Y-152553588D01*
X173955382Y-152761710D01*
X173955390Y-152761726D01*
X174068021Y-152956807D01*
X174068032Y-152956823D01*
X174205164Y-153135537D01*
X174205170Y-153135544D01*
X174357445Y-153287819D01*
X174390930Y-153349142D01*
X174385946Y-153418834D01*
X174344074Y-153474767D01*
X174278610Y-153499184D01*
X174269764Y-153499500D01*
X80730236Y-153499500D01*
X80663197Y-153479815D01*
X80617442Y-153427011D01*
X80607498Y-153357853D01*
X80636523Y-153294297D01*
X80642555Y-153287819D01*
X80794829Y-153135544D01*
X80794834Y-153135539D01*
X80931974Y-152956815D01*
X81044613Y-152761719D01*
X81130823Y-152553590D01*
X81189129Y-152335989D01*
X81218534Y-152112639D01*
X81218534Y-151887361D01*
X81189129Y-151664011D01*
X81130823Y-151446410D01*
X81098376Y-151368076D01*
X81044617Y-151238289D01*
X81044609Y-151238273D01*
X80931978Y-151043192D01*
X80931974Y-151043185D01*
X80816351Y-150892502D01*
X80794835Y-150864462D01*
X80794829Y-150864455D01*
X80635544Y-150705170D01*
X80635537Y-150705164D01*
X80456823Y-150568032D01*
X80456821Y-150568030D01*
X80456815Y-150568026D01*
X80456810Y-150568023D01*
X80456807Y-150568021D01*
X80261726Y-150455390D01*
X80261710Y-150455382D01*
X80053588Y-150369176D01*
X79952599Y-150342116D01*
X79835989Y-150310871D01*
X79786355Y-150304336D01*
X79612646Y-150281466D01*
X79612639Y-150281466D01*
X79387361Y-150281466D01*
X79387353Y-150281466D01*
X79188827Y-150307603D01*
X79164011Y-150310871D01*
X79105706Y-150326493D01*
X78946411Y-150369176D01*
X78738289Y-150455382D01*
X78738273Y-150455390D01*
X78543192Y-150568021D01*
X78543176Y-150568032D01*
X78364462Y-150705164D01*
X78364455Y-150705170D01*
X78212181Y-150857445D01*
X78150858Y-150890930D01*
X78081166Y-150885946D01*
X78025233Y-150844074D01*
X78000816Y-150778610D01*
X78000500Y-150769764D01*
X78000500Y-147381947D01*
X79000000Y-147381947D01*
X79000000Y-147618052D01*
X79036934Y-147851247D01*
X79109897Y-148075802D01*
X79217087Y-148286174D01*
X79277338Y-148369104D01*
X79277340Y-148369105D01*
X79976212Y-147670233D01*
X79987482Y-147712292D01*
X80059890Y-147837708D01*
X80162292Y-147940110D01*
X80287708Y-148012518D01*
X80329765Y-148023787D01*
X79630893Y-148722658D01*
X79713828Y-148782914D01*
X79924197Y-148890102D01*
X80148752Y-148963065D01*
X80148751Y-148963065D01*
X80381948Y-149000000D01*
X80618052Y-149000000D01*
X80851247Y-148963065D01*
X81075802Y-148890102D01*
X81286163Y-148782918D01*
X81286169Y-148782914D01*
X81369104Y-148722658D01*
X81369105Y-148722658D01*
X80670233Y-148023787D01*
X80712292Y-148012518D01*
X80837708Y-147940110D01*
X80940110Y-147837708D01*
X81012518Y-147712292D01*
X81023787Y-147670234D01*
X81722658Y-148369105D01*
X81722658Y-148369104D01*
X81782914Y-148286169D01*
X81782918Y-148286163D01*
X81890102Y-148075802D01*
X81963065Y-147851247D01*
X82000000Y-147618052D01*
X82000000Y-147381947D01*
X85500000Y-147381947D01*
X85500000Y-147618052D01*
X85536934Y-147851247D01*
X85609897Y-148075802D01*
X85717087Y-148286174D01*
X85777338Y-148369104D01*
X85777340Y-148369105D01*
X86476212Y-147670233D01*
X86487482Y-147712292D01*
X86559890Y-147837708D01*
X86662292Y-147940110D01*
X86787708Y-148012518D01*
X86829765Y-148023787D01*
X86130893Y-148722658D01*
X86213828Y-148782914D01*
X86424197Y-148890102D01*
X86648752Y-148963065D01*
X86648751Y-148963065D01*
X86881948Y-149000000D01*
X87118052Y-149000000D01*
X87351247Y-148963065D01*
X87575802Y-148890102D01*
X87786163Y-148782918D01*
X87786169Y-148782914D01*
X87869104Y-148722658D01*
X87869105Y-148722658D01*
X87170233Y-148023787D01*
X87212292Y-148012518D01*
X87337708Y-147940110D01*
X87440110Y-147837708D01*
X87512518Y-147712292D01*
X87523787Y-147670234D01*
X88222658Y-148369105D01*
X88222658Y-148369104D01*
X88282914Y-148286169D01*
X88282918Y-148286163D01*
X88390102Y-148075802D01*
X88453090Y-147881947D01*
X105000000Y-147881947D01*
X105000000Y-148118052D01*
X105036934Y-148351247D01*
X105109897Y-148575802D01*
X105217087Y-148786174D01*
X105277338Y-148869104D01*
X105277340Y-148869105D01*
X105976212Y-148170233D01*
X105987482Y-148212292D01*
X106059890Y-148337708D01*
X106162292Y-148440110D01*
X106287708Y-148512518D01*
X106329765Y-148523787D01*
X105630893Y-149222658D01*
X105713828Y-149282914D01*
X105924197Y-149390102D01*
X106148752Y-149463065D01*
X106148751Y-149463065D01*
X106381948Y-149500000D01*
X106618052Y-149500000D01*
X106851247Y-149463065D01*
X107075802Y-149390102D01*
X107286163Y-149282918D01*
X107286169Y-149282914D01*
X107369104Y-149222658D01*
X107369105Y-149222658D01*
X106670233Y-148523787D01*
X106712292Y-148512518D01*
X106837708Y-148440110D01*
X106940110Y-148337708D01*
X107012518Y-148212292D01*
X107023787Y-148170234D01*
X107722658Y-148869105D01*
X107722658Y-148869104D01*
X107782914Y-148786169D01*
X107782918Y-148786163D01*
X107890102Y-148575802D01*
X107963065Y-148351247D01*
X108000000Y-148118052D01*
X108000000Y-147881947D01*
X111500000Y-147881947D01*
X111500000Y-148118052D01*
X111536934Y-148351247D01*
X111609897Y-148575802D01*
X111717087Y-148786174D01*
X111777338Y-148869104D01*
X111777340Y-148869105D01*
X112476212Y-148170233D01*
X112487482Y-148212292D01*
X112559890Y-148337708D01*
X112662292Y-148440110D01*
X112787708Y-148512518D01*
X112829765Y-148523787D01*
X112130893Y-149222658D01*
X112213828Y-149282914D01*
X112424197Y-149390102D01*
X112648752Y-149463065D01*
X112648751Y-149463065D01*
X112881948Y-149500000D01*
X113118052Y-149500000D01*
X113351247Y-149463065D01*
X113575802Y-149390102D01*
X113786163Y-149282918D01*
X113786169Y-149282914D01*
X113869104Y-149222658D01*
X113869105Y-149222658D01*
X113170233Y-148523787D01*
X113212292Y-148512518D01*
X113337708Y-148440110D01*
X113440110Y-148337708D01*
X113512518Y-148212292D01*
X113523787Y-148170234D01*
X114222658Y-148869105D01*
X114222658Y-148869104D01*
X114282914Y-148786169D01*
X114282918Y-148786163D01*
X114390102Y-148575802D01*
X114463065Y-148351247D01*
X114500000Y-148118052D01*
X114500000Y-147881947D01*
X114463065Y-147648752D01*
X114390102Y-147424197D01*
X114282914Y-147213828D01*
X114222658Y-147130894D01*
X114222658Y-147130893D01*
X113523787Y-147829765D01*
X113512518Y-147787708D01*
X113440110Y-147662292D01*
X113337708Y-147559890D01*
X113212292Y-147487482D01*
X113170234Y-147476212D01*
X113869105Y-146777340D01*
X113869104Y-146777338D01*
X113786174Y-146717087D01*
X113575802Y-146609897D01*
X113351247Y-146536934D01*
X113351248Y-146536934D01*
X113118052Y-146500000D01*
X112881948Y-146500000D01*
X112648752Y-146536934D01*
X112424197Y-146609897D01*
X112213830Y-146717084D01*
X112130894Y-146777340D01*
X112829766Y-147476212D01*
X112787708Y-147487482D01*
X112662292Y-147559890D01*
X112559890Y-147662292D01*
X112487482Y-147787708D01*
X112476212Y-147829766D01*
X111777340Y-147130894D01*
X111717084Y-147213830D01*
X111609897Y-147424197D01*
X111536934Y-147648752D01*
X111500000Y-147881947D01*
X108000000Y-147881947D01*
X107963065Y-147648752D01*
X107890102Y-147424197D01*
X107782914Y-147213828D01*
X107722658Y-147130894D01*
X107722658Y-147130893D01*
X107023787Y-147829765D01*
X107012518Y-147787708D01*
X106940110Y-147662292D01*
X106837708Y-147559890D01*
X106712292Y-147487482D01*
X106670234Y-147476212D01*
X107369105Y-146777340D01*
X107369104Y-146777339D01*
X107286174Y-146717087D01*
X107075802Y-146609897D01*
X106851247Y-146536934D01*
X106851248Y-146536934D01*
X106618052Y-146500000D01*
X106381948Y-146500000D01*
X106148752Y-146536934D01*
X105924197Y-146609897D01*
X105713830Y-146717084D01*
X105630894Y-146777340D01*
X106329766Y-147476212D01*
X106287708Y-147487482D01*
X106162292Y-147559890D01*
X106059890Y-147662292D01*
X105987482Y-147787708D01*
X105976212Y-147829766D01*
X105277340Y-147130894D01*
X105217084Y-147213830D01*
X105109897Y-147424197D01*
X105036934Y-147648752D01*
X105000000Y-147881947D01*
X88453090Y-147881947D01*
X88463063Y-147851254D01*
X88463066Y-147851240D01*
X88500000Y-147618052D01*
X88500000Y-147381947D01*
X88463065Y-147148752D01*
X88390101Y-146924194D01*
X88368040Y-146880895D01*
X88368039Y-146880894D01*
X88282914Y-146713828D01*
X88222658Y-146630894D01*
X88222658Y-146630893D01*
X87523787Y-147329765D01*
X87512518Y-147287708D01*
X87440110Y-147162292D01*
X87337708Y-147059890D01*
X87212292Y-146987482D01*
X87170234Y-146976212D01*
X87869105Y-146277340D01*
X87869104Y-146277338D01*
X87786174Y-146217087D01*
X87575802Y-146109897D01*
X87351247Y-146036934D01*
X87351248Y-146036934D01*
X87118052Y-146000000D01*
X86881948Y-146000000D01*
X86648752Y-146036934D01*
X86424197Y-146109897D01*
X86213830Y-146217084D01*
X86130894Y-146277340D01*
X86829766Y-146976212D01*
X86787708Y-146987482D01*
X86662292Y-147059890D01*
X86559890Y-147162292D01*
X86487482Y-147287708D01*
X86476212Y-147329766D01*
X85777340Y-146630894D01*
X85717084Y-146713830D01*
X85609897Y-146924197D01*
X85536934Y-147148752D01*
X85500000Y-147381947D01*
X82000000Y-147381947D01*
X81963065Y-147148752D01*
X81890102Y-146924197D01*
X81782914Y-146713828D01*
X81722658Y-146630894D01*
X81722658Y-146630893D01*
X81023787Y-147329765D01*
X81012518Y-147287708D01*
X80940110Y-147162292D01*
X80837708Y-147059890D01*
X80712292Y-146987482D01*
X80670234Y-146976212D01*
X81369105Y-146277340D01*
X81369104Y-146277339D01*
X81286174Y-146217087D01*
X81075802Y-146109897D01*
X80851247Y-146036934D01*
X80851248Y-146036934D01*
X80618052Y-146000000D01*
X80381948Y-146000000D01*
X80148752Y-146036934D01*
X79924197Y-146109897D01*
X79713830Y-146217084D01*
X79630894Y-146277340D01*
X80329766Y-146976212D01*
X80287708Y-146987482D01*
X80162292Y-147059890D01*
X80059890Y-147162292D01*
X79987482Y-147287708D01*
X79976212Y-147329766D01*
X79277340Y-146630894D01*
X79217084Y-146713830D01*
X79109897Y-146924197D01*
X79036934Y-147148752D01*
X79000000Y-147381947D01*
X78000500Y-147381947D01*
X78000500Y-142881902D01*
X78999500Y-142881902D01*
X78999500Y-143118097D01*
X79036446Y-143351368D01*
X79109433Y-143575996D01*
X79185610Y-143725500D01*
X79216657Y-143786433D01*
X79355483Y-143977510D01*
X79522490Y-144144517D01*
X79713567Y-144283343D01*
X79812991Y-144334002D01*
X79924003Y-144390566D01*
X79924005Y-144390566D01*
X79924008Y-144390568D01*
X80044412Y-144429689D01*
X80148631Y-144463553D01*
X80381903Y-144500500D01*
X80381908Y-144500500D01*
X80618097Y-144500500D01*
X80851368Y-144463553D01*
X81075992Y-144390568D01*
X81286433Y-144283343D01*
X81477510Y-144144517D01*
X81644517Y-143977510D01*
X81783343Y-143786433D01*
X81818107Y-143718205D01*
X81866082Y-143667409D01*
X81928592Y-143650500D01*
X85571408Y-143650500D01*
X85638447Y-143670185D01*
X85681893Y-143718205D01*
X85685610Y-143725500D01*
X85716657Y-143786433D01*
X85855483Y-143977510D01*
X86022490Y-144144517D01*
X86213567Y-144283343D01*
X86312991Y-144334002D01*
X86424003Y-144390566D01*
X86424005Y-144390566D01*
X86424008Y-144390568D01*
X86544412Y-144429689D01*
X86648631Y-144463553D01*
X86881903Y-144500500D01*
X86881908Y-144500500D01*
X87118097Y-144500500D01*
X87351368Y-144463553D01*
X87575992Y-144390568D01*
X87786433Y-144283343D01*
X87977510Y-144144517D01*
X88144517Y-143977510D01*
X88283343Y-143786433D01*
X88318107Y-143718205D01*
X88366082Y-143667409D01*
X88428592Y-143650500D01*
X95883202Y-143650500D01*
X95923204Y-143659368D01*
X95923810Y-143657542D01*
X95930665Y-143659813D01*
X95930666Y-143659814D01*
X96097203Y-143714999D01*
X96199991Y-143725500D01*
X96800008Y-143725499D01*
X96800016Y-143725498D01*
X96800019Y-143725498D01*
X96871412Y-143718205D01*
X96902797Y-143714999D01*
X97069334Y-143659814D01*
X97218656Y-143567712D01*
X97342712Y-143443656D01*
X97344752Y-143440347D01*
X97346745Y-143438555D01*
X97347193Y-143437989D01*
X97347289Y-143438065D01*
X97396694Y-143393623D01*
X97465656Y-143382395D01*
X97529740Y-143410234D01*
X97555829Y-143440339D01*
X97557681Y-143443341D01*
X97557683Y-143443344D01*
X97681654Y-143567315D01*
X97830875Y-143659356D01*
X97830880Y-143659358D01*
X97997302Y-143714505D01*
X97997309Y-143714506D01*
X98100019Y-143724999D01*
X98650000Y-143724999D01*
X98699972Y-143724999D01*
X98699986Y-143724998D01*
X98802697Y-143714505D01*
X98969119Y-143659358D01*
X98969124Y-143659356D01*
X99118345Y-143567315D01*
X99242315Y-143443345D01*
X99334356Y-143294124D01*
X99334358Y-143294119D01*
X99389505Y-143127697D01*
X99389506Y-143127690D01*
X99399999Y-143024986D01*
X99400000Y-143024973D01*
X99400000Y-142750000D01*
X98650000Y-142750000D01*
X98650000Y-143724999D01*
X98100019Y-143724999D01*
X98149999Y-143724998D01*
X98150000Y-143724998D01*
X98150000Y-142250000D01*
X98650000Y-142250000D01*
X99399999Y-142250000D01*
X99399999Y-141975028D01*
X99399998Y-141975013D01*
X99389505Y-141872302D01*
X99334358Y-141705880D01*
X99334356Y-141705875D01*
X99242315Y-141556654D01*
X99118345Y-141432684D01*
X98969124Y-141340643D01*
X98969119Y-141340641D01*
X98802697Y-141285494D01*
X98802690Y-141285493D01*
X98699986Y-141275000D01*
X98650000Y-141275000D01*
X98650000Y-142250000D01*
X98150000Y-142250000D01*
X98150000Y-141275000D01*
X98149999Y-141274999D01*
X98100029Y-141275000D01*
X98100011Y-141275001D01*
X97997302Y-141285494D01*
X97830880Y-141340641D01*
X97830875Y-141340643D01*
X97681654Y-141432684D01*
X97557683Y-141556655D01*
X97557679Y-141556660D01*
X97555826Y-141559665D01*
X97554018Y-141561290D01*
X97553202Y-141562323D01*
X97553025Y-141562183D01*
X97503874Y-141606385D01*
X97434911Y-141617601D01*
X97370831Y-141589752D01*
X97344753Y-141559653D01*
X97344737Y-141559628D01*
X97342712Y-141556344D01*
X97218656Y-141432288D01*
X97069334Y-141340186D01*
X96902797Y-141285001D01*
X96902795Y-141285000D01*
X96800010Y-141274500D01*
X96199998Y-141274500D01*
X96199980Y-141274501D01*
X96097203Y-141285000D01*
X96097200Y-141285001D01*
X95930668Y-141340185D01*
X95930663Y-141340187D01*
X95781342Y-141432289D01*
X95657289Y-141556342D01*
X95565187Y-141705663D01*
X95565185Y-141705668D01*
X95565115Y-141705880D01*
X95510001Y-141872203D01*
X95510001Y-141872204D01*
X95510000Y-141872204D01*
X95499500Y-141974983D01*
X95499500Y-142225500D01*
X95479815Y-142292539D01*
X95427011Y-142338294D01*
X95375500Y-142349500D01*
X88428592Y-142349500D01*
X88361553Y-142329815D01*
X88318107Y-142281795D01*
X88283342Y-142213566D01*
X88261680Y-142183751D01*
X88144517Y-142022490D01*
X87977510Y-141855483D01*
X87786433Y-141716657D01*
X87757869Y-141702103D01*
X87575996Y-141609433D01*
X87351369Y-141536447D01*
X87167601Y-141507340D01*
X87104467Y-141477410D01*
X87067536Y-141418099D01*
X87063000Y-141384867D01*
X87063000Y-137161667D01*
X87082685Y-137094628D01*
X87121905Y-137056127D01*
X87143656Y-137042712D01*
X87267712Y-136918656D01*
X87359814Y-136769334D01*
X87414999Y-136602797D01*
X87425500Y-136500009D01*
X87425499Y-135499992D01*
X87414999Y-135397203D01*
X87359814Y-135230666D01*
X87267712Y-135081344D01*
X87143656Y-134957288D01*
X86994334Y-134865186D01*
X86827797Y-134810001D01*
X86827795Y-134810000D01*
X86725010Y-134799500D01*
X86099998Y-134799500D01*
X86099980Y-134799501D01*
X85997203Y-134810000D01*
X85997200Y-134810001D01*
X85830668Y-134865185D01*
X85830663Y-134865187D01*
X85681342Y-134957289D01*
X85587681Y-135050951D01*
X85526358Y-135084436D01*
X85456666Y-135079452D01*
X85412319Y-135050951D01*
X85318656Y-134957288D01*
X85296900Y-134943868D01*
X85250177Y-134891918D01*
X85238000Y-134838331D01*
X85238000Y-132774500D01*
X85257685Y-132707461D01*
X85310489Y-132661706D01*
X85362000Y-132650500D01*
X108138000Y-132650500D01*
X108205039Y-132670185D01*
X108250794Y-132722989D01*
X108262000Y-132774500D01*
X108262000Y-133838331D01*
X108242315Y-133905370D01*
X108203100Y-133943868D01*
X108181343Y-133957288D01*
X108087681Y-134050951D01*
X108026358Y-134084436D01*
X107956666Y-134079452D01*
X107912319Y-134050951D01*
X107818657Y-133957289D01*
X107818656Y-133957288D01*
X107669334Y-133865186D01*
X107502797Y-133810001D01*
X107502795Y-133810000D01*
X107400010Y-133799500D01*
X106774998Y-133799500D01*
X106774980Y-133799501D01*
X106672203Y-133810000D01*
X106672200Y-133810001D01*
X106505668Y-133865185D01*
X106505663Y-133865187D01*
X106356342Y-133957289D01*
X106232289Y-134081342D01*
X106140187Y-134230663D01*
X106140185Y-134230668D01*
X106128188Y-134266873D01*
X106085001Y-134397203D01*
X106085001Y-134397204D01*
X106085000Y-134397204D01*
X106074500Y-134499983D01*
X106074500Y-135041690D01*
X106054815Y-135108729D01*
X106038183Y-135129369D01*
X105994726Y-135172827D01*
X105994724Y-135172829D01*
X105923534Y-135279374D01*
X105874499Y-135397755D01*
X105874497Y-135397761D01*
X105849500Y-135523428D01*
X105849500Y-142071407D01*
X105829815Y-142138446D01*
X105781796Y-142181891D01*
X105713569Y-142216655D01*
X105618028Y-142286070D01*
X105522490Y-142355483D01*
X105522488Y-142355485D01*
X105522487Y-142355485D01*
X105355485Y-142522487D01*
X105355485Y-142522488D01*
X105355483Y-142522490D01*
X105295862Y-142604550D01*
X105216657Y-142713566D01*
X105109433Y-142924003D01*
X105036446Y-143148631D01*
X104999500Y-143381902D01*
X104999500Y-143618097D01*
X105036446Y-143851368D01*
X105109433Y-144075996D01*
X105181893Y-144218205D01*
X105216657Y-144286433D01*
X105355483Y-144477510D01*
X105522490Y-144644517D01*
X105713567Y-144783343D01*
X105812991Y-144834002D01*
X105924003Y-144890566D01*
X105924005Y-144890566D01*
X105924008Y-144890568D01*
X106044412Y-144929689D01*
X106148631Y-144963553D01*
X106381903Y-145000500D01*
X106381908Y-145000500D01*
X106618097Y-145000500D01*
X106851368Y-144963553D01*
X107075992Y-144890568D01*
X107286433Y-144783343D01*
X107477510Y-144644517D01*
X107644517Y-144477510D01*
X107783343Y-144286433D01*
X107818107Y-144218205D01*
X107866082Y-144167409D01*
X107928592Y-144150500D01*
X111571408Y-144150500D01*
X111638447Y-144170185D01*
X111681893Y-144218205D01*
X111716657Y-144286433D01*
X111855483Y-144477510D01*
X112022490Y-144644517D01*
X112213567Y-144783343D01*
X112312991Y-144834002D01*
X112424003Y-144890566D01*
X112424005Y-144890566D01*
X112424008Y-144890568D01*
X112544412Y-144929689D01*
X112648631Y-144963553D01*
X112881903Y-145000500D01*
X112881908Y-145000500D01*
X113118097Y-145000500D01*
X113351368Y-144963553D01*
X113575992Y-144890568D01*
X113786433Y-144783343D01*
X113977510Y-144644517D01*
X114144517Y-144477510D01*
X114283343Y-144286433D01*
X114390568Y-144075992D01*
X114463553Y-143851368D01*
X114473838Y-143786433D01*
X114500500Y-143618097D01*
X114500500Y-143381902D01*
X114463553Y-143148631D01*
X114390566Y-142924003D01*
X114318107Y-142781795D01*
X114283343Y-142713567D01*
X114144517Y-142522490D01*
X113977510Y-142355483D01*
X113786433Y-142216657D01*
X113755418Y-142200854D01*
X113575996Y-142109433D01*
X113351368Y-142036446D01*
X113118097Y-141999500D01*
X113118092Y-141999500D01*
X112881908Y-141999500D01*
X112881903Y-141999500D01*
X112648631Y-142036446D01*
X112424003Y-142109433D01*
X112213566Y-142216657D01*
X112109125Y-142292539D01*
X112022490Y-142355483D01*
X112022488Y-142355485D01*
X112022487Y-142355485D01*
X111855485Y-142522487D01*
X111855485Y-142522488D01*
X111855483Y-142522490D01*
X111795862Y-142604550D01*
X111716657Y-142713566D01*
X111681893Y-142781795D01*
X111633918Y-142832591D01*
X111571408Y-142849500D01*
X107928592Y-142849500D01*
X107861553Y-142829815D01*
X107818107Y-142781795D01*
X107783342Y-142713566D01*
X107753178Y-142672049D01*
X107644517Y-142522490D01*
X107477510Y-142355483D01*
X107286433Y-142216657D01*
X107286432Y-142216656D01*
X107286430Y-142216655D01*
X107218204Y-142181891D01*
X107167408Y-142133916D01*
X107150500Y-142071407D01*
X107150500Y-136324499D01*
X107170185Y-136257460D01*
X107222989Y-136211705D01*
X107274500Y-136200499D01*
X107400002Y-136200499D01*
X107400008Y-136200499D01*
X107502797Y-136189999D01*
X107669334Y-136134814D01*
X107818656Y-136042712D01*
X107912319Y-135949049D01*
X107973642Y-135915564D01*
X108043334Y-135920548D01*
X108087681Y-135949049D01*
X108181344Y-136042712D01*
X108330666Y-136134814D01*
X108497203Y-136189999D01*
X108599991Y-136200500D01*
X109225008Y-136200499D01*
X109225016Y-136200498D01*
X109225019Y-136200498D01*
X109281302Y-136194748D01*
X109327797Y-136189999D01*
X109494334Y-136134814D01*
X109643656Y-136042712D01*
X109767712Y-135918656D01*
X109859814Y-135769334D01*
X109871028Y-135735494D01*
X109910801Y-135678050D01*
X109975317Y-135651228D01*
X109988733Y-135650500D01*
X114064071Y-135650500D01*
X114148615Y-135633682D01*
X114189744Y-135625501D01*
X114308127Y-135576465D01*
X114414669Y-135505277D01*
X115005277Y-134914669D01*
X115076465Y-134808127D01*
X115118683Y-134706204D01*
X115125501Y-134689744D01*
X115150500Y-134564069D01*
X115150500Y-108435931D01*
X115150500Y-108435928D01*
X115125502Y-108310261D01*
X115125501Y-108310260D01*
X115125501Y-108310256D01*
X115076465Y-108191873D01*
X115075042Y-108189744D01*
X115005277Y-108085331D01*
X115005275Y-108085329D01*
X115005273Y-108085326D01*
X115001408Y-108080616D01*
X115003038Y-108079277D01*
X114974142Y-108026357D01*
X114979126Y-107956665D01*
X115007625Y-107912320D01*
X116733127Y-106186819D01*
X116794450Y-106153334D01*
X116820808Y-106150500D01*
X127179192Y-106150500D01*
X127246231Y-106170185D01*
X127266873Y-106186819D01*
X127813181Y-106733127D01*
X127846666Y-106794450D01*
X127849500Y-106820808D01*
X127849500Y-110625500D01*
X127829815Y-110692539D01*
X127777011Y-110738294D01*
X127725505Y-110749500D01*
X127702132Y-110749500D01*
X127702123Y-110749501D01*
X127642516Y-110755908D01*
X127507671Y-110806202D01*
X127507664Y-110806206D01*
X127392455Y-110892452D01*
X127392452Y-110892455D01*
X127306206Y-111007664D01*
X127306202Y-111007671D01*
X127255908Y-111142517D01*
X127250482Y-111192993D01*
X127249501Y-111202123D01*
X127249500Y-111202135D01*
X127249500Y-112797870D01*
X127249501Y-112797876D01*
X127255908Y-112857483D01*
X127306202Y-112992328D01*
X127306206Y-112992335D01*
X127392452Y-113107544D01*
X127392455Y-113107547D01*
X127507664Y-113193793D01*
X127507671Y-113193797D01*
X127642517Y-113244091D01*
X127642516Y-113244091D01*
X127649444Y-113244835D01*
X127702127Y-113250500D01*
X127765733Y-113250499D01*
X127832770Y-113270183D01*
X127878526Y-113322986D01*
X127888470Y-113392144D01*
X127859446Y-113455700D01*
X127838619Y-113474816D01*
X127685354Y-113586171D01*
X127546174Y-113725351D01*
X127546174Y-113725352D01*
X127546172Y-113725354D01*
X127546170Y-113725357D01*
X127430476Y-113884594D01*
X127341117Y-114059970D01*
X127280290Y-114247173D01*
X127249500Y-114441577D01*
X127249500Y-114638418D01*
X127249499Y-114638420D01*
X127280290Y-114832826D01*
X127341117Y-115020029D01*
X127427977Y-115190500D01*
X127430476Y-115195405D01*
X127546172Y-115354646D01*
X127685354Y-115493828D01*
X127844595Y-115609524D01*
X127967992Y-115672397D01*
X128021213Y-115699515D01*
X128072009Y-115747489D01*
X128088804Y-115815310D01*
X128066267Y-115881445D01*
X128021213Y-115920485D01*
X127844594Y-116010476D01*
X127753741Y-116076485D01*
X127685354Y-116126172D01*
X127685352Y-116126174D01*
X127685351Y-116126174D01*
X127546174Y-116265351D01*
X127546174Y-116265352D01*
X127546172Y-116265354D01*
X127496485Y-116333741D01*
X127430476Y-116424594D01*
X127341117Y-116599970D01*
X127280290Y-116787173D01*
X127249500Y-116981577D01*
X127249500Y-117178422D01*
X127280290Y-117372826D01*
X127341117Y-117560029D01*
X127384305Y-117644789D01*
X127430476Y-117735405D01*
X127546172Y-117894646D01*
X127685354Y-118033828D01*
X127804784Y-118120600D01*
X127844596Y-118149525D01*
X128021763Y-118239795D01*
X128072560Y-118287769D01*
X128089355Y-118355590D01*
X128066818Y-118421725D01*
X128021764Y-118460765D01*
X127844859Y-118550902D01*
X127809873Y-118576320D01*
X127809872Y-118576320D01*
X128453554Y-119220000D01*
X128447339Y-119220000D01*
X128345606Y-119247259D01*
X128254394Y-119299920D01*
X128179920Y-119374394D01*
X128127259Y-119465606D01*
X128100000Y-119567339D01*
X128100000Y-119573552D01*
X127456320Y-118929872D01*
X127456320Y-118929873D01*
X127430902Y-118964859D01*
X127430899Y-118964863D01*
X127341582Y-119140161D01*
X127280778Y-119327294D01*
X127250000Y-119521617D01*
X127250000Y-119718382D01*
X127280778Y-119912705D01*
X127341581Y-120099835D01*
X127430905Y-120275145D01*
X127456319Y-120310125D01*
X127456320Y-120310125D01*
X128100000Y-119666445D01*
X128100000Y-119672661D01*
X128127259Y-119774394D01*
X128179920Y-119865606D01*
X128254394Y-119940080D01*
X128345606Y-119992741D01*
X128447339Y-120020000D01*
X128453553Y-120020000D01*
X127809873Y-120663677D01*
X127809873Y-120663678D01*
X127844858Y-120689096D01*
X128020164Y-120778418D01*
X128207294Y-120839221D01*
X128401618Y-120870000D01*
X128598382Y-120870000D01*
X128792705Y-120839221D01*
X128979835Y-120778418D01*
X129155143Y-120689095D01*
X129190125Y-120663678D01*
X129190126Y-120663678D01*
X128546448Y-120020000D01*
X128552661Y-120020000D01*
X128654394Y-119992741D01*
X128745606Y-119940080D01*
X128820080Y-119865606D01*
X128872741Y-119774394D01*
X128900000Y-119672661D01*
X128900000Y-119666448D01*
X129543678Y-120310126D01*
X129543678Y-120310125D01*
X129569095Y-120275143D01*
X129658418Y-120099835D01*
X129719221Y-119912705D01*
X129750000Y-119718382D01*
X129750000Y-119521617D01*
X129719221Y-119327294D01*
X129658418Y-119140164D01*
X129569096Y-118964858D01*
X129543678Y-118929873D01*
X129543677Y-118929873D01*
X128900000Y-119573551D01*
X128900000Y-119567339D01*
X128872741Y-119465606D01*
X128820080Y-119374394D01*
X128745606Y-119299920D01*
X128654394Y-119247259D01*
X128552661Y-119220000D01*
X128546447Y-119220000D01*
X129190125Y-118576320D01*
X129190125Y-118576319D01*
X129155145Y-118550905D01*
X128978235Y-118460765D01*
X128927439Y-118412790D01*
X128910644Y-118344969D01*
X128933182Y-118278834D01*
X128978236Y-118239795D01*
X128980022Y-118238884D01*
X128980025Y-118238884D01*
X129155405Y-118149524D01*
X129314646Y-118033828D01*
X129453828Y-117894646D01*
X129569524Y-117735405D01*
X129658884Y-117560025D01*
X129719709Y-117372826D01*
X129733424Y-117286231D01*
X129750500Y-117178422D01*
X129750500Y-116981577D01*
X129719709Y-116787173D01*
X129658882Y-116599970D01*
X129569523Y-116424594D01*
X129453828Y-116265354D01*
X129314646Y-116126172D01*
X129235025Y-116068324D01*
X129155403Y-116010474D01*
X128978787Y-115920485D01*
X128927990Y-115872511D01*
X128911195Y-115804690D01*
X128933732Y-115738555D01*
X128978787Y-115699515D01*
X129155403Y-115609525D01*
X129155402Y-115609525D01*
X129155405Y-115609524D01*
X129314646Y-115493828D01*
X129453828Y-115354646D01*
X129535950Y-115241614D01*
X129591280Y-115198949D01*
X129636268Y-115190500D01*
X132219192Y-115190500D01*
X132286231Y-115210185D01*
X132306873Y-115226819D01*
X132313181Y-115233127D01*
X132346666Y-115294450D01*
X132349500Y-115320808D01*
X132349500Y-120064070D01*
X132363661Y-120135257D01*
X132363661Y-120135259D01*
X132374497Y-120189736D01*
X132374499Y-120189744D01*
X132423534Y-120308125D01*
X132494726Y-120414673D01*
X132494727Y-120414674D01*
X132994723Y-120914669D01*
X133085331Y-121005277D01*
X133174156Y-121064627D01*
X133191874Y-121076466D01*
X133283436Y-121114391D01*
X133310256Y-121125501D01*
X133310257Y-121125501D01*
X133310262Y-121125503D01*
X133331105Y-121129648D01*
X133331112Y-121129649D01*
X133435929Y-121150500D01*
X133435931Y-121150500D01*
X133564071Y-121150500D01*
X133668896Y-121129648D01*
X133689744Y-121125501D01*
X133808127Y-121076465D01*
X133914669Y-121005277D01*
X133914673Y-121005272D01*
X133914677Y-121005270D01*
X133916666Y-121003639D01*
X133917909Y-121003110D01*
X133919734Y-121001892D01*
X133919965Y-121002238D01*
X133980978Y-120976332D01*
X133995321Y-120975500D01*
X140338332Y-120975500D01*
X140405371Y-120995185D01*
X140443870Y-121034403D01*
X140457285Y-121056152D01*
X140457288Y-121056156D01*
X140581344Y-121180212D01*
X140730666Y-121272314D01*
X140897203Y-121327499D01*
X140999991Y-121338000D01*
X142000008Y-121337999D01*
X142000016Y-121337998D01*
X142000019Y-121337998D01*
X142056302Y-121332248D01*
X142102797Y-121327499D01*
X142269334Y-121272314D01*
X142418656Y-121180212D01*
X142542712Y-121056156D01*
X142634814Y-120906834D01*
X142689999Y-120740297D01*
X142700500Y-120637509D01*
X142700499Y-120012492D01*
X142698481Y-119992741D01*
X142689999Y-119909703D01*
X142689998Y-119909700D01*
X142634814Y-119743166D01*
X142542712Y-119593844D01*
X142449049Y-119500181D01*
X142415564Y-119438858D01*
X142420548Y-119369166D01*
X142449049Y-119324819D01*
X142473948Y-119299920D01*
X142542712Y-119231156D01*
X142549593Y-119220000D01*
X142556130Y-119209403D01*
X142608078Y-119162678D01*
X142661668Y-119150500D01*
X145679192Y-119150500D01*
X145746231Y-119170185D01*
X145766873Y-119186819D01*
X146313181Y-119733127D01*
X146346666Y-119794450D01*
X146349500Y-119820808D01*
X146349500Y-130179192D01*
X146329815Y-130246231D01*
X146313181Y-130266873D01*
X145766873Y-130813181D01*
X145705550Y-130846666D01*
X145679192Y-130849500D01*
X135901233Y-130849500D01*
X135834194Y-130829815D01*
X135788439Y-130777011D01*
X135783528Y-130764506D01*
X135778995Y-130750829D01*
X135772314Y-130730666D01*
X135680212Y-130581344D01*
X135556156Y-130457288D01*
X135406834Y-130365186D01*
X135240297Y-130310001D01*
X135240295Y-130310000D01*
X135137510Y-130299500D01*
X134512498Y-130299500D01*
X134512480Y-130299501D01*
X134409703Y-130310000D01*
X134409700Y-130310001D01*
X134243168Y-130365185D01*
X134243163Y-130365187D01*
X134093842Y-130457289D01*
X134000181Y-130550951D01*
X133938858Y-130584436D01*
X133869166Y-130579452D01*
X133824819Y-130550951D01*
X133731157Y-130457289D01*
X133731156Y-130457288D01*
X133581834Y-130365186D01*
X133415297Y-130310001D01*
X133415295Y-130310000D01*
X133312510Y-130299500D01*
X132687498Y-130299500D01*
X132687480Y-130299501D01*
X132584703Y-130310000D01*
X132584700Y-130310001D01*
X132418168Y-130365185D01*
X132418163Y-130365187D01*
X132268842Y-130457289D01*
X132144789Y-130581342D01*
X132052687Y-130730663D01*
X132052685Y-130730668D01*
X132037329Y-130777011D01*
X131997501Y-130897203D01*
X131997501Y-130897204D01*
X131997500Y-130897204D01*
X131987000Y-130999983D01*
X131987000Y-132000001D01*
X131987001Y-132000019D01*
X131997500Y-132102796D01*
X131997501Y-132102798D01*
X132044369Y-132244234D01*
X132052686Y-132269334D01*
X132144788Y-132418656D01*
X132268844Y-132542712D01*
X132290594Y-132556127D01*
X132337320Y-132608073D01*
X132349500Y-132661667D01*
X132349500Y-141499973D01*
X132329815Y-141567012D01*
X132277011Y-141612767D01*
X132244899Y-141622446D01*
X132172047Y-141633985D01*
X131962396Y-141702103D01*
X131962393Y-141702104D01*
X131765974Y-141802187D01*
X131587641Y-141931752D01*
X131587636Y-141931756D01*
X131431756Y-142087636D01*
X131431752Y-142087641D01*
X131302187Y-142265974D01*
X131202104Y-142462393D01*
X131202103Y-142462396D01*
X131133985Y-142672047D01*
X131105879Y-142849500D01*
X131099500Y-142889778D01*
X131099500Y-143110222D01*
X131105584Y-143148632D01*
X131133985Y-143327952D01*
X131202103Y-143537603D01*
X131202104Y-143537606D01*
X131259628Y-143650500D01*
X131297842Y-143725499D01*
X131302187Y-143734025D01*
X131431752Y-143912358D01*
X131431756Y-143912363D01*
X131482316Y-143962923D01*
X131515801Y-144024246D01*
X131510817Y-144093938D01*
X131468945Y-144149871D01*
X131437969Y-144166785D01*
X131357918Y-144196643D01*
X131357906Y-144196649D01*
X131242812Y-144282809D01*
X131242809Y-144282812D01*
X131156649Y-144397906D01*
X131156645Y-144397913D01*
X131106403Y-144532620D01*
X131106401Y-144532627D01*
X131100000Y-144592155D01*
X131100000Y-145290000D01*
X132124722Y-145290000D01*
X132080667Y-145366306D01*
X132050000Y-145480756D01*
X132050000Y-145599244D01*
X132080667Y-145713694D01*
X132124722Y-145790000D01*
X131100000Y-145790000D01*
X131100000Y-146487844D01*
X131106401Y-146547372D01*
X131106403Y-146547379D01*
X131156645Y-146682086D01*
X131156649Y-146682093D01*
X131242809Y-146797187D01*
X131242812Y-146797190D01*
X131357906Y-146883350D01*
X131357913Y-146883354D01*
X131492620Y-146933596D01*
X131492627Y-146933598D01*
X131552155Y-146939999D01*
X131552172Y-146940000D01*
X132250000Y-146940000D01*
X132250000Y-145915277D01*
X132326306Y-145959333D01*
X132440756Y-145990000D01*
X132559244Y-145990000D01*
X132673694Y-145959333D01*
X132750000Y-145915277D01*
X132750000Y-146940000D01*
X133447828Y-146940000D01*
X133447844Y-146939999D01*
X133507372Y-146933598D01*
X133507379Y-146933596D01*
X133642086Y-146883354D01*
X133642093Y-146883350D01*
X133757187Y-146797190D01*
X133757190Y-146797187D01*
X133843350Y-146682093D01*
X133843354Y-146682086D01*
X133893596Y-146547379D01*
X133893598Y-146547372D01*
X133899999Y-146487844D01*
X133900000Y-146487827D01*
X133900000Y-145790000D01*
X132875278Y-145790000D01*
X132919333Y-145713694D01*
X132950000Y-145599244D01*
X132950000Y-145480756D01*
X132919333Y-145366306D01*
X132875278Y-145290000D01*
X133900000Y-145290000D01*
X133900000Y-144592172D01*
X133899999Y-144592155D01*
X133893598Y-144532627D01*
X133893596Y-144532620D01*
X133843354Y-144397913D01*
X133843350Y-144397906D01*
X133757190Y-144282812D01*
X133757187Y-144282809D01*
X133642093Y-144196649D01*
X133642087Y-144196646D01*
X133562030Y-144166786D01*
X133506097Y-144124914D01*
X133481680Y-144059450D01*
X133496532Y-143991177D01*
X133517681Y-143962925D01*
X133568242Y-143912365D01*
X133697815Y-143734022D01*
X133797895Y-143537606D01*
X133866015Y-143327951D01*
X133900500Y-143110222D01*
X133900500Y-142889778D01*
X133866015Y-142672049D01*
X133817421Y-142522490D01*
X133797896Y-142462396D01*
X133797895Y-142462393D01*
X133763237Y-142394375D01*
X133697815Y-142265978D01*
X133694224Y-142261035D01*
X133674182Y-142233449D01*
X133650702Y-142167643D01*
X133650500Y-142160564D01*
X133650500Y-132661667D01*
X133670185Y-132594628D01*
X133709405Y-132556127D01*
X133731156Y-132542712D01*
X133824819Y-132449049D01*
X133886142Y-132415564D01*
X133955834Y-132420548D01*
X134000181Y-132449049D01*
X134093844Y-132542712D01*
X134243166Y-132634814D01*
X134409703Y-132689999D01*
X134512491Y-132700500D01*
X135137508Y-132700499D01*
X135137516Y-132700498D01*
X135137519Y-132700498D01*
X135193802Y-132694748D01*
X135240297Y-132689999D01*
X135406834Y-132634814D01*
X135556156Y-132542712D01*
X135680212Y-132418656D01*
X135772314Y-132269334D01*
X135783528Y-132235494D01*
X135823301Y-132178050D01*
X135887817Y-132151228D01*
X135901233Y-132150500D01*
X146064071Y-132150500D01*
X146195718Y-132124313D01*
X146195957Y-132125517D01*
X146259366Y-132124948D01*
X146318481Y-132162194D01*
X146348075Y-132225486D01*
X146349500Y-132244234D01*
X146349500Y-134525500D01*
X146329815Y-134592539D01*
X146277011Y-134638294D01*
X146225501Y-134649500D01*
X146102130Y-134649500D01*
X146102123Y-134649501D01*
X146042516Y-134655908D01*
X145907671Y-134706202D01*
X145907664Y-134706206D01*
X145792455Y-134792452D01*
X145792452Y-134792455D01*
X145706206Y-134907664D01*
X145706202Y-134907671D01*
X145655908Y-135042517D01*
X145649501Y-135102116D01*
X145649501Y-135102123D01*
X145649500Y-135102135D01*
X145649500Y-136897870D01*
X145649501Y-136897876D01*
X145655908Y-136957483D01*
X145706202Y-137092328D01*
X145706206Y-137092335D01*
X145792452Y-137207544D01*
X145792455Y-137207547D01*
X145907664Y-137293793D01*
X145907671Y-137293797D01*
X145952618Y-137310561D01*
X146042517Y-137344091D01*
X146102127Y-137350500D01*
X146112685Y-137350499D01*
X146179723Y-137370179D01*
X146200372Y-137386818D01*
X146870591Y-138057037D01*
X146807007Y-138074075D01*
X146692993Y-138139901D01*
X146599901Y-138232993D01*
X146534075Y-138347007D01*
X146517037Y-138410591D01*
X145884728Y-137778282D01*
X145884727Y-137778282D01*
X145845380Y-137832439D01*
X145748904Y-138021782D01*
X145683242Y-138223869D01*
X145683242Y-138223872D01*
X145650000Y-138433753D01*
X145650000Y-138646246D01*
X145683242Y-138856127D01*
X145683242Y-138856130D01*
X145748904Y-139058217D01*
X145845375Y-139247550D01*
X145884728Y-139301716D01*
X146517037Y-138669408D01*
X146534075Y-138732993D01*
X146599901Y-138847007D01*
X146692993Y-138940099D01*
X146807007Y-139005925D01*
X146870590Y-139022962D01*
X146238282Y-139655269D01*
X146238282Y-139655270D01*
X146292449Y-139694624D01*
X146481782Y-139791095D01*
X146683870Y-139856757D01*
X146893754Y-139890000D01*
X147106246Y-139890000D01*
X147316127Y-139856757D01*
X147316130Y-139856757D01*
X147518217Y-139791095D01*
X147707554Y-139694622D01*
X147761716Y-139655270D01*
X147761717Y-139655270D01*
X147129408Y-139022962D01*
X147192993Y-139005925D01*
X147307007Y-138940099D01*
X147400099Y-138847007D01*
X147465925Y-138732993D01*
X147482962Y-138669408D01*
X148115270Y-139301717D01*
X148115270Y-139301716D01*
X148154622Y-139247554D01*
X148251095Y-139058217D01*
X148316757Y-138856130D01*
X148316757Y-138856127D01*
X148350000Y-138646246D01*
X148350000Y-138433753D01*
X148316757Y-138223872D01*
X148316757Y-138223869D01*
X148251095Y-138021782D01*
X148154624Y-137832449D01*
X148115270Y-137778282D01*
X148115269Y-137778282D01*
X147482962Y-138410590D01*
X147465925Y-138347007D01*
X147400099Y-138232993D01*
X147307007Y-138139901D01*
X147192993Y-138074075D01*
X147129409Y-138057037D01*
X147799627Y-137386818D01*
X147860950Y-137353333D01*
X147887307Y-137350499D01*
X147897872Y-137350499D01*
X147957483Y-137344091D01*
X148092331Y-137293796D01*
X148207546Y-137207546D01*
X148293796Y-137092331D01*
X148344091Y-136957483D01*
X148350500Y-136897873D01*
X148350499Y-135102128D01*
X148344091Y-135042517D01*
X148307297Y-134943868D01*
X148293797Y-134907671D01*
X148293793Y-134907664D01*
X148207547Y-134792455D01*
X148207544Y-134792452D01*
X148092335Y-134706206D01*
X148092328Y-134706202D01*
X147957482Y-134655908D01*
X147957483Y-134655908D01*
X147897883Y-134649501D01*
X147897881Y-134649500D01*
X147897873Y-134649500D01*
X147897865Y-134649500D01*
X147774500Y-134649500D01*
X147707461Y-134629815D01*
X147661706Y-134577011D01*
X147650500Y-134525500D01*
X147650500Y-119435928D01*
X147624313Y-119304282D01*
X147625517Y-119304042D01*
X147624948Y-119240634D01*
X147662194Y-119181519D01*
X147725486Y-119151925D01*
X147744234Y-119150500D01*
X156564071Y-119150500D01*
X156648615Y-119133682D01*
X156689744Y-119125501D01*
X156808127Y-119076465D01*
X156914669Y-119005277D01*
X157965277Y-117954669D01*
X158036465Y-117848127D01*
X158085501Y-117729744D01*
X158110500Y-117604069D01*
X158110500Y-112759617D01*
X158130185Y-112692578D01*
X158164592Y-112658902D01*
X158163874Y-112657914D01*
X158167811Y-112655053D01*
X158167816Y-112655051D01*
X158339792Y-112530104D01*
X158490104Y-112379792D01*
X158490106Y-112379788D01*
X158490109Y-112379786D01*
X158615048Y-112207820D01*
X158615047Y-112207820D01*
X158615051Y-112207816D01*
X158619514Y-112199054D01*
X158667488Y-112148259D01*
X158735308Y-112131463D01*
X158801444Y-112153999D01*
X158840486Y-112199056D01*
X158844951Y-112207820D01*
X158969890Y-112379786D01*
X159120213Y-112530109D01*
X159292179Y-112655048D01*
X159292181Y-112655049D01*
X159292184Y-112655051D01*
X159481588Y-112751557D01*
X159683757Y-112817246D01*
X159893713Y-112850500D01*
X159893714Y-112850500D01*
X160106286Y-112850500D01*
X160106287Y-112850500D01*
X160316243Y-112817246D01*
X160518412Y-112751557D01*
X160707816Y-112655051D01*
X160803778Y-112585331D01*
X160879786Y-112530109D01*
X160879788Y-112530106D01*
X160879792Y-112530104D01*
X161030104Y-112379792D01*
X161030106Y-112379788D01*
X161030109Y-112379786D01*
X161155048Y-112207820D01*
X161155047Y-112207820D01*
X161155051Y-112207816D01*
X161159514Y-112199054D01*
X161207488Y-112148259D01*
X161275308Y-112131463D01*
X161341444Y-112153999D01*
X161380486Y-112199056D01*
X161384951Y-112207820D01*
X161509890Y-112379786D01*
X161660213Y-112530109D01*
X161832179Y-112655048D01*
X161832181Y-112655049D01*
X161832184Y-112655051D01*
X162021588Y-112751557D01*
X162223757Y-112817246D01*
X162433713Y-112850500D01*
X162433714Y-112850500D01*
X162646286Y-112850500D01*
X162646287Y-112850500D01*
X162856243Y-112817246D01*
X163058412Y-112751557D01*
X163247816Y-112655051D01*
X163343778Y-112585331D01*
X163419786Y-112530109D01*
X163419788Y-112530106D01*
X163419792Y-112530104D01*
X163570104Y-112379792D01*
X163570106Y-112379788D01*
X163570109Y-112379786D01*
X163695048Y-112207820D01*
X163695047Y-112207820D01*
X163695051Y-112207816D01*
X163791557Y-112018412D01*
X163857246Y-111816243D01*
X163890500Y-111606287D01*
X163890500Y-111393713D01*
X163857246Y-111183757D01*
X163791557Y-110981588D01*
X163695051Y-110792184D01*
X163695049Y-110792181D01*
X163695048Y-110792179D01*
X163570109Y-110620213D01*
X163419786Y-110469890D01*
X163243875Y-110342085D01*
X163244851Y-110340740D01*
X163202834Y-110294295D01*
X163190500Y-110240382D01*
X163190500Y-95475928D01*
X163165502Y-95350261D01*
X163165501Y-95350260D01*
X163165501Y-95350256D01*
X163116465Y-95231873D01*
X163051566Y-95134744D01*
X163045277Y-95125331D01*
X163045275Y-95125328D01*
X162359673Y-94439726D01*
X162307667Y-94404977D01*
X162253127Y-94368535D01*
X162216421Y-94353331D01*
X162134744Y-94319499D01*
X162134738Y-94319497D01*
X162009071Y-94294500D01*
X162009069Y-94294500D01*
X161124500Y-94294500D01*
X161057461Y-94274815D01*
X161011706Y-94222011D01*
X161000500Y-94170500D01*
X161000499Y-93177129D01*
X161000498Y-93177123D01*
X161000497Y-93177116D01*
X160994091Y-93117517D01*
X160981340Y-93083332D01*
X160976357Y-93013642D01*
X160981340Y-92996669D01*
X160994091Y-92962483D01*
X161000500Y-92902873D01*
X161000499Y-91907128D01*
X160994091Y-91847517D01*
X160981340Y-91813332D01*
X160976357Y-91743642D01*
X160981340Y-91726669D01*
X160994091Y-91692483D01*
X161000500Y-91632873D01*
X161000499Y-90637128D01*
X160994091Y-90577517D01*
X160981073Y-90542616D01*
X160976090Y-90472926D01*
X160981075Y-90455949D01*
X160993597Y-90422375D01*
X160993598Y-90422372D01*
X160999999Y-90362844D01*
X161000000Y-90362827D01*
X161000000Y-90115000D01*
X158500000Y-90115000D01*
X158500000Y-90362844D01*
X158506401Y-90422372D01*
X158506403Y-90422379D01*
X158518925Y-90455952D01*
X158523909Y-90525643D01*
X158518925Y-90542617D01*
X158505909Y-90577514D01*
X158505908Y-90577516D01*
X158499501Y-90637116D01*
X158499501Y-90637123D01*
X158499500Y-90637135D01*
X158499500Y-91632870D01*
X158499501Y-91632876D01*
X158505908Y-91692481D01*
X158518659Y-91726669D01*
X158523642Y-91796361D01*
X158518659Y-91813331D01*
X158505908Y-91847518D01*
X158499977Y-91902690D01*
X158499501Y-91907123D01*
X158499500Y-91907135D01*
X158499500Y-92902870D01*
X158499501Y-92902876D01*
X158505908Y-92962481D01*
X158518659Y-92996669D01*
X158523642Y-93066361D01*
X158518659Y-93083331D01*
X158505908Y-93117518D01*
X158499501Y-93177116D01*
X158499501Y-93177123D01*
X158499500Y-93177135D01*
X158499500Y-93404191D01*
X158479815Y-93471230D01*
X158463181Y-93491872D01*
X157994725Y-93960328D01*
X157994719Y-93960336D01*
X157934477Y-94050494D01*
X157934478Y-94050495D01*
X157923534Y-94066874D01*
X157874499Y-94185255D01*
X157874497Y-94185261D01*
X157849500Y-94310928D01*
X157849500Y-106578500D01*
X157829815Y-106645539D01*
X157777011Y-106691294D01*
X157707853Y-106701238D01*
X157644297Y-106672213D01*
X157616670Y-106637930D01*
X157613797Y-106632669D01*
X157527547Y-106517455D01*
X157527544Y-106517452D01*
X157412335Y-106431206D01*
X157412328Y-106431202D01*
X157277482Y-106380908D01*
X157277483Y-106380908D01*
X157217883Y-106374501D01*
X157217881Y-106374500D01*
X157217873Y-106374500D01*
X157217864Y-106374500D01*
X156222129Y-106374500D01*
X156222123Y-106374501D01*
X156162518Y-106380908D01*
X156128331Y-106393659D01*
X156058639Y-106398642D01*
X156041669Y-106393659D01*
X156024140Y-106387121D01*
X156007483Y-106380909D01*
X156007482Y-106380908D01*
X155947883Y-106374501D01*
X155947881Y-106374500D01*
X155947873Y-106374500D01*
X155947864Y-106374500D01*
X154952129Y-106374500D01*
X154952123Y-106374501D01*
X154892518Y-106380908D01*
X154858331Y-106393659D01*
X154788639Y-106398642D01*
X154771669Y-106393659D01*
X154754140Y-106387121D01*
X154737483Y-106380909D01*
X154737482Y-106380908D01*
X154677883Y-106374501D01*
X154677881Y-106374500D01*
X154677873Y-106374500D01*
X154677864Y-106374500D01*
X153682129Y-106374500D01*
X153682123Y-106374501D01*
X153622518Y-106380908D01*
X153588331Y-106393659D01*
X153518639Y-106398642D01*
X153501669Y-106393659D01*
X153484140Y-106387121D01*
X153467483Y-106380909D01*
X153467482Y-106380908D01*
X153407883Y-106374501D01*
X153407881Y-106374500D01*
X153407873Y-106374500D01*
X153407864Y-106374500D01*
X152412129Y-106374500D01*
X152412123Y-106374501D01*
X152352518Y-106380908D01*
X152318331Y-106393659D01*
X152248639Y-106398642D01*
X152231669Y-106393659D01*
X152214140Y-106387121D01*
X152197483Y-106380909D01*
X152197482Y-106380908D01*
X152137883Y-106374501D01*
X152137881Y-106374500D01*
X152137873Y-106374500D01*
X152137864Y-106374500D01*
X151142129Y-106374500D01*
X151142123Y-106374501D01*
X151082518Y-106380908D01*
X151048331Y-106393659D01*
X150978639Y-106398642D01*
X150961669Y-106393659D01*
X150944140Y-106387121D01*
X150927483Y-106380909D01*
X150927482Y-106380908D01*
X150867883Y-106374501D01*
X150867881Y-106374500D01*
X150867873Y-106374500D01*
X150867864Y-106374500D01*
X149872129Y-106374500D01*
X149872123Y-106374501D01*
X149812518Y-106380908D01*
X149778331Y-106393659D01*
X149708639Y-106398642D01*
X149691669Y-106393659D01*
X149674140Y-106387121D01*
X149657483Y-106380909D01*
X149657482Y-106380908D01*
X149597883Y-106374501D01*
X149597881Y-106374500D01*
X149597873Y-106374500D01*
X149597864Y-106374500D01*
X148602129Y-106374500D01*
X148602123Y-106374501D01*
X148542518Y-106380908D01*
X148508331Y-106393659D01*
X148438639Y-106398642D01*
X148421669Y-106393659D01*
X148404140Y-106387121D01*
X148387483Y-106380909D01*
X148387482Y-106380908D01*
X148327883Y-106374501D01*
X148327881Y-106374500D01*
X148327873Y-106374500D01*
X148327864Y-106374500D01*
X147332129Y-106374500D01*
X147332123Y-106374501D01*
X147272518Y-106380908D01*
X147238331Y-106393659D01*
X147168639Y-106398642D01*
X147151669Y-106393659D01*
X147134140Y-106387121D01*
X147117483Y-106380909D01*
X147117482Y-106380908D01*
X147057883Y-106374501D01*
X147057881Y-106374500D01*
X147057873Y-106374500D01*
X147057864Y-106374500D01*
X146062129Y-106374500D01*
X146062123Y-106374501D01*
X146002520Y-106380908D01*
X146002517Y-106380908D01*
X146002517Y-106380909D01*
X145967620Y-106393925D01*
X145967617Y-106393926D01*
X145897925Y-106398909D01*
X145880952Y-106393925D01*
X145847379Y-106381403D01*
X145847372Y-106381401D01*
X145787844Y-106375000D01*
X145540000Y-106375000D01*
X145540000Y-108875000D01*
X145787828Y-108875000D01*
X145787844Y-108874999D01*
X145847372Y-108868598D01*
X145847375Y-108868597D01*
X145880949Y-108856075D01*
X145950640Y-108851089D01*
X145967619Y-108856075D01*
X146002511Y-108869089D01*
X146002512Y-108869089D01*
X146002517Y-108869091D01*
X146062127Y-108875500D01*
X147057872Y-108875499D01*
X147117483Y-108869091D01*
X147151667Y-108856340D01*
X147221358Y-108851357D01*
X147238327Y-108856338D01*
X147272517Y-108869091D01*
X147332127Y-108875500D01*
X148327872Y-108875499D01*
X148387483Y-108869091D01*
X148421667Y-108856340D01*
X148491358Y-108851357D01*
X148508327Y-108856338D01*
X148542517Y-108869091D01*
X148602127Y-108875500D01*
X149597872Y-108875499D01*
X149657483Y-108869091D01*
X149691667Y-108856340D01*
X149761358Y-108851357D01*
X149778327Y-108856338D01*
X149812517Y-108869091D01*
X149872127Y-108875500D01*
X150867872Y-108875499D01*
X150927483Y-108869091D01*
X150961667Y-108856340D01*
X151031358Y-108851357D01*
X151048327Y-108856338D01*
X151082517Y-108869091D01*
X151142127Y-108875500D01*
X152137872Y-108875499D01*
X152197483Y-108869091D01*
X152231667Y-108856340D01*
X152301358Y-108851357D01*
X152318327Y-108856338D01*
X152352517Y-108869091D01*
X152412127Y-108875500D01*
X153407872Y-108875499D01*
X153467483Y-108869091D01*
X153501667Y-108856340D01*
X153571358Y-108851357D01*
X153588327Y-108856338D01*
X153622517Y-108869091D01*
X153682127Y-108875500D01*
X154677872Y-108875499D01*
X154737483Y-108869091D01*
X154771667Y-108856340D01*
X154841358Y-108851357D01*
X154858327Y-108856338D01*
X154892517Y-108869091D01*
X154952127Y-108875500D01*
X155947872Y-108875499D01*
X156007483Y-108869091D01*
X156041667Y-108856340D01*
X156111358Y-108851357D01*
X156128327Y-108856338D01*
X156162517Y-108869091D01*
X156222127Y-108875500D01*
X157217872Y-108875499D01*
X157277483Y-108869091D01*
X157412331Y-108818796D01*
X157527546Y-108732546D01*
X157613796Y-108617331D01*
X157613797Y-108617325D01*
X157616668Y-108612072D01*
X157666073Y-108562667D01*
X157734346Y-108547815D01*
X157799810Y-108572232D01*
X157841682Y-108628165D01*
X157849500Y-108671499D01*
X157849500Y-110049171D01*
X157829815Y-110116210D01*
X157777011Y-110161965D01*
X157707853Y-110171909D01*
X157706103Y-110171644D01*
X157566287Y-110149500D01*
X157353713Y-110149500D01*
X157311828Y-110156134D01*
X157143760Y-110182753D01*
X156941585Y-110248444D01*
X156752179Y-110344951D01*
X156580215Y-110469889D01*
X156429790Y-110620314D01*
X156368467Y-110653798D01*
X156298775Y-110648814D01*
X156242842Y-110606942D01*
X156223724Y-110569522D01*
X156215462Y-110543009D01*
X156215459Y-110543001D01*
X156131289Y-110403766D01*
X156131286Y-110403762D01*
X156016237Y-110288713D01*
X156016233Y-110288710D01*
X155876998Y-110204540D01*
X155876992Y-110204538D01*
X155721662Y-110156135D01*
X155721655Y-110156134D01*
X155654151Y-110150000D01*
X155170000Y-110150000D01*
X155170000Y-111066988D01*
X155112993Y-111034075D01*
X154985826Y-111000000D01*
X154854174Y-111000000D01*
X154727007Y-111034075D01*
X154670000Y-111066988D01*
X154670000Y-110150000D01*
X154185837Y-110150000D01*
X154118348Y-110156132D01*
X154118341Y-110156134D01*
X153963010Y-110204537D01*
X153963001Y-110204540D01*
X153823766Y-110288710D01*
X153823762Y-110288713D01*
X153708713Y-110403762D01*
X153708710Y-110403766D01*
X153624540Y-110543001D01*
X153624538Y-110543007D01*
X153576135Y-110698337D01*
X153576134Y-110698344D01*
X153570000Y-110765848D01*
X153570000Y-111250000D01*
X154486988Y-111250000D01*
X154454075Y-111307007D01*
X154420000Y-111434174D01*
X154420000Y-111565826D01*
X154454075Y-111692993D01*
X154486988Y-111750000D01*
X153570001Y-111750000D01*
X153570001Y-112234162D01*
X153576132Y-112301651D01*
X153576134Y-112301658D01*
X153624537Y-112456989D01*
X153624540Y-112456998D01*
X153708710Y-112596233D01*
X153708713Y-112596237D01*
X153823762Y-112711286D01*
X153823766Y-112711289D01*
X153963001Y-112795459D01*
X153963007Y-112795461D01*
X154118337Y-112843864D01*
X154118344Y-112843865D01*
X154185848Y-112849999D01*
X154669999Y-112849999D01*
X154670000Y-112849998D01*
X154670000Y-111933012D01*
X154727007Y-111965925D01*
X154854174Y-112000000D01*
X154985826Y-112000000D01*
X155112993Y-111965925D01*
X155170000Y-111933012D01*
X155170000Y-112849999D01*
X155654161Y-112849999D01*
X155721651Y-112843867D01*
X155721658Y-112843865D01*
X155876989Y-112795462D01*
X155876998Y-112795459D01*
X156016233Y-112711289D01*
X156016237Y-112711286D01*
X156131286Y-112596237D01*
X156131289Y-112596233D01*
X156215459Y-112456998D01*
X156215460Y-112456995D01*
X156223723Y-112430478D01*
X156262460Y-112372330D01*
X156326485Y-112344355D01*
X156395471Y-112355436D01*
X156429790Y-112379686D01*
X156429896Y-112379792D01*
X156580208Y-112530104D01*
X156752184Y-112655051D01*
X156752188Y-112655053D01*
X156756126Y-112657914D01*
X156755146Y-112659262D01*
X156797160Y-112705690D01*
X156809500Y-112759617D01*
X156809500Y-117219192D01*
X156789815Y-117286231D01*
X156773181Y-117306873D01*
X156266873Y-117813181D01*
X156205550Y-117846666D01*
X156179192Y-117849500D01*
X142661668Y-117849500D01*
X142594629Y-117829815D01*
X142556130Y-117790597D01*
X142542714Y-117768847D01*
X142542711Y-117768843D01*
X142418657Y-117644789D01*
X142418656Y-117644788D01*
X142281239Y-117560029D01*
X142269336Y-117552687D01*
X142269335Y-117552686D01*
X142269334Y-117552686D01*
X142269328Y-117552684D01*
X142235494Y-117541472D01*
X142178050Y-117501699D01*
X142151228Y-117437183D01*
X142150500Y-117423767D01*
X142150500Y-112935928D01*
X142125502Y-112810261D01*
X142125501Y-112810260D01*
X142125501Y-112810256D01*
X142101187Y-112751557D01*
X142101186Y-112751555D01*
X142076469Y-112691881D01*
X142076468Y-112691880D01*
X142076466Y-112691874D01*
X142073088Y-112686819D01*
X142005278Y-112585332D01*
X142005272Y-112585325D01*
X140914673Y-111494726D01*
X140914669Y-111494723D01*
X140808127Y-111423535D01*
X140689744Y-111374499D01*
X140689738Y-111374497D01*
X140564071Y-111349500D01*
X140564069Y-111349500D01*
X129874499Y-111349500D01*
X129807460Y-111329815D01*
X129761705Y-111277011D01*
X129750499Y-111225500D01*
X129750499Y-111202129D01*
X129750498Y-111202123D01*
X129750497Y-111202116D01*
X129744091Y-111142517D01*
X129728196Y-111099901D01*
X129693797Y-111007671D01*
X129693793Y-111007664D01*
X129607547Y-110892455D01*
X129567267Y-110862301D01*
X129492330Y-110806203D01*
X129492328Y-110806202D01*
X129357482Y-110755908D01*
X129357483Y-110755908D01*
X129297883Y-110749501D01*
X129297881Y-110749500D01*
X129297873Y-110749500D01*
X129297865Y-110749500D01*
X129274500Y-110749500D01*
X129207461Y-110729815D01*
X129161706Y-110677011D01*
X129150500Y-110625500D01*
X129150500Y-108422844D01*
X144340000Y-108422844D01*
X144346401Y-108482372D01*
X144346403Y-108482379D01*
X144396645Y-108617086D01*
X144396649Y-108617093D01*
X144482809Y-108732187D01*
X144482812Y-108732190D01*
X144597906Y-108818350D01*
X144597913Y-108818354D01*
X144732620Y-108868596D01*
X144732627Y-108868598D01*
X144792155Y-108874999D01*
X144792172Y-108875000D01*
X145040000Y-108875000D01*
X145040000Y-107875000D01*
X144340000Y-107875000D01*
X144340000Y-108422844D01*
X129150500Y-108422844D01*
X129150500Y-106435928D01*
X129125502Y-106310260D01*
X129125500Y-106310254D01*
X129105189Y-106261221D01*
X129105187Y-106261216D01*
X129076468Y-106191878D01*
X129076462Y-106191868D01*
X129005278Y-106085332D01*
X129005272Y-106085325D01*
X128507627Y-105587680D01*
X128474142Y-105526357D01*
X128479126Y-105456665D01*
X128507625Y-105412320D01*
X129505276Y-104414670D01*
X129559924Y-104332883D01*
X129576464Y-104308129D01*
X129576465Y-104308127D01*
X129625501Y-104189744D01*
X129632511Y-104154501D01*
X129650500Y-104064069D01*
X129650500Y-94472016D01*
X129670185Y-94404977D01*
X129722989Y-94359222D01*
X129735488Y-94354313D01*
X129794334Y-94334814D01*
X129943656Y-94242712D01*
X130067712Y-94118656D01*
X130073420Y-94109402D01*
X130125368Y-94062678D01*
X130178958Y-94050500D01*
X136164071Y-94050500D01*
X136248615Y-94033682D01*
X136289744Y-94025501D01*
X136408127Y-93976465D01*
X136418794Y-93969336D01*
X136418800Y-93969335D01*
X136418799Y-93969334D01*
X136418803Y-93969331D01*
X136514669Y-93905277D01*
X136719945Y-93700001D01*
X137242820Y-93177127D01*
X140999500Y-93177127D01*
X140999500Y-93186236D01*
X140999500Y-93186237D01*
X140999500Y-94172870D01*
X140999501Y-94172876D01*
X141005908Y-94232481D01*
X141018659Y-94266669D01*
X141023642Y-94336361D01*
X141018659Y-94353331D01*
X141005908Y-94387518D01*
X140999501Y-94447116D01*
X140999501Y-94447123D01*
X140999500Y-94447135D01*
X140999500Y-95442870D01*
X140999501Y-95442876D01*
X141005908Y-95502481D01*
X141018659Y-95536669D01*
X141023642Y-95606361D01*
X141018659Y-95623331D01*
X141005908Y-95657518D01*
X140999501Y-95717116D01*
X140999501Y-95717123D01*
X140999500Y-95717135D01*
X140999500Y-96712870D01*
X140999501Y-96712876D01*
X141005908Y-96772481D01*
X141018659Y-96806669D01*
X141023642Y-96876361D01*
X141018659Y-96893331D01*
X141005908Y-96927518D01*
X141002954Y-96955000D01*
X140999501Y-96987123D01*
X140999500Y-96987135D01*
X140999500Y-97982870D01*
X140999501Y-97982876D01*
X141005908Y-98042481D01*
X141018659Y-98076669D01*
X141023642Y-98146361D01*
X141018659Y-98163331D01*
X141005908Y-98197518D01*
X140999501Y-98257116D01*
X140999501Y-98257123D01*
X140999500Y-98257135D01*
X140999500Y-99252870D01*
X140999501Y-99252876D01*
X141005908Y-99312481D01*
X141018659Y-99346669D01*
X141023642Y-99416361D01*
X141018659Y-99433331D01*
X141005908Y-99467518D01*
X141002729Y-99497093D01*
X140999501Y-99527123D01*
X140999500Y-99527135D01*
X140999500Y-100522870D01*
X140999501Y-100522876D01*
X141005908Y-100582481D01*
X141018659Y-100616669D01*
X141023642Y-100686361D01*
X141018659Y-100703331D01*
X141005908Y-100737518D01*
X140999501Y-100797116D01*
X140999501Y-100797123D01*
X140999500Y-100797135D01*
X140999500Y-101792870D01*
X140999501Y-101792876D01*
X141005908Y-101852481D01*
X141018659Y-101886669D01*
X141023642Y-101956361D01*
X141018659Y-101973331D01*
X141005908Y-102007518D01*
X140999501Y-102067116D01*
X140999501Y-102067123D01*
X140999500Y-102067135D01*
X140999500Y-103062870D01*
X140999501Y-103062876D01*
X141005908Y-103122481D01*
X141018659Y-103156669D01*
X141023642Y-103226361D01*
X141018659Y-103243331D01*
X141005908Y-103277518D01*
X140999501Y-103337116D01*
X140999501Y-103337123D01*
X140999500Y-103337135D01*
X140999500Y-104332870D01*
X140999501Y-104332876D01*
X141005908Y-104392481D01*
X141018659Y-104426669D01*
X141023642Y-104496361D01*
X141018659Y-104513331D01*
X141005908Y-104547518D01*
X140999501Y-104607116D01*
X140999501Y-104607123D01*
X140999500Y-104607135D01*
X140999500Y-105602870D01*
X140999501Y-105602876D01*
X141005908Y-105662481D01*
X141018659Y-105696669D01*
X141023642Y-105766361D01*
X141018659Y-105783331D01*
X141005908Y-105817518D01*
X140999501Y-105877116D01*
X140999501Y-105877123D01*
X140999500Y-105877135D01*
X140999500Y-106872870D01*
X140999501Y-106872876D01*
X141005908Y-106932483D01*
X141056202Y-107067328D01*
X141056206Y-107067335D01*
X141142452Y-107182544D01*
X141142455Y-107182547D01*
X141257664Y-107268793D01*
X141257671Y-107268797D01*
X141392517Y-107319091D01*
X141392516Y-107319091D01*
X141399444Y-107319835D01*
X141452127Y-107325500D01*
X143047872Y-107325499D01*
X143107483Y-107319091D01*
X143242331Y-107268796D01*
X143357546Y-107182546D01*
X143443796Y-107067331D01*
X143494091Y-106932483D01*
X143500500Y-106872873D01*
X143500500Y-106827155D01*
X144340000Y-106827155D01*
X144340000Y-107375000D01*
X145040000Y-107375000D01*
X145040000Y-106375000D01*
X144792155Y-106375000D01*
X144732627Y-106381401D01*
X144732620Y-106381403D01*
X144597913Y-106431645D01*
X144597906Y-106431649D01*
X144482812Y-106517809D01*
X144482809Y-106517812D01*
X144396649Y-106632906D01*
X144396645Y-106632913D01*
X144346403Y-106767620D01*
X144346401Y-106767627D01*
X144340000Y-106827155D01*
X143500500Y-106827155D01*
X143500499Y-106375000D01*
X143500499Y-105877129D01*
X143500498Y-105877123D01*
X143500497Y-105877116D01*
X143494091Y-105817517D01*
X143481340Y-105783332D01*
X143476357Y-105713642D01*
X143481340Y-105696669D01*
X143494091Y-105662483D01*
X143500500Y-105602873D01*
X143500499Y-104607128D01*
X143494091Y-104547517D01*
X143481340Y-104513332D01*
X143476357Y-104443642D01*
X143481340Y-104426669D01*
X143494091Y-104392483D01*
X143500500Y-104332873D01*
X143500499Y-103337128D01*
X143494091Y-103277517D01*
X143481340Y-103243332D01*
X143476357Y-103173642D01*
X143481340Y-103156669D01*
X143494091Y-103122483D01*
X143500500Y-103062873D01*
X143500499Y-102067128D01*
X143494091Y-102007517D01*
X143481340Y-101973332D01*
X143476357Y-101903642D01*
X143481340Y-101886669D01*
X143494091Y-101852483D01*
X143500500Y-101792873D01*
X143500499Y-100797128D01*
X143494091Y-100737517D01*
X143481340Y-100703332D01*
X143476357Y-100633642D01*
X143481340Y-100616669D01*
X143494091Y-100582483D01*
X143500500Y-100522873D01*
X143500499Y-99527128D01*
X143494091Y-99467517D01*
X143481340Y-99433332D01*
X143476357Y-99363642D01*
X143481340Y-99346669D01*
X143494091Y-99312483D01*
X143495127Y-99302844D01*
X147770000Y-99302844D01*
X147776401Y-99362372D01*
X147776403Y-99362379D01*
X147826645Y-99497086D01*
X147826649Y-99497093D01*
X147912809Y-99612187D01*
X147912812Y-99612190D01*
X148027906Y-99698350D01*
X148027913Y-99698354D01*
X148162620Y-99748596D01*
X148162627Y-99748598D01*
X148222155Y-99754999D01*
X148222172Y-99755000D01*
X148545000Y-99755000D01*
X149045000Y-99755000D01*
X149367828Y-99755000D01*
X149367844Y-99754999D01*
X149427377Y-99748597D01*
X149427379Y-99748597D01*
X149514165Y-99716227D01*
X149583857Y-99711241D01*
X149600835Y-99716227D01*
X149687621Y-99748597D01*
X149747155Y-99754999D01*
X149747172Y-99755000D01*
X150070000Y-99755000D01*
X150570000Y-99755000D01*
X150892828Y-99755000D01*
X150892844Y-99754999D01*
X150952377Y-99748597D01*
X150952379Y-99748597D01*
X151039165Y-99716227D01*
X151108857Y-99711241D01*
X151125835Y-99716227D01*
X151212621Y-99748597D01*
X151272155Y-99754999D01*
X151272172Y-99755000D01*
X151595000Y-99755000D01*
X152095000Y-99755000D01*
X152417828Y-99755000D01*
X152417844Y-99754999D01*
X152477372Y-99748598D01*
X152477379Y-99748596D01*
X152612086Y-99698354D01*
X152612093Y-99698350D01*
X152727187Y-99612190D01*
X152727190Y-99612187D01*
X152813350Y-99497093D01*
X152813354Y-99497086D01*
X152863596Y-99362379D01*
X152863598Y-99362372D01*
X152869999Y-99302844D01*
X152870000Y-99302827D01*
X152870000Y-98980000D01*
X152095000Y-98980000D01*
X152095000Y-99755000D01*
X151595000Y-99755000D01*
X151595000Y-98980000D01*
X150570000Y-98980000D01*
X150570000Y-99755000D01*
X150070000Y-99755000D01*
X150070000Y-98980000D01*
X149045000Y-98980000D01*
X149045000Y-99755000D01*
X148545000Y-99755000D01*
X148545000Y-98980000D01*
X147770000Y-98980000D01*
X147770000Y-99302844D01*
X143495127Y-99302844D01*
X143500500Y-99252873D01*
X143500499Y-98257128D01*
X143494091Y-98197517D01*
X143481340Y-98163332D01*
X143476357Y-98093642D01*
X143481340Y-98076669D01*
X143494091Y-98042483D01*
X143500500Y-97982873D01*
X143500500Y-97777844D01*
X147770000Y-97777844D01*
X147776401Y-97837372D01*
X147776403Y-97837383D01*
X147808772Y-97924168D01*
X147813756Y-97993859D01*
X147808772Y-98010832D01*
X147776403Y-98097616D01*
X147776401Y-98097627D01*
X147770000Y-98157155D01*
X147770000Y-98480000D01*
X148545000Y-98480000D01*
X149045000Y-98480000D01*
X150070000Y-98480000D01*
X150570000Y-98480000D01*
X151595000Y-98480000D01*
X152095000Y-98480000D01*
X152870000Y-98480000D01*
X152870000Y-98157172D01*
X152869999Y-98157155D01*
X152863597Y-98097622D01*
X152863597Y-98097620D01*
X152831227Y-98010835D01*
X152826241Y-97941143D01*
X152831227Y-97924165D01*
X152863597Y-97837379D01*
X152863597Y-97837377D01*
X152869999Y-97777844D01*
X152870000Y-97777827D01*
X152870000Y-97455000D01*
X152095000Y-97455000D01*
X152095000Y-98480000D01*
X151595000Y-98480000D01*
X151595000Y-97455000D01*
X150570000Y-97455000D01*
X150570000Y-98480000D01*
X150070000Y-98480000D01*
X150070000Y-97455000D01*
X149045000Y-97455000D01*
X149045000Y-98480000D01*
X148545000Y-98480000D01*
X148545000Y-97455000D01*
X147770000Y-97455000D01*
X147770000Y-97777844D01*
X143500500Y-97777844D01*
X143500499Y-96987128D01*
X143494091Y-96927517D01*
X143481340Y-96893332D01*
X143476357Y-96823642D01*
X143481340Y-96806669D01*
X143494091Y-96772483D01*
X143500500Y-96712873D01*
X143500500Y-96252844D01*
X147770000Y-96252844D01*
X147776401Y-96312372D01*
X147776403Y-96312383D01*
X147808772Y-96399168D01*
X147813756Y-96468859D01*
X147808772Y-96485832D01*
X147776403Y-96572616D01*
X147776401Y-96572627D01*
X147770000Y-96632155D01*
X147770000Y-96955000D01*
X148545000Y-96955000D01*
X149045000Y-96955000D01*
X150070000Y-96955000D01*
X150570000Y-96955000D01*
X151595000Y-96955000D01*
X152095000Y-96955000D01*
X152870000Y-96955000D01*
X152870000Y-96632172D01*
X152869999Y-96632155D01*
X152863597Y-96572622D01*
X152863597Y-96572620D01*
X152831227Y-96485835D01*
X152826241Y-96416143D01*
X152831227Y-96399165D01*
X152863597Y-96312379D01*
X152863597Y-96312377D01*
X152869999Y-96252844D01*
X152870000Y-96252827D01*
X152870000Y-95930000D01*
X152095000Y-95930000D01*
X152095000Y-96955000D01*
X151595000Y-96955000D01*
X151595000Y-95930000D01*
X150570000Y-95930000D01*
X150570000Y-96955000D01*
X150070000Y-96955000D01*
X150070000Y-95930000D01*
X149045000Y-95930000D01*
X149045000Y-96955000D01*
X148545000Y-96955000D01*
X148545000Y-95930000D01*
X147770000Y-95930000D01*
X147770000Y-96252844D01*
X143500500Y-96252844D01*
X143500499Y-95717128D01*
X143494091Y-95657517D01*
X143481340Y-95623332D01*
X143476357Y-95553642D01*
X143481340Y-95536669D01*
X143494091Y-95502483D01*
X143500500Y-95442873D01*
X143500499Y-95107155D01*
X147770000Y-95107155D01*
X147770000Y-95430000D01*
X148545000Y-95430000D01*
X149045000Y-95430000D01*
X150070000Y-95430000D01*
X150570000Y-95430000D01*
X151595000Y-95430000D01*
X152095000Y-95430000D01*
X152870000Y-95430000D01*
X152870000Y-95107172D01*
X152869999Y-95107155D01*
X152863598Y-95047627D01*
X152863596Y-95047620D01*
X152813354Y-94912913D01*
X152813350Y-94912906D01*
X152727190Y-94797812D01*
X152727187Y-94797809D01*
X152612093Y-94711649D01*
X152612086Y-94711645D01*
X152477379Y-94661403D01*
X152477372Y-94661401D01*
X152417844Y-94655000D01*
X152095000Y-94655000D01*
X152095000Y-95430000D01*
X151595000Y-95430000D01*
X151595000Y-94655000D01*
X151272155Y-94655000D01*
X151212627Y-94661401D01*
X151212616Y-94661403D01*
X151125832Y-94693772D01*
X151056141Y-94698756D01*
X151039168Y-94693772D01*
X150952383Y-94661403D01*
X150952372Y-94661401D01*
X150892844Y-94655000D01*
X150570000Y-94655000D01*
X150570000Y-95430000D01*
X150070000Y-95430000D01*
X150070000Y-94655000D01*
X149747155Y-94655000D01*
X149687627Y-94661401D01*
X149687616Y-94661403D01*
X149600832Y-94693772D01*
X149531141Y-94698756D01*
X149514168Y-94693772D01*
X149427383Y-94661403D01*
X149427372Y-94661401D01*
X149367844Y-94655000D01*
X149045000Y-94655000D01*
X149045000Y-95430000D01*
X148545000Y-95430000D01*
X148545000Y-94655000D01*
X148222155Y-94655000D01*
X148162627Y-94661401D01*
X148162620Y-94661403D01*
X148027913Y-94711645D01*
X148027906Y-94711649D01*
X147912812Y-94797809D01*
X147912809Y-94797812D01*
X147826649Y-94912906D01*
X147826645Y-94912913D01*
X147776403Y-95047620D01*
X147776401Y-95047627D01*
X147770000Y-95107155D01*
X143500499Y-95107155D01*
X143500499Y-94912913D01*
X143500499Y-94447129D01*
X143500498Y-94447123D01*
X143500497Y-94447116D01*
X143494091Y-94387517D01*
X143481340Y-94353332D01*
X143476357Y-94283642D01*
X143481340Y-94266669D01*
X143494091Y-94232483D01*
X143500500Y-94172873D01*
X143500499Y-93177128D01*
X143494091Y-93117517D01*
X143481073Y-93082616D01*
X143476090Y-93012926D01*
X143481075Y-92995949D01*
X143493597Y-92962375D01*
X143493598Y-92962372D01*
X143499999Y-92902844D01*
X143500000Y-92902827D01*
X143500000Y-92655000D01*
X141000000Y-92655000D01*
X141000000Y-92902844D01*
X141006401Y-92962372D01*
X141006403Y-92962379D01*
X141018925Y-92995952D01*
X141020134Y-93012863D01*
X141026287Y-93028661D01*
X141024276Y-93063898D01*
X141022337Y-93073469D01*
X141005909Y-93117517D01*
X140999500Y-93177127D01*
X137242820Y-93177127D01*
X137333822Y-93086125D01*
X138598127Y-91821819D01*
X138659450Y-91788334D01*
X138685808Y-91785500D01*
X140876000Y-91785500D01*
X140943039Y-91805185D01*
X140988794Y-91857989D01*
X141000000Y-91909500D01*
X141000000Y-92155000D01*
X143500000Y-92155000D01*
X143500000Y-91907172D01*
X143499999Y-91907155D01*
X143493597Y-91847622D01*
X143493597Y-91847620D01*
X143481075Y-91814048D01*
X143476089Y-91744356D01*
X143481071Y-91727390D01*
X143494091Y-91692483D01*
X143500500Y-91632873D01*
X143500499Y-90637128D01*
X143494091Y-90577517D01*
X143481073Y-90542616D01*
X143476090Y-90472926D01*
X143481075Y-90455949D01*
X143493597Y-90422375D01*
X143493598Y-90422372D01*
X143499999Y-90362844D01*
X143500000Y-90362827D01*
X143500000Y-90115000D01*
X141000000Y-90115000D01*
X141000000Y-90360500D01*
X140980315Y-90427539D01*
X140927511Y-90473294D01*
X140876000Y-90484500D01*
X138300929Y-90484500D01*
X138175261Y-90509497D01*
X138175255Y-90509499D01*
X138056874Y-90558534D01*
X137950326Y-90629726D01*
X137950325Y-90629727D01*
X135866873Y-92713181D01*
X135805550Y-92746666D01*
X135779192Y-92749500D01*
X130178958Y-92749500D01*
X130111919Y-92729815D01*
X130073420Y-92690598D01*
X130067712Y-92681344D01*
X129943657Y-92557289D01*
X129943656Y-92557288D01*
X129940342Y-92555243D01*
X129938546Y-92553248D01*
X129937989Y-92552807D01*
X129938064Y-92552711D01*
X129893618Y-92503297D01*
X129882397Y-92434334D01*
X129910240Y-92370252D01*
X129940348Y-92344165D01*
X129943342Y-92342318D01*
X130067315Y-92218345D01*
X130159356Y-92069124D01*
X130159358Y-92069119D01*
X130214505Y-91902697D01*
X130214506Y-91902690D01*
X130224999Y-91799986D01*
X130225000Y-91799973D01*
X130225000Y-91750000D01*
X127775001Y-91750000D01*
X127775001Y-91799986D01*
X127785494Y-91902697D01*
X127840641Y-92069119D01*
X127840643Y-92069124D01*
X127932684Y-92218345D01*
X128056655Y-92342316D01*
X128056659Y-92342319D01*
X128059656Y-92344168D01*
X128061279Y-92345972D01*
X128062323Y-92346798D01*
X128062181Y-92346976D01*
X128106381Y-92396116D01*
X128117602Y-92465079D01*
X128089759Y-92529161D01*
X128059661Y-92555241D01*
X128056349Y-92557283D01*
X128056343Y-92557288D01*
X127932289Y-92681342D01*
X127840187Y-92830663D01*
X127840185Y-92830668D01*
X127816262Y-92902864D01*
X127785001Y-92997203D01*
X127785001Y-92997204D01*
X127785000Y-92997204D01*
X127774500Y-93099983D01*
X127774500Y-93700001D01*
X127774501Y-93700019D01*
X127785000Y-93802796D01*
X127785001Y-93802799D01*
X127837202Y-93960328D01*
X127840186Y-93969334D01*
X127932288Y-94118656D01*
X128056344Y-94242712D01*
X128205666Y-94334814D01*
X128205668Y-94334815D01*
X128226110Y-94341588D01*
X128264502Y-94354310D01*
X128321947Y-94394081D01*
X128348772Y-94458596D01*
X128349500Y-94472016D01*
X128349500Y-103679192D01*
X128329815Y-103746231D01*
X128313181Y-103766873D01*
X127266873Y-104813181D01*
X127205550Y-104846666D01*
X127179192Y-104849500D01*
X117274500Y-104849500D01*
X117207461Y-104829815D01*
X117161706Y-104777011D01*
X117150500Y-104725500D01*
X117150500Y-94472016D01*
X117170185Y-94404977D01*
X117222989Y-94359222D01*
X117235488Y-94354313D01*
X117294334Y-94334814D01*
X117443656Y-94242712D01*
X117567712Y-94118656D01*
X117659814Y-93969334D01*
X117714999Y-93802797D01*
X117725500Y-93700009D01*
X117725499Y-93099992D01*
X117724082Y-93086125D01*
X117714999Y-92997203D01*
X117714998Y-92997200D01*
X117683741Y-92902873D01*
X117659814Y-92830666D01*
X117567712Y-92681344D01*
X117443656Y-92557288D01*
X117440342Y-92555243D01*
X117438546Y-92553248D01*
X117437989Y-92552807D01*
X117438064Y-92552711D01*
X117393618Y-92503297D01*
X117382397Y-92434334D01*
X117410240Y-92370252D01*
X117440348Y-92344165D01*
X117443342Y-92342318D01*
X117567315Y-92218345D01*
X117659356Y-92069124D01*
X117659358Y-92069119D01*
X117714505Y-91902697D01*
X117714506Y-91902690D01*
X117724999Y-91799986D01*
X117725000Y-91799973D01*
X117725000Y-91750000D01*
X115275001Y-91750000D01*
X115275001Y-91799986D01*
X115285494Y-91902697D01*
X115340641Y-92069119D01*
X115340643Y-92069124D01*
X115432684Y-92218345D01*
X115556655Y-92342316D01*
X115556659Y-92342319D01*
X115559656Y-92344168D01*
X115561279Y-92345972D01*
X115562323Y-92346798D01*
X115562181Y-92346976D01*
X115606381Y-92396116D01*
X115617602Y-92465079D01*
X115589759Y-92529161D01*
X115559661Y-92555241D01*
X115556349Y-92557283D01*
X115556343Y-92557288D01*
X115432287Y-92681344D01*
X115426580Y-92690598D01*
X115374632Y-92737322D01*
X115321042Y-92749500D01*
X114274500Y-92749500D01*
X114207461Y-92729815D01*
X114161706Y-92677011D01*
X114150500Y-92625500D01*
X114150500Y-91200013D01*
X115275000Y-91200013D01*
X115275000Y-91250000D01*
X116250000Y-91250000D01*
X116750000Y-91250000D01*
X117724999Y-91250000D01*
X117724999Y-91200029D01*
X117724998Y-91200013D01*
X127775000Y-91200013D01*
X127775000Y-91250000D01*
X128750000Y-91250000D01*
X129250000Y-91250000D01*
X130224999Y-91250000D01*
X130224999Y-91200028D01*
X130224998Y-91200013D01*
X130214505Y-91097302D01*
X130159358Y-90930880D01*
X130159356Y-90930875D01*
X130067315Y-90781654D01*
X129943345Y-90657684D01*
X129794124Y-90565643D01*
X129794119Y-90565641D01*
X129627697Y-90510494D01*
X129627690Y-90510493D01*
X129524986Y-90500000D01*
X129250000Y-90500000D01*
X129250000Y-91250000D01*
X128750000Y-91250000D01*
X128750000Y-90500000D01*
X128475029Y-90500000D01*
X128475012Y-90500001D01*
X128372302Y-90510494D01*
X128205880Y-90565641D01*
X128205875Y-90565643D01*
X128056654Y-90657684D01*
X127932684Y-90781654D01*
X127840643Y-90930875D01*
X127840641Y-90930880D01*
X127785494Y-91097302D01*
X127785493Y-91097309D01*
X127775000Y-91200013D01*
X117724998Y-91200013D01*
X117724998Y-91200012D01*
X117714505Y-91097302D01*
X117659358Y-90930880D01*
X117659356Y-90930875D01*
X117567315Y-90781654D01*
X117443345Y-90657684D01*
X117294124Y-90565643D01*
X117294119Y-90565641D01*
X117127697Y-90510494D01*
X117127690Y-90510493D01*
X117024986Y-90500000D01*
X116750000Y-90500000D01*
X116750000Y-91250000D01*
X116250000Y-91250000D01*
X116250000Y-90500000D01*
X115975029Y-90500000D01*
X115975012Y-90500001D01*
X115872302Y-90510494D01*
X115705880Y-90565641D01*
X115705875Y-90565643D01*
X115556654Y-90657684D01*
X115432684Y-90781654D01*
X115340643Y-90930875D01*
X115340641Y-90930880D01*
X115285494Y-91097302D01*
X115285493Y-91097309D01*
X115275000Y-91200013D01*
X114150500Y-91200013D01*
X114150500Y-89367155D01*
X141000000Y-89367155D01*
X141000000Y-89615000D01*
X142000000Y-89615000D01*
X142500000Y-89615000D01*
X143500000Y-89615000D01*
X143500000Y-89367172D01*
X143499999Y-89367155D01*
X143493598Y-89307627D01*
X143493596Y-89307620D01*
X143443354Y-89172913D01*
X143443350Y-89172906D01*
X143357190Y-89057812D01*
X143357187Y-89057809D01*
X143242093Y-88971649D01*
X143242086Y-88971645D01*
X143107379Y-88921403D01*
X143107372Y-88921401D01*
X143047844Y-88915000D01*
X142500000Y-88915000D01*
X142500000Y-89615000D01*
X142000000Y-89615000D01*
X142000000Y-88915000D01*
X141452155Y-88915000D01*
X141392627Y-88921401D01*
X141392620Y-88921403D01*
X141257913Y-88971645D01*
X141257906Y-88971649D01*
X141142812Y-89057809D01*
X141142809Y-89057812D01*
X141056649Y-89172906D01*
X141056645Y-89172913D01*
X141006403Y-89307620D01*
X141006401Y-89307627D01*
X141000000Y-89367155D01*
X114150500Y-89367155D01*
X114150500Y-77491083D01*
X114170185Y-77424044D01*
X114222989Y-77378289D01*
X114240379Y-77371870D01*
X114373049Y-77333909D01*
X114553407Y-77239698D01*
X114711109Y-77111109D01*
X114839698Y-76953407D01*
X114933909Y-76773049D01*
X114989886Y-76577418D01*
X115000500Y-76458037D01*
X115000499Y-73541964D01*
X114989886Y-73422582D01*
X114938569Y-73243238D01*
X114933910Y-73226954D01*
X114933909Y-73226953D01*
X114933909Y-73226951D01*
X114839698Y-73046593D01*
X114760937Y-72950000D01*
X114711109Y-72888890D01*
X114553409Y-72760304D01*
X114553410Y-72760304D01*
X114553407Y-72760302D01*
X114373049Y-72666091D01*
X114373048Y-72666090D01*
X114373045Y-72666089D01*
X114255829Y-72632550D01*
X114177418Y-72610114D01*
X114177415Y-72610113D01*
X114177413Y-72610113D01*
X114111102Y-72604217D01*
X114058037Y-72599500D01*
X114058032Y-72599500D01*
X112941971Y-72599500D01*
X112941965Y-72599500D01*
X112941964Y-72599501D01*
X112930316Y-72600536D01*
X112822584Y-72610113D01*
X112626954Y-72666089D01*
X112541668Y-72710639D01*
X112446593Y-72760302D01*
X112446591Y-72760303D01*
X112446590Y-72760304D01*
X112288890Y-72888890D01*
X112160304Y-73046590D01*
X112160302Y-73046593D01*
X112118016Y-73127545D01*
X112066089Y-73226954D01*
X112010114Y-73422583D01*
X112010113Y-73422586D01*
X111999500Y-73541966D01*
X111999500Y-74225500D01*
X111979815Y-74292539D01*
X111927011Y-74338294D01*
X111875500Y-74349500D01*
X108742537Y-74349500D01*
X108675498Y-74329815D01*
X108631450Y-74280597D01*
X108567030Y-74150704D01*
X108447722Y-74002278D01*
X108378112Y-73946324D01*
X108338196Y-73888985D01*
X108335616Y-73819163D01*
X108371194Y-73759030D01*
X108378115Y-73753033D01*
X108447366Y-73697367D01*
X108447367Y-73697366D01*
X108566607Y-73549025D01*
X108566609Y-73549022D01*
X108651168Y-73378523D01*
X108697102Y-73193824D01*
X108700000Y-73151096D01*
X108700000Y-72950000D01*
X105700000Y-72950000D01*
X105700000Y-73151096D01*
X105702897Y-73193824D01*
X105748831Y-73378523D01*
X105833390Y-73549022D01*
X105833392Y-73549025D01*
X105952630Y-73697364D01*
X106021884Y-73753031D01*
X106061803Y-73810375D01*
X106064383Y-73880197D01*
X106028805Y-73940329D01*
X106021885Y-73946326D01*
X105952276Y-74002280D01*
X105832969Y-74150704D01*
X105832967Y-74150707D01*
X105748360Y-74321302D01*
X105702400Y-74506107D01*
X105700466Y-74534621D01*
X105699874Y-74543370D01*
X105699500Y-74548879D01*
X105699500Y-75451122D01*
X105699501Y-75451125D01*
X105702399Y-75493886D01*
X105702399Y-75493887D01*
X105729774Y-75603963D01*
X105743689Y-75659916D01*
X105748360Y-75678696D01*
X105832967Y-75849292D01*
X105832969Y-75849295D01*
X105952277Y-75997721D01*
X105952278Y-75997722D01*
X106021486Y-76053353D01*
X106061405Y-76110696D01*
X106063985Y-76180518D01*
X106028406Y-76240651D01*
X106021486Y-76246647D01*
X105952278Y-76302277D01*
X105952277Y-76302278D01*
X105911356Y-76353187D01*
X105854013Y-76393106D01*
X105814709Y-76399500D01*
X99678958Y-76399500D01*
X99611919Y-76379815D01*
X99573420Y-76340598D01*
X99567712Y-76331344D01*
X99443657Y-76207289D01*
X99443656Y-76207288D01*
X99294334Y-76115186D01*
X99235493Y-76095688D01*
X99178051Y-76055916D01*
X99151228Y-75991400D01*
X99150500Y-75977983D01*
X99150500Y-72435928D01*
X99125502Y-72310261D01*
X99125500Y-72310254D01*
X99120451Y-72298065D01*
X99100088Y-72248903D01*
X105700000Y-72248903D01*
X105700000Y-72450000D01*
X106950000Y-72450000D01*
X107450000Y-72450000D01*
X108700000Y-72450000D01*
X108700000Y-72248903D01*
X108697102Y-72206175D01*
X108651168Y-72021476D01*
X108566609Y-71850977D01*
X108566607Y-71850974D01*
X108447367Y-71702633D01*
X108447366Y-71702632D01*
X108299025Y-71583392D01*
X108299022Y-71583390D01*
X108128523Y-71498831D01*
X107943824Y-71452897D01*
X107901097Y-71450000D01*
X107450000Y-71450000D01*
X107450000Y-72450000D01*
X106950000Y-72450000D01*
X106950000Y-71450000D01*
X106498903Y-71450000D01*
X106456175Y-71452897D01*
X106271476Y-71498831D01*
X106100977Y-71583390D01*
X106100974Y-71583392D01*
X105952633Y-71702632D01*
X105952632Y-71702633D01*
X105833392Y-71850974D01*
X105833390Y-71850977D01*
X105748831Y-72021476D01*
X105702897Y-72206175D01*
X105700000Y-72248903D01*
X99100088Y-72248903D01*
X99076465Y-72191873D01*
X99048153Y-72149501D01*
X99005277Y-72085331D01*
X98863184Y-71943238D01*
X98614674Y-71694727D01*
X98614673Y-71694726D01*
X98593951Y-71680880D01*
X98508127Y-71623535D01*
X98389744Y-71574499D01*
X98389738Y-71574497D01*
X98264071Y-71549500D01*
X98264069Y-71549500D01*
X91280170Y-71549500D01*
X91213131Y-71529815D01*
X91167376Y-71477011D01*
X91157432Y-71407853D01*
X91162239Y-71387183D01*
X91194835Y-71286858D01*
X91225000Y-71096409D01*
X91225000Y-70903590D01*
X91194835Y-70713143D01*
X91135253Y-70529765D01*
X91135252Y-70529762D01*
X91047712Y-70357957D01*
X91025780Y-70327771D01*
X90421725Y-70931826D01*
X90396037Y-70835956D01*
X90340084Y-70739044D01*
X90260956Y-70659916D01*
X90164044Y-70603963D01*
X90068172Y-70578274D01*
X90672227Y-69974218D01*
X90672227Y-69974217D01*
X90642043Y-69952288D01*
X90470237Y-69864747D01*
X90470234Y-69864746D01*
X90286856Y-69805164D01*
X90096409Y-69775000D01*
X89903591Y-69775000D01*
X89713143Y-69805164D01*
X89529765Y-69864746D01*
X89529762Y-69864747D01*
X89357955Y-69952288D01*
X89357950Y-69952292D01*
X89327771Y-69974216D01*
X89327771Y-69974219D01*
X89931828Y-70578274D01*
X89835956Y-70603963D01*
X89739044Y-70659916D01*
X89659916Y-70739044D01*
X89603963Y-70835956D01*
X89578274Y-70931827D01*
X88974219Y-70327771D01*
X88974127Y-70327778D01*
X88918991Y-70370297D01*
X88849378Y-70376278D01*
X88787582Y-70343673D01*
X88753223Y-70282836D01*
X88750000Y-70254747D01*
X88750000Y-70250000D01*
X87816988Y-70250000D01*
X87834205Y-70240060D01*
X87890060Y-70184205D01*
X87929556Y-70115796D01*
X87950000Y-70039496D01*
X87950000Y-69960504D01*
X87929556Y-69884204D01*
X87890060Y-69815795D01*
X87834205Y-69759940D01*
X87816988Y-69750000D01*
X88724115Y-69750000D01*
X88724115Y-69749999D01*
X88722914Y-69742415D01*
X88669408Y-69577744D01*
X88590804Y-69423475D01*
X88489032Y-69283397D01*
X88366602Y-69160967D01*
X88226524Y-69059195D01*
X88072257Y-68980591D01*
X87907584Y-68927085D01*
X87736571Y-68900000D01*
X87550000Y-68900000D01*
X87550000Y-69700000D01*
X87050000Y-69700000D01*
X87050000Y-68900000D01*
X86863429Y-68900000D01*
X86692415Y-68927085D01*
X86527742Y-68980591D01*
X86373475Y-69059195D01*
X86233397Y-69160967D01*
X86110967Y-69283397D01*
X86009195Y-69423475D01*
X85930591Y-69577744D01*
X85877085Y-69742415D01*
X85875884Y-69749999D01*
X85875885Y-69750000D01*
X86783012Y-69750000D01*
X86765795Y-69759940D01*
X86709940Y-69815795D01*
X86670444Y-69884204D01*
X86650000Y-69960504D01*
X86650000Y-70039496D01*
X86670444Y-70115796D01*
X86709940Y-70184205D01*
X86765795Y-70240060D01*
X86783012Y-70250000D01*
X85850000Y-70250000D01*
X85850000Y-70350000D01*
X87050000Y-70350000D01*
X87050000Y-70300000D01*
X87550000Y-70300000D01*
X87550000Y-76700000D01*
X87050000Y-76700000D01*
X87050000Y-76650000D01*
X85850000Y-76650000D01*
X85850000Y-76750000D01*
X86783012Y-76750000D01*
X86765795Y-76759940D01*
X86709940Y-76815795D01*
X86670444Y-76884204D01*
X86650000Y-76960504D01*
X86650000Y-77039496D01*
X86670444Y-77115796D01*
X86709940Y-77184205D01*
X86765795Y-77240060D01*
X86783012Y-77250000D01*
X85875885Y-77250000D01*
X85877085Y-77257584D01*
X85930591Y-77422255D01*
X86009195Y-77576524D01*
X86110967Y-77716602D01*
X86233397Y-77839032D01*
X86373475Y-77940804D01*
X86527742Y-78019408D01*
X86692415Y-78072914D01*
X86863429Y-78100000D01*
X87050000Y-78100000D01*
X87050000Y-77300000D01*
X87550000Y-77300000D01*
X87550000Y-78100000D01*
X87736571Y-78100000D01*
X87907584Y-78072914D01*
X88072257Y-78019408D01*
X88226524Y-77940804D01*
X88366602Y-77839032D01*
X88489032Y-77716602D01*
X88590804Y-77576524D01*
X88669408Y-77422255D01*
X88722914Y-77257584D01*
X88724115Y-77250000D01*
X87816988Y-77250000D01*
X87834205Y-77240060D01*
X87890060Y-77184205D01*
X87929556Y-77115796D01*
X87950000Y-77039496D01*
X87950000Y-76960504D01*
X87929556Y-76884204D01*
X87890060Y-76815795D01*
X87834205Y-76759940D01*
X87816988Y-76750000D01*
X88750000Y-76750000D01*
X88750000Y-76745250D01*
X88769685Y-76678211D01*
X88822489Y-76632456D01*
X88891647Y-76622512D01*
X88955203Y-76651537D01*
X88974189Y-76672225D01*
X88974218Y-76672227D01*
X89578274Y-76068171D01*
X89603963Y-76164044D01*
X89659916Y-76260956D01*
X89739044Y-76340084D01*
X89835956Y-76396037D01*
X89931827Y-76421725D01*
X89327771Y-77025780D01*
X89327771Y-77025781D01*
X89357957Y-77047712D01*
X89529762Y-77135252D01*
X89529765Y-77135253D01*
X89713143Y-77194835D01*
X89903591Y-77225000D01*
X90096409Y-77225000D01*
X90286856Y-77194835D01*
X90470234Y-77135253D01*
X90470237Y-77135252D01*
X90642040Y-77047713D01*
X90672227Y-77025780D01*
X90672228Y-77025780D01*
X90068173Y-76421725D01*
X90164044Y-76396037D01*
X90260956Y-76340084D01*
X90340084Y-76260956D01*
X90396037Y-76164044D01*
X90421725Y-76068172D01*
X91025780Y-76672228D01*
X91025780Y-76672227D01*
X91047713Y-76642040D01*
X91135252Y-76470237D01*
X91135253Y-76470234D01*
X91194835Y-76286856D01*
X91225000Y-76096409D01*
X91225000Y-75903590D01*
X91194835Y-75713143D01*
X91135253Y-75529765D01*
X91135252Y-75529762D01*
X91056163Y-75374543D01*
X91043267Y-75305874D01*
X91068273Y-75242760D01*
X91099100Y-75202586D01*
X91159554Y-75056634D01*
X91159555Y-75056630D01*
X91174999Y-74939330D01*
X91174999Y-74660677D01*
X91159555Y-74543370D01*
X91159554Y-74543365D01*
X91151163Y-74523106D01*
X91143694Y-74453637D01*
X91151164Y-74428199D01*
X91160044Y-74406762D01*
X91175500Y-74289361D01*
X91175499Y-74010640D01*
X91174398Y-74002280D01*
X91167518Y-73950013D01*
X91160044Y-73893238D01*
X91151434Y-73872454D01*
X91143965Y-73802986D01*
X91151435Y-73777545D01*
X91160044Y-73756762D01*
X91175500Y-73639361D01*
X91175499Y-73360640D01*
X91160044Y-73243238D01*
X91151434Y-73222454D01*
X91143965Y-73152986D01*
X91151435Y-73127545D01*
X91160044Y-73106762D01*
X91175500Y-72989361D01*
X91175500Y-72974500D01*
X91195185Y-72907461D01*
X91247989Y-72861706D01*
X91299500Y-72850500D01*
X97725500Y-72850500D01*
X97792539Y-72870185D01*
X97838294Y-72922989D01*
X97849500Y-72974500D01*
X97849500Y-75977983D01*
X97829815Y-76045022D01*
X97777011Y-76090777D01*
X97764510Y-76095686D01*
X97719216Y-76110696D01*
X97705666Y-76115186D01*
X97705663Y-76115187D01*
X97556342Y-76207289D01*
X97432289Y-76331342D01*
X97340187Y-76480663D01*
X97340186Y-76480666D01*
X97285001Y-76647203D01*
X97285001Y-76647204D01*
X97285000Y-76647204D01*
X97274500Y-76749983D01*
X97274500Y-77350001D01*
X97274501Y-77350019D01*
X97285000Y-77452796D01*
X97285001Y-77452799D01*
X97326000Y-77576524D01*
X97340186Y-77619334D01*
X97432288Y-77768656D01*
X97556344Y-77892712D01*
X97559628Y-77894737D01*
X97559653Y-77894753D01*
X97561445Y-77896746D01*
X97562011Y-77897193D01*
X97561934Y-77897289D01*
X97606379Y-77946699D01*
X97617603Y-78015661D01*
X97589761Y-78079744D01*
X97559665Y-78105826D01*
X97556660Y-78107679D01*
X97556655Y-78107683D01*
X97432684Y-78231654D01*
X97340643Y-78380875D01*
X97340641Y-78380880D01*
X97285494Y-78547302D01*
X97285493Y-78547309D01*
X97275000Y-78650013D01*
X97275000Y-78700000D01*
X99724999Y-78700000D01*
X99724999Y-78650028D01*
X99724998Y-78650013D01*
X99714505Y-78547302D01*
X99659358Y-78380880D01*
X99659356Y-78380875D01*
X99567315Y-78231654D01*
X99443344Y-78107683D01*
X99443341Y-78107681D01*
X99440339Y-78105829D01*
X99438713Y-78104021D01*
X99437677Y-78103202D01*
X99437817Y-78103024D01*
X99393617Y-78053880D01*
X99382397Y-77984917D01*
X99410243Y-77920836D01*
X99440344Y-77894754D01*
X99443656Y-77892712D01*
X99567712Y-77768656D01*
X99573420Y-77759402D01*
X99625368Y-77712678D01*
X99678958Y-77700500D01*
X105582235Y-77700500D01*
X105649274Y-77720185D01*
X105695029Y-77772989D01*
X105702570Y-77794573D01*
X105748360Y-77978697D01*
X105832967Y-78149292D01*
X105832969Y-78149295D01*
X105952277Y-78297721D01*
X105952278Y-78297722D01*
X106100704Y-78417030D01*
X106100707Y-78417032D01*
X106271302Y-78501639D01*
X106271303Y-78501639D01*
X106271307Y-78501641D01*
X106456111Y-78547600D01*
X106498877Y-78550500D01*
X107901122Y-78550499D01*
X107943889Y-78547600D01*
X108128693Y-78501641D01*
X108299296Y-78417030D01*
X108447722Y-78297722D01*
X108567030Y-78149296D01*
X108651641Y-77978693D01*
X108697600Y-77793889D01*
X108700500Y-77751123D01*
X108700499Y-76848878D01*
X108697600Y-76806111D01*
X108651641Y-76621307D01*
X108581890Y-76480666D01*
X108567032Y-76450707D01*
X108567030Y-76450704D01*
X108447722Y-76302278D01*
X108447721Y-76302277D01*
X108378514Y-76246647D01*
X108338595Y-76189304D01*
X108336015Y-76119482D01*
X108371594Y-76059349D01*
X108378514Y-76053353D01*
X108388878Y-76045022D01*
X108447722Y-75997722D01*
X108567030Y-75849296D01*
X108631450Y-75719403D01*
X108678869Y-75668093D01*
X108742537Y-75650500D01*
X111875501Y-75650500D01*
X111942540Y-75670185D01*
X111988295Y-75722989D01*
X111999501Y-75774500D01*
X111999501Y-76458034D01*
X112010113Y-76577415D01*
X112066089Y-76773045D01*
X112066090Y-76773048D01*
X112066091Y-76773049D01*
X112160302Y-76953407D01*
X112160304Y-76953409D01*
X112288890Y-77111109D01*
X112318501Y-77135253D01*
X112446593Y-77239698D01*
X112626951Y-77333909D01*
X112759613Y-77371868D01*
X112818649Y-77409234D01*
X112848113Y-77472587D01*
X112849500Y-77491083D01*
X112849500Y-93064069D01*
X112849500Y-93064071D01*
X112849499Y-93064071D01*
X112874497Y-93189738D01*
X112874499Y-93189744D01*
X112923534Y-93308125D01*
X112994726Y-93414673D01*
X113485327Y-93905274D01*
X113567728Y-93960332D01*
X113567727Y-93960332D01*
X113581208Y-93969339D01*
X113591873Y-93976465D01*
X113710256Y-94025501D01*
X113710260Y-94025501D01*
X113710261Y-94025502D01*
X113835928Y-94050500D01*
X113835931Y-94050500D01*
X115321042Y-94050500D01*
X115388081Y-94070185D01*
X115426580Y-94109402D01*
X115432288Y-94118656D01*
X115556344Y-94242712D01*
X115705666Y-94334814D01*
X115705668Y-94334815D01*
X115726110Y-94341588D01*
X115764502Y-94354310D01*
X115821947Y-94394081D01*
X115848772Y-94458596D01*
X115849500Y-94472016D01*
X115849500Y-105179192D01*
X115829815Y-105246231D01*
X115813181Y-105266873D01*
X113766873Y-107313181D01*
X113705550Y-107346666D01*
X113679192Y-107349500D01*
X87401233Y-107349500D01*
X87334194Y-107329815D01*
X87288439Y-107277011D01*
X87283528Y-107264506D01*
X87278995Y-107250829D01*
X87272314Y-107230666D01*
X87180212Y-107081344D01*
X87056156Y-106957288D01*
X86906834Y-106865186D01*
X86740297Y-106810001D01*
X86740295Y-106810000D01*
X86637510Y-106799500D01*
X86012498Y-106799500D01*
X86012480Y-106799501D01*
X85909703Y-106810000D01*
X85909700Y-106810001D01*
X85743168Y-106865185D01*
X85743163Y-106865187D01*
X85593845Y-106957287D01*
X85499827Y-107051305D01*
X85438503Y-107084789D01*
X85368812Y-107079805D01*
X85324465Y-107051304D01*
X85230845Y-106957684D01*
X85081624Y-106865643D01*
X85081619Y-106865641D01*
X84915197Y-106810494D01*
X84915190Y-106810493D01*
X84812486Y-106800000D01*
X84750000Y-106800000D01*
X84750000Y-109199999D01*
X84812472Y-109199999D01*
X84812486Y-109199998D01*
X84915197Y-109189505D01*
X85081619Y-109134358D01*
X85081624Y-109134356D01*
X85230842Y-109042317D01*
X85324464Y-108948695D01*
X85385787Y-108915210D01*
X85455479Y-108920194D01*
X85499827Y-108948695D01*
X85593844Y-109042712D01*
X85743166Y-109134814D01*
X85909703Y-109189999D01*
X86012491Y-109200500D01*
X86637508Y-109200499D01*
X86637516Y-109200498D01*
X86637519Y-109200498D01*
X86693802Y-109194748D01*
X86740297Y-109189999D01*
X86906834Y-109134814D01*
X87056156Y-109042712D01*
X87180212Y-108918656D01*
X87272314Y-108769334D01*
X87283528Y-108735494D01*
X87323301Y-108678050D01*
X87387817Y-108651228D01*
X87401233Y-108650500D01*
X113679192Y-108650500D01*
X113746231Y-108670185D01*
X113766873Y-108686819D01*
X113813181Y-108733127D01*
X113846666Y-108794450D01*
X113849500Y-108820808D01*
X113849500Y-134179192D01*
X113829815Y-134246231D01*
X113813181Y-134266873D01*
X113766873Y-134313181D01*
X113705550Y-134346666D01*
X113679192Y-134349500D01*
X109988733Y-134349500D01*
X109921694Y-134329815D01*
X109875939Y-134277011D01*
X109871028Y-134264506D01*
X109864972Y-134246231D01*
X109859814Y-134230666D01*
X109767712Y-134081344D01*
X109643656Y-133957288D01*
X109621900Y-133943868D01*
X109575177Y-133891918D01*
X109563000Y-133838331D01*
X109563000Y-132348428D01*
X109538002Y-132222761D01*
X109538001Y-132222760D01*
X109538001Y-132222756D01*
X109488965Y-132104373D01*
X109487912Y-132102797D01*
X109417777Y-131997831D01*
X109417775Y-131997829D01*
X109417773Y-131997826D01*
X108914673Y-131494726D01*
X108914669Y-131494723D01*
X108808127Y-131423535D01*
X108689744Y-131374499D01*
X108689738Y-131374497D01*
X108564071Y-131349500D01*
X108564069Y-131349500D01*
X84935931Y-131349500D01*
X84935929Y-131349500D01*
X84810261Y-131374497D01*
X84810255Y-131374499D01*
X84691874Y-131423534D01*
X84585326Y-131494726D01*
X84082226Y-131997826D01*
X84082223Y-131997831D01*
X84012088Y-132102797D01*
X84012083Y-132102805D01*
X84011036Y-132104371D01*
X84011034Y-132104373D01*
X83961999Y-132222755D01*
X83961997Y-132222761D01*
X83937000Y-132348428D01*
X83937000Y-134838331D01*
X83917315Y-134905370D01*
X83878100Y-134943868D01*
X83856343Y-134957288D01*
X83732289Y-135081342D01*
X83640187Y-135230663D01*
X83640186Y-135230666D01*
X83585001Y-135397203D01*
X83585001Y-135397204D01*
X83585000Y-135397204D01*
X83574500Y-135499983D01*
X83574500Y-136500001D01*
X83574501Y-136500019D01*
X83585000Y-136602796D01*
X83585001Y-136602799D01*
X83640185Y-136769331D01*
X83640186Y-136769334D01*
X83732288Y-136918656D01*
X83856344Y-137042712D01*
X84005666Y-137134814D01*
X84172203Y-137189999D01*
X84274991Y-137200500D01*
X84900008Y-137200499D01*
X84900016Y-137200498D01*
X84900019Y-137200498D01*
X84956302Y-137194748D01*
X85002797Y-137189999D01*
X85169334Y-137134814D01*
X85318656Y-137042712D01*
X85412319Y-136949049D01*
X85473642Y-136915564D01*
X85543334Y-136920548D01*
X85587681Y-136949049D01*
X85681344Y-137042712D01*
X85703094Y-137056127D01*
X85749820Y-137108073D01*
X85762000Y-137161667D01*
X85762000Y-142110867D01*
X85742315Y-142177906D01*
X85738319Y-142183751D01*
X85716658Y-142213564D01*
X85710577Y-142225500D01*
X85681892Y-142281796D01*
X85633920Y-142332591D01*
X85571409Y-142349500D01*
X81928592Y-142349500D01*
X81861553Y-142329815D01*
X81818107Y-142281795D01*
X81783342Y-142213566D01*
X81761680Y-142183751D01*
X81644517Y-142022490D01*
X81477510Y-141855483D01*
X81286433Y-141716657D01*
X81257869Y-141702103D01*
X81075996Y-141609433D01*
X80851368Y-141536446D01*
X80618097Y-141499500D01*
X80618092Y-141499500D01*
X80381908Y-141499500D01*
X80381903Y-141499500D01*
X80148631Y-141536446D01*
X79924003Y-141609433D01*
X79713566Y-141716657D01*
X79604550Y-141795862D01*
X79522490Y-141855483D01*
X79522488Y-141855485D01*
X79522487Y-141855485D01*
X79355485Y-142022487D01*
X79355485Y-142022488D01*
X79355483Y-142022490D01*
X79345343Y-142036447D01*
X79216657Y-142213566D01*
X79109433Y-142424003D01*
X79036446Y-142648631D01*
X78999500Y-142881902D01*
X78000500Y-142881902D01*
X78000500Y-121897682D01*
X79900000Y-121897682D01*
X79900000Y-122102317D01*
X79932009Y-122304417D01*
X79995244Y-122499031D01*
X80088141Y-122681350D01*
X80088147Y-122681359D01*
X80120523Y-122725921D01*
X80120524Y-122725922D01*
X80800000Y-122046446D01*
X80800000Y-122052661D01*
X80827259Y-122154394D01*
X80879920Y-122245606D01*
X80954394Y-122320080D01*
X81045606Y-122372741D01*
X81147339Y-122400000D01*
X81153553Y-122400000D01*
X80474076Y-123079474D01*
X80518650Y-123111859D01*
X80700968Y-123204755D01*
X80895582Y-123267990D01*
X81097683Y-123300000D01*
X81302317Y-123300000D01*
X81504417Y-123267990D01*
X81699031Y-123204755D01*
X81881349Y-123111859D01*
X81925921Y-123079474D01*
X81246447Y-122400000D01*
X81252661Y-122400000D01*
X81354394Y-122372741D01*
X81445606Y-122320080D01*
X81520080Y-122245606D01*
X81572741Y-122154394D01*
X81600000Y-122052661D01*
X81600000Y-122046447D01*
X82279474Y-122725921D01*
X82311859Y-122681349D01*
X82404755Y-122499031D01*
X82467990Y-122304417D01*
X82500000Y-122102317D01*
X82500000Y-121897682D01*
X87500000Y-121897682D01*
X87500000Y-122102317D01*
X87532009Y-122304417D01*
X87595244Y-122499031D01*
X87688141Y-122681350D01*
X87688147Y-122681359D01*
X87720523Y-122725921D01*
X87720524Y-122725922D01*
X88400000Y-122046446D01*
X88400000Y-122052661D01*
X88427259Y-122154394D01*
X88479920Y-122245606D01*
X88554394Y-122320080D01*
X88645606Y-122372741D01*
X88747339Y-122400000D01*
X88753553Y-122400000D01*
X88074076Y-123079474D01*
X88118650Y-123111859D01*
X88300968Y-123204755D01*
X88495582Y-123267990D01*
X88697683Y-123300000D01*
X88902317Y-123300000D01*
X89104417Y-123267990D01*
X89299031Y-123204755D01*
X89481349Y-123111859D01*
X89525921Y-123079474D01*
X88846447Y-122400000D01*
X88852661Y-122400000D01*
X88954394Y-122372741D01*
X89045606Y-122320080D01*
X89120080Y-122245606D01*
X89172741Y-122154394D01*
X89200000Y-122052661D01*
X89200000Y-122046447D01*
X89879474Y-122725921D01*
X89911859Y-122681349D01*
X90004755Y-122499031D01*
X90067990Y-122304417D01*
X90100000Y-122102317D01*
X90100000Y-121897682D01*
X90067990Y-121695582D01*
X90004755Y-121500968D01*
X89911859Y-121318650D01*
X89879474Y-121274077D01*
X89879474Y-121274076D01*
X89200000Y-121953551D01*
X89200000Y-121947339D01*
X89172741Y-121845606D01*
X89120080Y-121754394D01*
X89045606Y-121679920D01*
X88954394Y-121627259D01*
X88852661Y-121600000D01*
X88846446Y-121600000D01*
X89525922Y-120920524D01*
X89525921Y-120920523D01*
X89481359Y-120888147D01*
X89481350Y-120888141D01*
X89299031Y-120795244D01*
X89104417Y-120732009D01*
X88902317Y-120700000D01*
X88697683Y-120700000D01*
X88495582Y-120732009D01*
X88300968Y-120795244D01*
X88118644Y-120888143D01*
X88074077Y-120920523D01*
X88074077Y-120920524D01*
X88753554Y-121600000D01*
X88747339Y-121600000D01*
X88645606Y-121627259D01*
X88554394Y-121679920D01*
X88479920Y-121754394D01*
X88427259Y-121845606D01*
X88400000Y-121947339D01*
X88400000Y-121953553D01*
X87720524Y-121274077D01*
X87720523Y-121274077D01*
X87688143Y-121318644D01*
X87595244Y-121500968D01*
X87532009Y-121695582D01*
X87500000Y-121897682D01*
X82500000Y-121897682D01*
X82467990Y-121695582D01*
X82404755Y-121500968D01*
X82311859Y-121318650D01*
X82279474Y-121274077D01*
X82279474Y-121274076D01*
X81600000Y-121953551D01*
X81600000Y-121947339D01*
X81572741Y-121845606D01*
X81520080Y-121754394D01*
X81445606Y-121679920D01*
X81354394Y-121627259D01*
X81252661Y-121600000D01*
X81246446Y-121600000D01*
X81925922Y-120920524D01*
X81925921Y-120920523D01*
X81881359Y-120888147D01*
X81881350Y-120888141D01*
X81699031Y-120795244D01*
X81504417Y-120732009D01*
X81302317Y-120700000D01*
X81097683Y-120700000D01*
X80895582Y-120732009D01*
X80700968Y-120795244D01*
X80518644Y-120888143D01*
X80474077Y-120920523D01*
X80474077Y-120920524D01*
X81153554Y-121600000D01*
X81147339Y-121600000D01*
X81045606Y-121627259D01*
X80954394Y-121679920D01*
X80879920Y-121754394D01*
X80827259Y-121845606D01*
X80800000Y-121947339D01*
X80800000Y-121953553D01*
X80120524Y-121274077D01*
X80120523Y-121274077D01*
X80088143Y-121318644D01*
X79995244Y-121500968D01*
X79932009Y-121695582D01*
X79900000Y-121897682D01*
X78000500Y-121897682D01*
X78000500Y-108499986D01*
X83487501Y-108499986D01*
X83497994Y-108602697D01*
X83553141Y-108769119D01*
X83553143Y-108769124D01*
X83645184Y-108918345D01*
X83769154Y-109042315D01*
X83918375Y-109134356D01*
X83918380Y-109134358D01*
X84084802Y-109189505D01*
X84084809Y-109189506D01*
X84187519Y-109199999D01*
X84249999Y-109199998D01*
X84250000Y-109199998D01*
X84250000Y-108250000D01*
X83487501Y-108250000D01*
X83487501Y-108499986D01*
X78000500Y-108499986D01*
X78000500Y-107500013D01*
X83487500Y-107500013D01*
X83487500Y-107750000D01*
X84250000Y-107750000D01*
X84250000Y-106800000D01*
X84249999Y-106799999D01*
X84187528Y-106800000D01*
X84187511Y-106800001D01*
X84084802Y-106810494D01*
X83918380Y-106865641D01*
X83918375Y-106865643D01*
X83769154Y-106957684D01*
X83645184Y-107081654D01*
X83553143Y-107230875D01*
X83553141Y-107230880D01*
X83497994Y-107397302D01*
X83497993Y-107397309D01*
X83487500Y-107500013D01*
X78000500Y-107500013D01*
X78000500Y-79249986D01*
X97275001Y-79249986D01*
X97285494Y-79352697D01*
X97340641Y-79519119D01*
X97340643Y-79519124D01*
X97432684Y-79668345D01*
X97556654Y-79792315D01*
X97705875Y-79884356D01*
X97705880Y-79884358D01*
X97872302Y-79939505D01*
X97872309Y-79939506D01*
X97975019Y-79949999D01*
X98249999Y-79949999D01*
X98750000Y-79949999D01*
X99024972Y-79949999D01*
X99024986Y-79949998D01*
X99127697Y-79939505D01*
X99294119Y-79884358D01*
X99294124Y-79884356D01*
X99443345Y-79792315D01*
X99567315Y-79668345D01*
X99659356Y-79519124D01*
X99659358Y-79519119D01*
X99714505Y-79352697D01*
X99714506Y-79352690D01*
X99724999Y-79249986D01*
X99725000Y-79249973D01*
X99725000Y-79200000D01*
X98750000Y-79200000D01*
X98750000Y-79949999D01*
X98249999Y-79949999D01*
X98250000Y-79949998D01*
X98250000Y-79200000D01*
X97275001Y-79200000D01*
X97275001Y-79249986D01*
X78000500Y-79249986D01*
X78000500Y-75752155D01*
X85850000Y-75752155D01*
X85850000Y-76150000D01*
X87050000Y-76150000D01*
X87050000Y-74750000D01*
X85850001Y-74750000D01*
X85850001Y-75049986D01*
X85860494Y-75152697D01*
X85915641Y-75319119D01*
X85915646Y-75319128D01*
X85948019Y-75371615D01*
X85966459Y-75439008D01*
X85945536Y-75505671D01*
X85941748Y-75511021D01*
X85906646Y-75557911D01*
X85906645Y-75557913D01*
X85856403Y-75692620D01*
X85856401Y-75692627D01*
X85850000Y-75752155D01*
X78000500Y-75752155D01*
X78000500Y-73950013D01*
X85850000Y-73950013D01*
X85850000Y-74250000D01*
X87050000Y-74250000D01*
X87050000Y-72750000D01*
X85850001Y-72750000D01*
X85850001Y-73049986D01*
X85860494Y-73152697D01*
X85915641Y-73319119D01*
X85915645Y-73319128D01*
X85987056Y-73434904D01*
X86005496Y-73502296D01*
X85987056Y-73565096D01*
X85915645Y-73680871D01*
X85915641Y-73680880D01*
X85860494Y-73847302D01*
X85860493Y-73847309D01*
X85850000Y-73950013D01*
X78000500Y-73950013D01*
X78000500Y-71247844D01*
X85850000Y-71247844D01*
X85856401Y-71307372D01*
X85856402Y-71307376D01*
X85906648Y-71442091D01*
X85941747Y-71488976D01*
X85966165Y-71554440D01*
X85951314Y-71622713D01*
X85948020Y-71628384D01*
X85915645Y-71680871D01*
X85915641Y-71680880D01*
X85860494Y-71847302D01*
X85860493Y-71847309D01*
X85850000Y-71950013D01*
X85850000Y-72250000D01*
X87050000Y-72250000D01*
X87050000Y-70850000D01*
X85850000Y-70850000D01*
X85850000Y-71247844D01*
X78000500Y-71247844D01*
X78000500Y-66708836D01*
X78020185Y-66641797D01*
X78072989Y-66596042D01*
X78142147Y-66586098D01*
X78199986Y-66610460D01*
X78293185Y-66681974D01*
X78293192Y-66681978D01*
X78488273Y-66794609D01*
X78488289Y-66794617D01*
X78618076Y-66848376D01*
X78696410Y-66880823D01*
X78914011Y-66939129D01*
X79137361Y-66968534D01*
X79137368Y-66968534D01*
X79362632Y-66968534D01*
X79362639Y-66968534D01*
X79585989Y-66939129D01*
X79803590Y-66880823D01*
X79960256Y-66815929D01*
X80011710Y-66794617D01*
X80011713Y-66794615D01*
X80011719Y-66794613D01*
X80206815Y-66681974D01*
X80385539Y-66544834D01*
X80544834Y-66385539D01*
X80681974Y-66206815D01*
X80794613Y-66011719D01*
X80880823Y-65803590D01*
X80939129Y-65585989D01*
X80968534Y-65362639D01*
X80968534Y-65137361D01*
X80939129Y-64914011D01*
X80880823Y-64696410D01*
X80817355Y-64543185D01*
X80794617Y-64488289D01*
X80794609Y-64488273D01*
X80681978Y-64293192D01*
X80681974Y-64293185D01*
X80610460Y-64199986D01*
X80585266Y-64134817D01*
X80599304Y-64066372D01*
X80648118Y-64016383D01*
X80708836Y-64000500D01*
X126000000Y-64000500D01*
X126000000Y-88315000D01*
G37*
%TD.AperFunction*%
%TD*%
M02*
