%TF.GenerationSoftware,KiCad,Pcbnew,10.0.5*%
%TF.CreationDate,2026-08-11T18:38:34+05:30*%
%TF.ProjectId,p5,70352e6b-6963-4616-945f-706362585858,rev?*%
%TF.SameCoordinates,Original*%
%TF.FileFunction,Legend,Top*%
%TF.FilePolarity,Positive*%
%FSLAX46Y46*%
G04 Gerber Fmt 4.6, Leading zero omitted, Abs format (unit mm)*
G04 Created by KiCad (PCBNEW 10.0.5) date 2026-08-11 18:38:34*
%MOMM*%
%LPD*%
G01*
G04 APERTURE LIST*
%ADD10C,0.300000*%
%ADD11C,0.150000*%
%ADD12C,0.120000*%
G04 APERTURE END LIST*
D10*
X173265114Y-141195489D02*
X173265114Y-140695489D01*
X174050828Y-140481203D02*
X174050828Y-141195489D01*
X174050828Y-141195489D02*
X172550828Y-141195489D01*
X172550828Y-141195489D02*
X172550828Y-140481203D01*
X173979400Y-139909774D02*
X174050828Y-139695489D01*
X174050828Y-139695489D02*
X174050828Y-139338346D01*
X174050828Y-139338346D02*
X173979400Y-139195489D01*
X173979400Y-139195489D02*
X173907971Y-139124060D01*
X173907971Y-139124060D02*
X173765114Y-139052631D01*
X173765114Y-139052631D02*
X173622257Y-139052631D01*
X173622257Y-139052631D02*
X173479400Y-139124060D01*
X173479400Y-139124060D02*
X173407971Y-139195489D01*
X173407971Y-139195489D02*
X173336542Y-139338346D01*
X173336542Y-139338346D02*
X173265114Y-139624060D01*
X173265114Y-139624060D02*
X173193685Y-139766917D01*
X173193685Y-139766917D02*
X173122257Y-139838346D01*
X173122257Y-139838346D02*
X172979400Y-139909774D01*
X172979400Y-139909774D02*
X172836542Y-139909774D01*
X172836542Y-139909774D02*
X172693685Y-139838346D01*
X172693685Y-139838346D02*
X172622257Y-139766917D01*
X172622257Y-139766917D02*
X172550828Y-139624060D01*
X172550828Y-139624060D02*
X172550828Y-139266917D01*
X172550828Y-139266917D02*
X172622257Y-139052631D01*
X174050828Y-138409775D02*
X172550828Y-138409775D01*
X172550828Y-138409775D02*
X172550828Y-137838346D01*
X172550828Y-137838346D02*
X172622257Y-137695489D01*
X172622257Y-137695489D02*
X172693685Y-137624060D01*
X172693685Y-137624060D02*
X172836542Y-137552632D01*
X172836542Y-137552632D02*
X173050828Y-137552632D01*
X173050828Y-137552632D02*
X173193685Y-137624060D01*
X173193685Y-137624060D02*
X173265114Y-137695489D01*
X173265114Y-137695489D02*
X173336542Y-137838346D01*
X173336542Y-137838346D02*
X173336542Y-138409775D01*
X172550828Y-137052632D02*
X172550828Y-136124060D01*
X172550828Y-136124060D02*
X173122257Y-136624060D01*
X173122257Y-136624060D02*
X173122257Y-136409775D01*
X173122257Y-136409775D02*
X173193685Y-136266918D01*
X173193685Y-136266918D02*
X173265114Y-136195489D01*
X173265114Y-136195489D02*
X173407971Y-136124060D01*
X173407971Y-136124060D02*
X173765114Y-136124060D01*
X173765114Y-136124060D02*
X173907971Y-136195489D01*
X173907971Y-136195489D02*
X173979400Y-136266918D01*
X173979400Y-136266918D02*
X174050828Y-136409775D01*
X174050828Y-136409775D02*
X174050828Y-136838346D01*
X174050828Y-136838346D02*
X173979400Y-136981203D01*
X173979400Y-136981203D02*
X173907971Y-137052632D01*
X172693685Y-135552632D02*
X172622257Y-135481204D01*
X172622257Y-135481204D02*
X172550828Y-135338347D01*
X172550828Y-135338347D02*
X172550828Y-134981204D01*
X172550828Y-134981204D02*
X172622257Y-134838347D01*
X172622257Y-134838347D02*
X172693685Y-134766918D01*
X172693685Y-134766918D02*
X172836542Y-134695489D01*
X172836542Y-134695489D02*
X172979400Y-134695489D01*
X172979400Y-134695489D02*
X173193685Y-134766918D01*
X173193685Y-134766918D02*
X174050828Y-135624061D01*
X174050828Y-135624061D02*
X174050828Y-134695489D01*
X173265114Y-132909776D02*
X173265114Y-132409776D01*
X174050828Y-132195490D02*
X174050828Y-132909776D01*
X174050828Y-132909776D02*
X172550828Y-132909776D01*
X172550828Y-132909776D02*
X172550828Y-132195490D01*
X173050828Y-131552633D02*
X174050828Y-131552633D01*
X173193685Y-131552633D02*
X173122257Y-131481204D01*
X173122257Y-131481204D02*
X173050828Y-131338347D01*
X173050828Y-131338347D02*
X173050828Y-131124061D01*
X173050828Y-131124061D02*
X173122257Y-130981204D01*
X173122257Y-130981204D02*
X173265114Y-130909776D01*
X173265114Y-130909776D02*
X174050828Y-130909776D01*
X173050828Y-130338347D02*
X174050828Y-129981204D01*
X174050828Y-129981204D02*
X173050828Y-129624061D01*
X174050828Y-129052633D02*
X173050828Y-129052633D01*
X172550828Y-129052633D02*
X172622257Y-129124061D01*
X172622257Y-129124061D02*
X172693685Y-129052633D01*
X172693685Y-129052633D02*
X172622257Y-128981204D01*
X172622257Y-128981204D02*
X172550828Y-129052633D01*
X172550828Y-129052633D02*
X172693685Y-129052633D01*
X174050828Y-128338347D02*
X173050828Y-128338347D01*
X173336542Y-128338347D02*
X173193685Y-128266918D01*
X173193685Y-128266918D02*
X173122257Y-128195490D01*
X173122257Y-128195490D02*
X173050828Y-128052632D01*
X173050828Y-128052632D02*
X173050828Y-127909775D01*
X174050828Y-127195490D02*
X173979400Y-127338347D01*
X173979400Y-127338347D02*
X173907971Y-127409776D01*
X173907971Y-127409776D02*
X173765114Y-127481204D01*
X173765114Y-127481204D02*
X173336542Y-127481204D01*
X173336542Y-127481204D02*
X173193685Y-127409776D01*
X173193685Y-127409776D02*
X173122257Y-127338347D01*
X173122257Y-127338347D02*
X173050828Y-127195490D01*
X173050828Y-127195490D02*
X173050828Y-126981204D01*
X173050828Y-126981204D02*
X173122257Y-126838347D01*
X173122257Y-126838347D02*
X173193685Y-126766919D01*
X173193685Y-126766919D02*
X173336542Y-126695490D01*
X173336542Y-126695490D02*
X173765114Y-126695490D01*
X173765114Y-126695490D02*
X173907971Y-126766919D01*
X173907971Y-126766919D02*
X173979400Y-126838347D01*
X173979400Y-126838347D02*
X174050828Y-126981204D01*
X174050828Y-126981204D02*
X174050828Y-127195490D01*
X173050828Y-126052633D02*
X174050828Y-126052633D01*
X173193685Y-126052633D02*
X173122257Y-125981204D01*
X173122257Y-125981204D02*
X173050828Y-125838347D01*
X173050828Y-125838347D02*
X173050828Y-125624061D01*
X173050828Y-125624061D02*
X173122257Y-125481204D01*
X173122257Y-125481204D02*
X173265114Y-125409776D01*
X173265114Y-125409776D02*
X174050828Y-125409776D01*
X174050828Y-124695490D02*
X173050828Y-124695490D01*
X173193685Y-124695490D02*
X173122257Y-124624061D01*
X173122257Y-124624061D02*
X173050828Y-124481204D01*
X173050828Y-124481204D02*
X173050828Y-124266918D01*
X173050828Y-124266918D02*
X173122257Y-124124061D01*
X173122257Y-124124061D02*
X173265114Y-124052633D01*
X173265114Y-124052633D02*
X174050828Y-124052633D01*
X173265114Y-124052633D02*
X173122257Y-123981204D01*
X173122257Y-123981204D02*
X173050828Y-123838347D01*
X173050828Y-123838347D02*
X173050828Y-123624061D01*
X173050828Y-123624061D02*
X173122257Y-123481204D01*
X173122257Y-123481204D02*
X173265114Y-123409775D01*
X173265114Y-123409775D02*
X174050828Y-123409775D01*
X173979400Y-122124061D02*
X174050828Y-122266918D01*
X174050828Y-122266918D02*
X174050828Y-122552633D01*
X174050828Y-122552633D02*
X173979400Y-122695490D01*
X173979400Y-122695490D02*
X173836542Y-122766918D01*
X173836542Y-122766918D02*
X173265114Y-122766918D01*
X173265114Y-122766918D02*
X173122257Y-122695490D01*
X173122257Y-122695490D02*
X173050828Y-122552633D01*
X173050828Y-122552633D02*
X173050828Y-122266918D01*
X173050828Y-122266918D02*
X173122257Y-122124061D01*
X173122257Y-122124061D02*
X173265114Y-122052633D01*
X173265114Y-122052633D02*
X173407971Y-122052633D01*
X173407971Y-122052633D02*
X173550828Y-122766918D01*
X173050828Y-121409776D02*
X174050828Y-121409776D01*
X173193685Y-121409776D02*
X173122257Y-121338347D01*
X173122257Y-121338347D02*
X173050828Y-121195490D01*
X173050828Y-121195490D02*
X173050828Y-120981204D01*
X173050828Y-120981204D02*
X173122257Y-120838347D01*
X173122257Y-120838347D02*
X173265114Y-120766919D01*
X173265114Y-120766919D02*
X174050828Y-120766919D01*
X173050828Y-120266918D02*
X173050828Y-119695490D01*
X172550828Y-120052633D02*
X173836542Y-120052633D01*
X173836542Y-120052633D02*
X173979400Y-119981204D01*
X173979400Y-119981204D02*
X174050828Y-119838347D01*
X174050828Y-119838347D02*
X174050828Y-119695490D01*
X174050828Y-118552633D02*
X173265114Y-118552633D01*
X173265114Y-118552633D02*
X173122257Y-118624061D01*
X173122257Y-118624061D02*
X173050828Y-118766918D01*
X173050828Y-118766918D02*
X173050828Y-119052633D01*
X173050828Y-119052633D02*
X173122257Y-119195490D01*
X173979400Y-118552633D02*
X174050828Y-118695490D01*
X174050828Y-118695490D02*
X174050828Y-119052633D01*
X174050828Y-119052633D02*
X173979400Y-119195490D01*
X173979400Y-119195490D02*
X173836542Y-119266918D01*
X173836542Y-119266918D02*
X173693685Y-119266918D01*
X173693685Y-119266918D02*
X173550828Y-119195490D01*
X173550828Y-119195490D02*
X173479400Y-119052633D01*
X173479400Y-119052633D02*
X173479400Y-118695490D01*
X173479400Y-118695490D02*
X173407971Y-118552633D01*
X174050828Y-117624061D02*
X173979400Y-117766918D01*
X173979400Y-117766918D02*
X173836542Y-117838347D01*
X173836542Y-117838347D02*
X172550828Y-117838347D01*
X174050828Y-115909776D02*
X172550828Y-115909776D01*
X172550828Y-115909776D02*
X173622257Y-115409776D01*
X173622257Y-115409776D02*
X172550828Y-114909776D01*
X172550828Y-114909776D02*
X174050828Y-114909776D01*
X174050828Y-113981204D02*
X173979400Y-114124061D01*
X173979400Y-114124061D02*
X173907971Y-114195490D01*
X173907971Y-114195490D02*
X173765114Y-114266918D01*
X173765114Y-114266918D02*
X173336542Y-114266918D01*
X173336542Y-114266918D02*
X173193685Y-114195490D01*
X173193685Y-114195490D02*
X173122257Y-114124061D01*
X173122257Y-114124061D02*
X173050828Y-113981204D01*
X173050828Y-113981204D02*
X173050828Y-113766918D01*
X173050828Y-113766918D02*
X173122257Y-113624061D01*
X173122257Y-113624061D02*
X173193685Y-113552633D01*
X173193685Y-113552633D02*
X173336542Y-113481204D01*
X173336542Y-113481204D02*
X173765114Y-113481204D01*
X173765114Y-113481204D02*
X173907971Y-113552633D01*
X173907971Y-113552633D02*
X173979400Y-113624061D01*
X173979400Y-113624061D02*
X174050828Y-113766918D01*
X174050828Y-113766918D02*
X174050828Y-113981204D01*
X173050828Y-112838347D02*
X174050828Y-112838347D01*
X173193685Y-112838347D02*
X173122257Y-112766918D01*
X173122257Y-112766918D02*
X173050828Y-112624061D01*
X173050828Y-112624061D02*
X173050828Y-112409775D01*
X173050828Y-112409775D02*
X173122257Y-112266918D01*
X173122257Y-112266918D02*
X173265114Y-112195490D01*
X173265114Y-112195490D02*
X174050828Y-112195490D01*
X174050828Y-111481204D02*
X173050828Y-111481204D01*
X172550828Y-111481204D02*
X172622257Y-111552632D01*
X172622257Y-111552632D02*
X172693685Y-111481204D01*
X172693685Y-111481204D02*
X172622257Y-111409775D01*
X172622257Y-111409775D02*
X172550828Y-111481204D01*
X172550828Y-111481204D02*
X172693685Y-111481204D01*
X173050828Y-110981203D02*
X173050828Y-110409775D01*
X172550828Y-110766918D02*
X173836542Y-110766918D01*
X173836542Y-110766918D02*
X173979400Y-110695489D01*
X173979400Y-110695489D02*
X174050828Y-110552632D01*
X174050828Y-110552632D02*
X174050828Y-110409775D01*
X174050828Y-109695489D02*
X173979400Y-109838346D01*
X173979400Y-109838346D02*
X173907971Y-109909775D01*
X173907971Y-109909775D02*
X173765114Y-109981203D01*
X173765114Y-109981203D02*
X173336542Y-109981203D01*
X173336542Y-109981203D02*
X173193685Y-109909775D01*
X173193685Y-109909775D02*
X173122257Y-109838346D01*
X173122257Y-109838346D02*
X173050828Y-109695489D01*
X173050828Y-109695489D02*
X173050828Y-109481203D01*
X173050828Y-109481203D02*
X173122257Y-109338346D01*
X173122257Y-109338346D02*
X173193685Y-109266918D01*
X173193685Y-109266918D02*
X173336542Y-109195489D01*
X173336542Y-109195489D02*
X173765114Y-109195489D01*
X173765114Y-109195489D02*
X173907971Y-109266918D01*
X173907971Y-109266918D02*
X173979400Y-109338346D01*
X173979400Y-109338346D02*
X174050828Y-109481203D01*
X174050828Y-109481203D02*
X174050828Y-109695489D01*
X174050828Y-108552632D02*
X173050828Y-108552632D01*
X173336542Y-108552632D02*
X173193685Y-108481203D01*
X173193685Y-108481203D02*
X173122257Y-108409775D01*
X173122257Y-108409775D02*
X173050828Y-108266917D01*
X173050828Y-108266917D02*
X173050828Y-108124060D01*
X174050828Y-107624061D02*
X173050828Y-107624061D01*
X172550828Y-107624061D02*
X172622257Y-107695489D01*
X172622257Y-107695489D02*
X172693685Y-107624061D01*
X172693685Y-107624061D02*
X172622257Y-107552632D01*
X172622257Y-107552632D02*
X172550828Y-107624061D01*
X172550828Y-107624061D02*
X172693685Y-107624061D01*
X173050828Y-106909775D02*
X174050828Y-106909775D01*
X173193685Y-106909775D02*
X173122257Y-106838346D01*
X173122257Y-106838346D02*
X173050828Y-106695489D01*
X173050828Y-106695489D02*
X173050828Y-106481203D01*
X173050828Y-106481203D02*
X173122257Y-106338346D01*
X173122257Y-106338346D02*
X173265114Y-106266918D01*
X173265114Y-106266918D02*
X174050828Y-106266918D01*
X173050828Y-104909775D02*
X174265114Y-104909775D01*
X174265114Y-104909775D02*
X174407971Y-104981203D01*
X174407971Y-104981203D02*
X174479400Y-105052632D01*
X174479400Y-105052632D02*
X174550828Y-105195489D01*
X174550828Y-105195489D02*
X174550828Y-105409775D01*
X174550828Y-105409775D02*
X174479400Y-105552632D01*
X173979400Y-104909775D02*
X174050828Y-105052632D01*
X174050828Y-105052632D02*
X174050828Y-105338346D01*
X174050828Y-105338346D02*
X173979400Y-105481203D01*
X173979400Y-105481203D02*
X173907971Y-105552632D01*
X173907971Y-105552632D02*
X173765114Y-105624060D01*
X173765114Y-105624060D02*
X173336542Y-105624060D01*
X173336542Y-105624060D02*
X173193685Y-105552632D01*
X173193685Y-105552632D02*
X173122257Y-105481203D01*
X173122257Y-105481203D02*
X173050828Y-105338346D01*
X173050828Y-105338346D02*
X173050828Y-105052632D01*
X173050828Y-105052632D02*
X173122257Y-104909775D01*
X174050828Y-103052632D02*
X172550828Y-103052632D01*
X172550828Y-103052632D02*
X172550828Y-102481203D01*
X172550828Y-102481203D02*
X172622257Y-102338346D01*
X172622257Y-102338346D02*
X172693685Y-102266917D01*
X172693685Y-102266917D02*
X172836542Y-102195489D01*
X172836542Y-102195489D02*
X173050828Y-102195489D01*
X173050828Y-102195489D02*
X173193685Y-102266917D01*
X173193685Y-102266917D02*
X173265114Y-102338346D01*
X173265114Y-102338346D02*
X173336542Y-102481203D01*
X173336542Y-102481203D02*
X173336542Y-103052632D01*
X173907971Y-100695489D02*
X173979400Y-100766917D01*
X173979400Y-100766917D02*
X174050828Y-100981203D01*
X174050828Y-100981203D02*
X174050828Y-101124060D01*
X174050828Y-101124060D02*
X173979400Y-101338346D01*
X173979400Y-101338346D02*
X173836542Y-101481203D01*
X173836542Y-101481203D02*
X173693685Y-101552632D01*
X173693685Y-101552632D02*
X173407971Y-101624060D01*
X173407971Y-101624060D02*
X173193685Y-101624060D01*
X173193685Y-101624060D02*
X172907971Y-101552632D01*
X172907971Y-101552632D02*
X172765114Y-101481203D01*
X172765114Y-101481203D02*
X172622257Y-101338346D01*
X172622257Y-101338346D02*
X172550828Y-101124060D01*
X172550828Y-101124060D02*
X172550828Y-100981203D01*
X172550828Y-100981203D02*
X172622257Y-100766917D01*
X172622257Y-100766917D02*
X172693685Y-100695489D01*
X173265114Y-99552632D02*
X173336542Y-99338346D01*
X173336542Y-99338346D02*
X173407971Y-99266917D01*
X173407971Y-99266917D02*
X173550828Y-99195489D01*
X173550828Y-99195489D02*
X173765114Y-99195489D01*
X173765114Y-99195489D02*
X173907971Y-99266917D01*
X173907971Y-99266917D02*
X173979400Y-99338346D01*
X173979400Y-99338346D02*
X174050828Y-99481203D01*
X174050828Y-99481203D02*
X174050828Y-100052632D01*
X174050828Y-100052632D02*
X172550828Y-100052632D01*
X172550828Y-100052632D02*
X172550828Y-99552632D01*
X172550828Y-99552632D02*
X172622257Y-99409775D01*
X172622257Y-99409775D02*
X172693685Y-99338346D01*
X172693685Y-99338346D02*
X172836542Y-99266917D01*
X172836542Y-99266917D02*
X172979400Y-99266917D01*
X172979400Y-99266917D02*
X173122257Y-99338346D01*
X173122257Y-99338346D02*
X173193685Y-99409775D01*
X173193685Y-99409775D02*
X173265114Y-99552632D01*
X173265114Y-99552632D02*
X173265114Y-100052632D01*
X86340225Y-90800828D02*
X86840225Y-92300828D01*
X86840225Y-92300828D02*
X87340225Y-90800828D01*
X87840224Y-92300828D02*
X87840224Y-90800828D01*
X87840224Y-90800828D02*
X88197367Y-90800828D01*
X88197367Y-90800828D02*
X88411653Y-90872257D01*
X88411653Y-90872257D02*
X88554510Y-91015114D01*
X88554510Y-91015114D02*
X88625939Y-91157971D01*
X88625939Y-91157971D02*
X88697367Y-91443685D01*
X88697367Y-91443685D02*
X88697367Y-91657971D01*
X88697367Y-91657971D02*
X88625939Y-91943685D01*
X88625939Y-91943685D02*
X88554510Y-92086542D01*
X88554510Y-92086542D02*
X88411653Y-92229400D01*
X88411653Y-92229400D02*
X88197367Y-92300828D01*
X88197367Y-92300828D02*
X87840224Y-92300828D01*
X89340224Y-91515114D02*
X89840224Y-91515114D01*
X90054510Y-92300828D02*
X89340224Y-92300828D01*
X89340224Y-92300828D02*
X89340224Y-90800828D01*
X89340224Y-90800828D02*
X90054510Y-90800828D01*
X90625939Y-92229400D02*
X90840225Y-92300828D01*
X90840225Y-92300828D02*
X91197367Y-92300828D01*
X91197367Y-92300828D02*
X91340225Y-92229400D01*
X91340225Y-92229400D02*
X91411653Y-92157971D01*
X91411653Y-92157971D02*
X91483082Y-92015114D01*
X91483082Y-92015114D02*
X91483082Y-91872257D01*
X91483082Y-91872257D02*
X91411653Y-91729400D01*
X91411653Y-91729400D02*
X91340225Y-91657971D01*
X91340225Y-91657971D02*
X91197367Y-91586542D01*
X91197367Y-91586542D02*
X90911653Y-91515114D01*
X90911653Y-91515114D02*
X90768796Y-91443685D01*
X90768796Y-91443685D02*
X90697367Y-91372257D01*
X90697367Y-91372257D02*
X90625939Y-91229400D01*
X90625939Y-91229400D02*
X90625939Y-91086542D01*
X90625939Y-91086542D02*
X90697367Y-90943685D01*
X90697367Y-90943685D02*
X90768796Y-90872257D01*
X90768796Y-90872257D02*
X90911653Y-90800828D01*
X90911653Y-90800828D02*
X91268796Y-90800828D01*
X91268796Y-90800828D02*
X91483082Y-90872257D01*
X92125938Y-92300828D02*
X92125938Y-90800828D01*
X93625939Y-90872257D02*
X93483082Y-90800828D01*
X93483082Y-90800828D02*
X93268796Y-90800828D01*
X93268796Y-90800828D02*
X93054510Y-90872257D01*
X93054510Y-90872257D02*
X92911653Y-91015114D01*
X92911653Y-91015114D02*
X92840224Y-91157971D01*
X92840224Y-91157971D02*
X92768796Y-91443685D01*
X92768796Y-91443685D02*
X92768796Y-91657971D01*
X92768796Y-91657971D02*
X92840224Y-91943685D01*
X92840224Y-91943685D02*
X92911653Y-92086542D01*
X92911653Y-92086542D02*
X93054510Y-92229400D01*
X93054510Y-92229400D02*
X93268796Y-92300828D01*
X93268796Y-92300828D02*
X93411653Y-92300828D01*
X93411653Y-92300828D02*
X93625939Y-92229400D01*
X93625939Y-92229400D02*
X93697367Y-92157971D01*
X93697367Y-92157971D02*
X93697367Y-91657971D01*
X93697367Y-91657971D02*
X93411653Y-91657971D01*
X94340224Y-92300828D02*
X94340224Y-90800828D01*
X94340224Y-90800828D02*
X95197367Y-92300828D01*
X95197367Y-92300828D02*
X95197367Y-90800828D01*
D11*
X127679580Y-92616666D02*
X127727200Y-92664285D01*
X127727200Y-92664285D02*
X127774819Y-92807142D01*
X127774819Y-92807142D02*
X127774819Y-92902380D01*
X127774819Y-92902380D02*
X127727200Y-93045237D01*
X127727200Y-93045237D02*
X127631961Y-93140475D01*
X127631961Y-93140475D02*
X127536723Y-93188094D01*
X127536723Y-93188094D02*
X127346247Y-93235713D01*
X127346247Y-93235713D02*
X127203390Y-93235713D01*
X127203390Y-93235713D02*
X127012914Y-93188094D01*
X127012914Y-93188094D02*
X126917676Y-93140475D01*
X126917676Y-93140475D02*
X126822438Y-93045237D01*
X126822438Y-93045237D02*
X126774819Y-92902380D01*
X126774819Y-92902380D02*
X126774819Y-92807142D01*
X126774819Y-92807142D02*
X126822438Y-92664285D01*
X126822438Y-92664285D02*
X126870057Y-92616666D01*
X126774819Y-92283332D02*
X126774819Y-91664285D01*
X126774819Y-91664285D02*
X127155771Y-91997618D01*
X127155771Y-91997618D02*
X127155771Y-91854761D01*
X127155771Y-91854761D02*
X127203390Y-91759523D01*
X127203390Y-91759523D02*
X127251009Y-91711904D01*
X127251009Y-91711904D02*
X127346247Y-91664285D01*
X127346247Y-91664285D02*
X127584342Y-91664285D01*
X127584342Y-91664285D02*
X127679580Y-91711904D01*
X127679580Y-91711904D02*
X127727200Y-91759523D01*
X127727200Y-91759523D02*
X127774819Y-91854761D01*
X127774819Y-91854761D02*
X127774819Y-92140475D01*
X127774819Y-92140475D02*
X127727200Y-92235713D01*
X127727200Y-92235713D02*
X127679580Y-92283332D01*
X158238095Y-112954819D02*
X158238095Y-113764342D01*
X158238095Y-113764342D02*
X158285714Y-113859580D01*
X158285714Y-113859580D02*
X158333333Y-113907200D01*
X158333333Y-113907200D02*
X158428571Y-113954819D01*
X158428571Y-113954819D02*
X158619047Y-113954819D01*
X158619047Y-113954819D02*
X158714285Y-113907200D01*
X158714285Y-113907200D02*
X158761904Y-113859580D01*
X158761904Y-113859580D02*
X158809523Y-113764342D01*
X158809523Y-113764342D02*
X158809523Y-112954819D01*
X159714285Y-113288152D02*
X159714285Y-113954819D01*
X159476190Y-112907200D02*
X159238095Y-113621485D01*
X159238095Y-113621485D02*
X159857142Y-113621485D01*
X115044580Y-92581666D02*
X115092200Y-92629285D01*
X115092200Y-92629285D02*
X115139819Y-92772142D01*
X115139819Y-92772142D02*
X115139819Y-92867380D01*
X115139819Y-92867380D02*
X115092200Y-93010237D01*
X115092200Y-93010237D02*
X114996961Y-93105475D01*
X114996961Y-93105475D02*
X114901723Y-93153094D01*
X114901723Y-93153094D02*
X114711247Y-93200713D01*
X114711247Y-93200713D02*
X114568390Y-93200713D01*
X114568390Y-93200713D02*
X114377914Y-93153094D01*
X114377914Y-93153094D02*
X114282676Y-93105475D01*
X114282676Y-93105475D02*
X114187438Y-93010237D01*
X114187438Y-93010237D02*
X114139819Y-92867380D01*
X114139819Y-92867380D02*
X114139819Y-92772142D01*
X114139819Y-92772142D02*
X114187438Y-92629285D01*
X114187438Y-92629285D02*
X114235057Y-92581666D01*
X114235057Y-92200713D02*
X114187438Y-92153094D01*
X114187438Y-92153094D02*
X114139819Y-92057856D01*
X114139819Y-92057856D02*
X114139819Y-91819761D01*
X114139819Y-91819761D02*
X114187438Y-91724523D01*
X114187438Y-91724523D02*
X114235057Y-91676904D01*
X114235057Y-91676904D02*
X114330295Y-91629285D01*
X114330295Y-91629285D02*
X114425533Y-91629285D01*
X114425533Y-91629285D02*
X114568390Y-91676904D01*
X114568390Y-91676904D02*
X115139819Y-92248332D01*
X115139819Y-92248332D02*
X115139819Y-91629285D01*
X143604819Y-119579166D02*
X143128628Y-119912499D01*
X143604819Y-120150594D02*
X142604819Y-120150594D01*
X142604819Y-120150594D02*
X142604819Y-119769642D01*
X142604819Y-119769642D02*
X142652438Y-119674404D01*
X142652438Y-119674404D02*
X142700057Y-119626785D01*
X142700057Y-119626785D02*
X142795295Y-119579166D01*
X142795295Y-119579166D02*
X142938152Y-119579166D01*
X142938152Y-119579166D02*
X143033390Y-119626785D01*
X143033390Y-119626785D02*
X143081009Y-119674404D01*
X143081009Y-119674404D02*
X143128628Y-119769642D01*
X143128628Y-119769642D02*
X143128628Y-120150594D01*
X142700057Y-119198213D02*
X142652438Y-119150594D01*
X142652438Y-119150594D02*
X142604819Y-119055356D01*
X142604819Y-119055356D02*
X142604819Y-118817261D01*
X142604819Y-118817261D02*
X142652438Y-118722023D01*
X142652438Y-118722023D02*
X142700057Y-118674404D01*
X142700057Y-118674404D02*
X142795295Y-118626785D01*
X142795295Y-118626785D02*
X142890533Y-118626785D01*
X142890533Y-118626785D02*
X143033390Y-118674404D01*
X143033390Y-118674404D02*
X143604819Y-119245832D01*
X143604819Y-119245832D02*
X143604819Y-118626785D01*
X82666667Y-150407200D02*
X82809524Y-150454819D01*
X82809524Y-150454819D02*
X83047619Y-150454819D01*
X83047619Y-150454819D02*
X83142857Y-150407200D01*
X83142857Y-150407200D02*
X83190476Y-150359580D01*
X83190476Y-150359580D02*
X83238095Y-150264342D01*
X83238095Y-150264342D02*
X83238095Y-150169104D01*
X83238095Y-150169104D02*
X83190476Y-150073866D01*
X83190476Y-150073866D02*
X83142857Y-150026247D01*
X83142857Y-150026247D02*
X83047619Y-149978628D01*
X83047619Y-149978628D02*
X82857143Y-149931009D01*
X82857143Y-149931009D02*
X82761905Y-149883390D01*
X82761905Y-149883390D02*
X82714286Y-149835771D01*
X82714286Y-149835771D02*
X82666667Y-149740533D01*
X82666667Y-149740533D02*
X82666667Y-149645295D01*
X82666667Y-149645295D02*
X82714286Y-149550057D01*
X82714286Y-149550057D02*
X82761905Y-149502438D01*
X82761905Y-149502438D02*
X82857143Y-149454819D01*
X82857143Y-149454819D02*
X83095238Y-149454819D01*
X83095238Y-149454819D02*
X83238095Y-149502438D01*
X83571429Y-149454819D02*
X83809524Y-150454819D01*
X83809524Y-150454819D02*
X84000000Y-149740533D01*
X84000000Y-149740533D02*
X84190476Y-150454819D01*
X84190476Y-150454819D02*
X84428572Y-149454819D01*
X85333333Y-150454819D02*
X84761905Y-150454819D01*
X85047619Y-150454819D02*
X85047619Y-149454819D01*
X85047619Y-149454819D02*
X84952381Y-149597676D01*
X84952381Y-149597676D02*
X84857143Y-149692914D01*
X84857143Y-149692914D02*
X84761905Y-149740533D01*
X109023095Y-69454819D02*
X109023095Y-70264342D01*
X109023095Y-70264342D02*
X109070714Y-70359580D01*
X109070714Y-70359580D02*
X109118333Y-70407200D01*
X109118333Y-70407200D02*
X109213571Y-70454819D01*
X109213571Y-70454819D02*
X109404047Y-70454819D01*
X109404047Y-70454819D02*
X109499285Y-70407200D01*
X109499285Y-70407200D02*
X109546904Y-70359580D01*
X109546904Y-70359580D02*
X109594523Y-70264342D01*
X109594523Y-70264342D02*
X109594523Y-69454819D01*
X110023095Y-69550057D02*
X110070714Y-69502438D01*
X110070714Y-69502438D02*
X110165952Y-69454819D01*
X110165952Y-69454819D02*
X110404047Y-69454819D01*
X110404047Y-69454819D02*
X110499285Y-69502438D01*
X110499285Y-69502438D02*
X110546904Y-69550057D01*
X110546904Y-69550057D02*
X110594523Y-69645295D01*
X110594523Y-69645295D02*
X110594523Y-69740533D01*
X110594523Y-69740533D02*
X110546904Y-69883390D01*
X110546904Y-69883390D02*
X109975476Y-70454819D01*
X109975476Y-70454819D02*
X110594523Y-70454819D01*
X149666666Y-134954819D02*
X149666666Y-135669104D01*
X149666666Y-135669104D02*
X149619047Y-135811961D01*
X149619047Y-135811961D02*
X149523809Y-135907200D01*
X149523809Y-135907200D02*
X149380952Y-135954819D01*
X149380952Y-135954819D02*
X149285714Y-135954819D01*
X150095238Y-135050057D02*
X150142857Y-135002438D01*
X150142857Y-135002438D02*
X150238095Y-134954819D01*
X150238095Y-134954819D02*
X150476190Y-134954819D01*
X150476190Y-134954819D02*
X150571428Y-135002438D01*
X150571428Y-135002438D02*
X150619047Y-135050057D01*
X150619047Y-135050057D02*
X150666666Y-135145295D01*
X150666666Y-135145295D02*
X150666666Y-135240533D01*
X150666666Y-135240533D02*
X150619047Y-135383390D01*
X150619047Y-135383390D02*
X150047619Y-135954819D01*
X150047619Y-135954819D02*
X150666666Y-135954819D01*
X84833333Y-117254819D02*
X84500000Y-116778628D01*
X84261905Y-117254819D02*
X84261905Y-116254819D01*
X84261905Y-116254819D02*
X84642857Y-116254819D01*
X84642857Y-116254819D02*
X84738095Y-116302438D01*
X84738095Y-116302438D02*
X84785714Y-116350057D01*
X84785714Y-116350057D02*
X84833333Y-116445295D01*
X84833333Y-116445295D02*
X84833333Y-116588152D01*
X84833333Y-116588152D02*
X84785714Y-116683390D01*
X84785714Y-116683390D02*
X84738095Y-116731009D01*
X84738095Y-116731009D02*
X84642857Y-116778628D01*
X84642857Y-116778628D02*
X84261905Y-116778628D01*
X85690476Y-116588152D02*
X85690476Y-117254819D01*
X85452381Y-116207200D02*
X85214286Y-116921485D01*
X85214286Y-116921485D02*
X85833333Y-116921485D01*
X97283333Y-141179580D02*
X97235714Y-141227200D01*
X97235714Y-141227200D02*
X97092857Y-141274819D01*
X97092857Y-141274819D02*
X96997619Y-141274819D01*
X96997619Y-141274819D02*
X96854762Y-141227200D01*
X96854762Y-141227200D02*
X96759524Y-141131961D01*
X96759524Y-141131961D02*
X96711905Y-141036723D01*
X96711905Y-141036723D02*
X96664286Y-140846247D01*
X96664286Y-140846247D02*
X96664286Y-140703390D01*
X96664286Y-140703390D02*
X96711905Y-140512914D01*
X96711905Y-140512914D02*
X96759524Y-140417676D01*
X96759524Y-140417676D02*
X96854762Y-140322438D01*
X96854762Y-140322438D02*
X96997619Y-140274819D01*
X96997619Y-140274819D02*
X97092857Y-140274819D01*
X97092857Y-140274819D02*
X97235714Y-140322438D01*
X97235714Y-140322438D02*
X97283333Y-140370057D01*
X98140476Y-140608152D02*
X98140476Y-141274819D01*
X97902381Y-140227200D02*
X97664286Y-140941485D01*
X97664286Y-140941485D02*
X98283333Y-140941485D01*
X108416667Y-150907200D02*
X108559524Y-150954819D01*
X108559524Y-150954819D02*
X108797619Y-150954819D01*
X108797619Y-150954819D02*
X108892857Y-150907200D01*
X108892857Y-150907200D02*
X108940476Y-150859580D01*
X108940476Y-150859580D02*
X108988095Y-150764342D01*
X108988095Y-150764342D02*
X108988095Y-150669104D01*
X108988095Y-150669104D02*
X108940476Y-150573866D01*
X108940476Y-150573866D02*
X108892857Y-150526247D01*
X108892857Y-150526247D02*
X108797619Y-150478628D01*
X108797619Y-150478628D02*
X108607143Y-150431009D01*
X108607143Y-150431009D02*
X108511905Y-150383390D01*
X108511905Y-150383390D02*
X108464286Y-150335771D01*
X108464286Y-150335771D02*
X108416667Y-150240533D01*
X108416667Y-150240533D02*
X108416667Y-150145295D01*
X108416667Y-150145295D02*
X108464286Y-150050057D01*
X108464286Y-150050057D02*
X108511905Y-150002438D01*
X108511905Y-150002438D02*
X108607143Y-149954819D01*
X108607143Y-149954819D02*
X108845238Y-149954819D01*
X108845238Y-149954819D02*
X108988095Y-150002438D01*
X109321429Y-149954819D02*
X109559524Y-150954819D01*
X109559524Y-150954819D02*
X109750000Y-150240533D01*
X109750000Y-150240533D02*
X109940476Y-150954819D01*
X109940476Y-150954819D02*
X110178572Y-149954819D01*
X110511905Y-150050057D02*
X110559524Y-150002438D01*
X110559524Y-150002438D02*
X110654762Y-149954819D01*
X110654762Y-149954819D02*
X110892857Y-149954819D01*
X110892857Y-149954819D02*
X110988095Y-150002438D01*
X110988095Y-150002438D02*
X111035714Y-150050057D01*
X111035714Y-150050057D02*
X111083333Y-150145295D01*
X111083333Y-150145295D02*
X111083333Y-150240533D01*
X111083333Y-150240533D02*
X111035714Y-150383390D01*
X111035714Y-150383390D02*
X110464286Y-150954819D01*
X110464286Y-150954819D02*
X111083333Y-150954819D01*
X100539580Y-78166666D02*
X100587200Y-78214285D01*
X100587200Y-78214285D02*
X100634819Y-78357142D01*
X100634819Y-78357142D02*
X100634819Y-78452380D01*
X100634819Y-78452380D02*
X100587200Y-78595237D01*
X100587200Y-78595237D02*
X100491961Y-78690475D01*
X100491961Y-78690475D02*
X100396723Y-78738094D01*
X100396723Y-78738094D02*
X100206247Y-78785713D01*
X100206247Y-78785713D02*
X100063390Y-78785713D01*
X100063390Y-78785713D02*
X99872914Y-78738094D01*
X99872914Y-78738094D02*
X99777676Y-78690475D01*
X99777676Y-78690475D02*
X99682438Y-78595237D01*
X99682438Y-78595237D02*
X99634819Y-78452380D01*
X99634819Y-78452380D02*
X99634819Y-78357142D01*
X99634819Y-78357142D02*
X99682438Y-78214285D01*
X99682438Y-78214285D02*
X99730057Y-78166666D01*
X100634819Y-77214285D02*
X100634819Y-77785713D01*
X100634819Y-77499999D02*
X99634819Y-77499999D01*
X99634819Y-77499999D02*
X99777676Y-77595237D01*
X99777676Y-77595237D02*
X99872914Y-77690475D01*
X99872914Y-77690475D02*
X99920533Y-77785713D01*
X91104819Y-73833333D02*
X91819104Y-73833333D01*
X91819104Y-73833333D02*
X91961961Y-73880952D01*
X91961961Y-73880952D02*
X92057200Y-73976190D01*
X92057200Y-73976190D02*
X92104819Y-74119047D01*
X92104819Y-74119047D02*
X92104819Y-74214285D01*
X92104819Y-72833333D02*
X92104819Y-73404761D01*
X92104819Y-73119047D02*
X91104819Y-73119047D01*
X91104819Y-73119047D02*
X91247676Y-73214285D01*
X91247676Y-73214285D02*
X91342914Y-73309523D01*
X91342914Y-73309523D02*
X91390533Y-73404761D01*
X127738095Y-107454819D02*
X127738095Y-108264342D01*
X127738095Y-108264342D02*
X127785714Y-108359580D01*
X127785714Y-108359580D02*
X127833333Y-108407200D01*
X127833333Y-108407200D02*
X127928571Y-108454819D01*
X127928571Y-108454819D02*
X128119047Y-108454819D01*
X128119047Y-108454819D02*
X128214285Y-108407200D01*
X128214285Y-108407200D02*
X128261904Y-108359580D01*
X128261904Y-108359580D02*
X128309523Y-108264342D01*
X128309523Y-108264342D02*
X128309523Y-107454819D01*
X128690476Y-107454819D02*
X129309523Y-107454819D01*
X129309523Y-107454819D02*
X128976190Y-107835771D01*
X128976190Y-107835771D02*
X129119047Y-107835771D01*
X129119047Y-107835771D02*
X129214285Y-107883390D01*
X129214285Y-107883390D02*
X129261904Y-107931009D01*
X129261904Y-107931009D02*
X129309523Y-108026247D01*
X129309523Y-108026247D02*
X129309523Y-108264342D01*
X129309523Y-108264342D02*
X129261904Y-108359580D01*
X129261904Y-108359580D02*
X129214285Y-108407200D01*
X129214285Y-108407200D02*
X129119047Y-108454819D01*
X129119047Y-108454819D02*
X128833333Y-108454819D01*
X128833333Y-108454819D02*
X128738095Y-108407200D01*
X128738095Y-108407200D02*
X128690476Y-108359580D01*
X133745833Y-133604819D02*
X133412500Y-133128628D01*
X133174405Y-133604819D02*
X133174405Y-132604819D01*
X133174405Y-132604819D02*
X133555357Y-132604819D01*
X133555357Y-132604819D02*
X133650595Y-132652438D01*
X133650595Y-132652438D02*
X133698214Y-132700057D01*
X133698214Y-132700057D02*
X133745833Y-132795295D01*
X133745833Y-132795295D02*
X133745833Y-132938152D01*
X133745833Y-132938152D02*
X133698214Y-133033390D01*
X133698214Y-133033390D02*
X133650595Y-133081009D01*
X133650595Y-133081009D02*
X133555357Y-133128628D01*
X133555357Y-133128628D02*
X133174405Y-133128628D01*
X134079167Y-132604819D02*
X134698214Y-132604819D01*
X134698214Y-132604819D02*
X134364881Y-132985771D01*
X134364881Y-132985771D02*
X134507738Y-132985771D01*
X134507738Y-132985771D02*
X134602976Y-133033390D01*
X134602976Y-133033390D02*
X134650595Y-133081009D01*
X134650595Y-133081009D02*
X134698214Y-133176247D01*
X134698214Y-133176247D02*
X134698214Y-133414342D01*
X134698214Y-133414342D02*
X134650595Y-133509580D01*
X134650595Y-133509580D02*
X134602976Y-133557200D01*
X134602976Y-133557200D02*
X134507738Y-133604819D01*
X134507738Y-133604819D02*
X134222024Y-133604819D01*
X134222024Y-133604819D02*
X134126786Y-133557200D01*
X134126786Y-133557200D02*
X134079167Y-133509580D01*
X139844819Y-107306904D02*
X140654342Y-107306904D01*
X140654342Y-107306904D02*
X140749580Y-107259285D01*
X140749580Y-107259285D02*
X140797200Y-107211666D01*
X140797200Y-107211666D02*
X140844819Y-107116428D01*
X140844819Y-107116428D02*
X140844819Y-106925952D01*
X140844819Y-106925952D02*
X140797200Y-106830714D01*
X140797200Y-106830714D02*
X140749580Y-106783095D01*
X140749580Y-106783095D02*
X140654342Y-106735476D01*
X140654342Y-106735476D02*
X139844819Y-106735476D01*
X140844819Y-105735476D02*
X140844819Y-106306904D01*
X140844819Y-106021190D02*
X139844819Y-106021190D01*
X139844819Y-106021190D02*
X139987676Y-106116428D01*
X139987676Y-106116428D02*
X140082914Y-106211666D01*
X140082914Y-106211666D02*
X140130533Y-106306904D01*
X148238095Y-85284104D02*
X148714285Y-85284104D01*
X148142857Y-85569819D02*
X148476190Y-84569819D01*
X148476190Y-84569819D02*
X148809523Y-85569819D01*
X149142857Y-84903152D02*
X149142857Y-85569819D01*
X149142857Y-84998390D02*
X149190476Y-84950771D01*
X149190476Y-84950771D02*
X149285714Y-84903152D01*
X149285714Y-84903152D02*
X149428571Y-84903152D01*
X149428571Y-84903152D02*
X149523809Y-84950771D01*
X149523809Y-84950771D02*
X149571428Y-85046009D01*
X149571428Y-85046009D02*
X149571428Y-85569819D01*
X149904762Y-84903152D02*
X150285714Y-84903152D01*
X150047619Y-84569819D02*
X150047619Y-85426961D01*
X150047619Y-85426961D02*
X150095238Y-85522200D01*
X150095238Y-85522200D02*
X150190476Y-85569819D01*
X150190476Y-85569819D02*
X150285714Y-85569819D01*
X151000000Y-85522200D02*
X150904762Y-85569819D01*
X150904762Y-85569819D02*
X150714286Y-85569819D01*
X150714286Y-85569819D02*
X150619048Y-85522200D01*
X150619048Y-85522200D02*
X150571429Y-85426961D01*
X150571429Y-85426961D02*
X150571429Y-85046009D01*
X150571429Y-85046009D02*
X150619048Y-84950771D01*
X150619048Y-84950771D02*
X150714286Y-84903152D01*
X150714286Y-84903152D02*
X150904762Y-84903152D01*
X150904762Y-84903152D02*
X151000000Y-84950771D01*
X151000000Y-84950771D02*
X151047619Y-85046009D01*
X151047619Y-85046009D02*
X151047619Y-85141247D01*
X151047619Y-85141247D02*
X150571429Y-85236485D01*
X151476191Y-84903152D02*
X151476191Y-85569819D01*
X151476191Y-84998390D02*
X151523810Y-84950771D01*
X151523810Y-84950771D02*
X151619048Y-84903152D01*
X151619048Y-84903152D02*
X151761905Y-84903152D01*
X151761905Y-84903152D02*
X151857143Y-84950771D01*
X151857143Y-84950771D02*
X151904762Y-85046009D01*
X151904762Y-85046009D02*
X151904762Y-85569819D01*
X152380953Y-84903152D02*
X152380953Y-85569819D01*
X152380953Y-84998390D02*
X152428572Y-84950771D01*
X152428572Y-84950771D02*
X152523810Y-84903152D01*
X152523810Y-84903152D02*
X152666667Y-84903152D01*
X152666667Y-84903152D02*
X152761905Y-84950771D01*
X152761905Y-84950771D02*
X152809524Y-85046009D01*
X152809524Y-85046009D02*
X152809524Y-85569819D01*
X153714286Y-85569819D02*
X153714286Y-85046009D01*
X153714286Y-85046009D02*
X153666667Y-84950771D01*
X153666667Y-84950771D02*
X153571429Y-84903152D01*
X153571429Y-84903152D02*
X153380953Y-84903152D01*
X153380953Y-84903152D02*
X153285715Y-84950771D01*
X153714286Y-85522200D02*
X153619048Y-85569819D01*
X153619048Y-85569819D02*
X153380953Y-85569819D01*
X153380953Y-85569819D02*
X153285715Y-85522200D01*
X153285715Y-85522200D02*
X153238096Y-85426961D01*
X153238096Y-85426961D02*
X153238096Y-85331723D01*
X153238096Y-85331723D02*
X153285715Y-85236485D01*
X153285715Y-85236485D02*
X153380953Y-85188866D01*
X153380953Y-85188866D02*
X153619048Y-85188866D01*
X153619048Y-85188866D02*
X153714286Y-85141247D01*
X85333333Y-134804819D02*
X85000000Y-134328628D01*
X84761905Y-134804819D02*
X84761905Y-133804819D01*
X84761905Y-133804819D02*
X85142857Y-133804819D01*
X85142857Y-133804819D02*
X85238095Y-133852438D01*
X85238095Y-133852438D02*
X85285714Y-133900057D01*
X85285714Y-133900057D02*
X85333333Y-133995295D01*
X85333333Y-133995295D02*
X85333333Y-134138152D01*
X85333333Y-134138152D02*
X85285714Y-134233390D01*
X85285714Y-134233390D02*
X85238095Y-134281009D01*
X85238095Y-134281009D02*
X85142857Y-134328628D01*
X85142857Y-134328628D02*
X84761905Y-134328628D01*
X86190476Y-133804819D02*
X86000000Y-133804819D01*
X86000000Y-133804819D02*
X85904762Y-133852438D01*
X85904762Y-133852438D02*
X85857143Y-133900057D01*
X85857143Y-133900057D02*
X85761905Y-134042914D01*
X85761905Y-134042914D02*
X85714286Y-134233390D01*
X85714286Y-134233390D02*
X85714286Y-134614342D01*
X85714286Y-134614342D02*
X85761905Y-134709580D01*
X85761905Y-134709580D02*
X85809524Y-134757200D01*
X85809524Y-134757200D02*
X85904762Y-134804819D01*
X85904762Y-134804819D02*
X86095238Y-134804819D01*
X86095238Y-134804819D02*
X86190476Y-134757200D01*
X86190476Y-134757200D02*
X86238095Y-134709580D01*
X86238095Y-134709580D02*
X86285714Y-134614342D01*
X86285714Y-134614342D02*
X86285714Y-134376247D01*
X86285714Y-134376247D02*
X86238095Y-134281009D01*
X86238095Y-134281009D02*
X86190476Y-134233390D01*
X86190476Y-134233390D02*
X86095238Y-134185771D01*
X86095238Y-134185771D02*
X85904762Y-134185771D01*
X85904762Y-134185771D02*
X85809524Y-134233390D01*
X85809524Y-134233390D02*
X85761905Y-134281009D01*
X85761905Y-134281009D02*
X85714286Y-134376247D01*
X107833333Y-137104819D02*
X107500000Y-136628628D01*
X107261905Y-137104819D02*
X107261905Y-136104819D01*
X107261905Y-136104819D02*
X107642857Y-136104819D01*
X107642857Y-136104819D02*
X107738095Y-136152438D01*
X107738095Y-136152438D02*
X107785714Y-136200057D01*
X107785714Y-136200057D02*
X107833333Y-136295295D01*
X107833333Y-136295295D02*
X107833333Y-136438152D01*
X107833333Y-136438152D02*
X107785714Y-136533390D01*
X107785714Y-136533390D02*
X107738095Y-136581009D01*
X107738095Y-136581009D02*
X107642857Y-136628628D01*
X107642857Y-136628628D02*
X107261905Y-136628628D01*
X108738095Y-136104819D02*
X108261905Y-136104819D01*
X108261905Y-136104819D02*
X108214286Y-136581009D01*
X108214286Y-136581009D02*
X108261905Y-136533390D01*
X108261905Y-136533390D02*
X108357143Y-136485771D01*
X108357143Y-136485771D02*
X108595238Y-136485771D01*
X108595238Y-136485771D02*
X108690476Y-136533390D01*
X108690476Y-136533390D02*
X108738095Y-136581009D01*
X108738095Y-136581009D02*
X108785714Y-136676247D01*
X108785714Y-136676247D02*
X108785714Y-136914342D01*
X108785714Y-136914342D02*
X108738095Y-137009580D01*
X108738095Y-137009580D02*
X108690476Y-137057200D01*
X108690476Y-137057200D02*
X108595238Y-137104819D01*
X108595238Y-137104819D02*
X108357143Y-137104819D01*
X108357143Y-137104819D02*
X108261905Y-137057200D01*
X108261905Y-137057200D02*
X108214286Y-137009580D01*
X128994819Y-145008094D02*
X127994819Y-145008094D01*
X127994819Y-145008094D02*
X127994819Y-144769999D01*
X127994819Y-144769999D02*
X128042438Y-144627142D01*
X128042438Y-144627142D02*
X128137676Y-144531904D01*
X128137676Y-144531904D02*
X128232914Y-144484285D01*
X128232914Y-144484285D02*
X128423390Y-144436666D01*
X128423390Y-144436666D02*
X128566247Y-144436666D01*
X128566247Y-144436666D02*
X128756723Y-144484285D01*
X128756723Y-144484285D02*
X128851961Y-144531904D01*
X128851961Y-144531904D02*
X128947200Y-144627142D01*
X128947200Y-144627142D02*
X128994819Y-144769999D01*
X128994819Y-144769999D02*
X128994819Y-145008094D01*
X128994819Y-143484285D02*
X128994819Y-144055713D01*
X128994819Y-143769999D02*
X127994819Y-143769999D01*
X127994819Y-143769999D02*
X128137676Y-143865237D01*
X128137676Y-143865237D02*
X128232914Y-143960475D01*
X128232914Y-143960475D02*
X128280533Y-144055713D01*
X85245833Y-110104819D02*
X84912500Y-109628628D01*
X84674405Y-110104819D02*
X84674405Y-109104819D01*
X84674405Y-109104819D02*
X85055357Y-109104819D01*
X85055357Y-109104819D02*
X85150595Y-109152438D01*
X85150595Y-109152438D02*
X85198214Y-109200057D01*
X85198214Y-109200057D02*
X85245833Y-109295295D01*
X85245833Y-109295295D02*
X85245833Y-109438152D01*
X85245833Y-109438152D02*
X85198214Y-109533390D01*
X85198214Y-109533390D02*
X85150595Y-109581009D01*
X85150595Y-109581009D02*
X85055357Y-109628628D01*
X85055357Y-109628628D02*
X84674405Y-109628628D01*
X86198214Y-110104819D02*
X85626786Y-110104819D01*
X85912500Y-110104819D02*
X85912500Y-109104819D01*
X85912500Y-109104819D02*
X85817262Y-109247676D01*
X85817262Y-109247676D02*
X85722024Y-109342914D01*
X85722024Y-109342914D02*
X85626786Y-109390533D01*
%TO.C,C3*%
D12*
X128265000Y-92711252D02*
X128265000Y-92188748D01*
X129735000Y-92711252D02*
X129735000Y-92188748D01*
%TO.C,U4*%
X153540000Y-111500000D02*
X153540000Y-112880000D01*
X154920000Y-112880000D02*
X153540000Y-112880000D01*
X152730000Y-110000000D02*
X164730000Y-110000000D01*
X164730000Y-148000000D01*
X152730000Y-148000000D01*
X152730000Y-110000000D01*
%TO.C,C2*%
X115765000Y-92711252D02*
X115765000Y-92188748D01*
X117235000Y-92711252D02*
X117235000Y-92188748D01*
%TO.C,R2*%
X140765000Y-119185436D02*
X140765000Y-119639564D01*
X142235000Y-119185436D02*
X142235000Y-119639564D01*
%TO.C,SW1*%
X80250000Y-144500000D02*
X80250000Y-146000000D01*
X81500000Y-148500000D02*
X86000000Y-148500000D01*
X86000000Y-142000000D02*
X81500000Y-142000000D01*
X87250000Y-146000000D02*
X87250000Y-144500000D01*
%TO.C,U2*%
X108500000Y-71590000D02*
X112260000Y-71590000D01*
X108500000Y-78410000D02*
X112260000Y-78410000D01*
X112260000Y-71590000D02*
X112260000Y-72850000D01*
X112260000Y-78410000D02*
X112260000Y-77150000D01*
X107220000Y-71690000D02*
X106980000Y-71360000D01*
X107460000Y-71360000D01*
X107220000Y-71690000D01*
G36*
X107220000Y-71690000D02*
G01*
X106980000Y-71360000D01*
X107460000Y-71360000D01*
X107220000Y-71690000D01*
G37*
%TO.C,J2*%
X145620000Y-134620000D02*
X147000000Y-134620000D01*
X145620000Y-136000000D02*
X145620000Y-134620000D01*
X145620000Y-137270000D02*
X145620000Y-139920000D01*
X145620000Y-137270000D02*
X148380000Y-137270000D01*
X145620000Y-139920000D02*
X148380000Y-139920000D01*
X148380000Y-137270000D02*
X148380000Y-139920000D01*
%TO.C,R4*%
X82000000Y-117600000D02*
X88000000Y-117600000D01*
X82000000Y-126400000D02*
X88000000Y-126400000D01*
X82000000Y-126400000D02*
G75*
G02*
X81967350Y-117622440I3000000J4400000D01*
G01*
X88000000Y-117600000D02*
G75*
G02*
X88032650Y-126377560I-3000000J-4400000D01*
G01*
%TO.C,C4*%
X97188748Y-141765000D02*
X97711252Y-141765000D01*
X97188748Y-143235000D02*
X97711252Y-143235000D01*
%TO.C,SW2*%
X106250000Y-145000000D02*
X106250000Y-146500000D01*
X107500000Y-149000000D02*
X112000000Y-149000000D01*
X112000000Y-142500000D02*
X107500000Y-142500000D01*
X113250000Y-146500000D02*
X113250000Y-145000000D01*
%TO.C,C1*%
X97765000Y-77738748D02*
X97765000Y-78261252D01*
X99235000Y-77738748D02*
X99235000Y-78261252D01*
%TO.C,J1*%
X85900000Y-69600000D02*
X86150000Y-69600000D01*
X85900000Y-77400000D02*
X86150000Y-77400000D01*
X88450000Y-69600000D02*
X90300000Y-69600000D01*
X88450000Y-77400000D02*
X90300000Y-77400000D01*
X90300000Y-69600000D02*
X90300000Y-70050000D01*
X90300000Y-77400000D02*
X90300000Y-76950000D01*
X90850000Y-71800000D02*
X90400000Y-71800000D01*
X90850000Y-71800000D02*
X90850000Y-72250000D01*
%TO.C,U3*%
X125340000Y-109400000D02*
X125340000Y-111400000D01*
X125340000Y-109400000D02*
X126950000Y-109400000D01*
X125620000Y-121940000D02*
X125620000Y-109690000D01*
X125630000Y-109680000D02*
X131370000Y-109680000D01*
X131380000Y-109680000D02*
X131380000Y-121940000D01*
X131380000Y-121940000D02*
X125620000Y-121940000D01*
%TO.C,R3*%
X134139564Y-130765000D02*
X133685436Y-130765000D01*
X134139564Y-132235000D02*
X133685436Y-132235000D01*
%TO.C,U1*%
X141880000Y-82255000D02*
X141880000Y-88415000D01*
X141880000Y-82255000D02*
X160120000Y-82255000D01*
X141880000Y-107215000D02*
X141880000Y-107995000D01*
X141880000Y-107995000D02*
X142880000Y-107995000D01*
X160120000Y-82255000D02*
X160120000Y-88670000D01*
X160120000Y-107215000D02*
X160120000Y-107995000D01*
X160120000Y-107995000D02*
X159120000Y-107995000D01*
X141875000Y-89140000D02*
X141375000Y-89140000D01*
X141875000Y-88640000D01*
X141875000Y-89140000D01*
G36*
X141875000Y-89140000D02*
G01*
X141375000Y-89140000D01*
X141875000Y-88640000D01*
X141875000Y-89140000D01*
G37*
%TO.C,R6*%
X85272936Y-135265000D02*
X85727064Y-135265000D01*
X85272936Y-136735000D02*
X85727064Y-136735000D01*
%TO.C,R5*%
X108227064Y-134265000D02*
X107772936Y-134265000D01*
X108227064Y-135735000D02*
X107772936Y-135735000D01*
%TO.C,D1*%
X130955000Y-146830000D02*
X134045000Y-146830000D01*
X130955170Y-146830000D02*
G75*
G02*
X132500000Y-141280000I1544830J2560000D01*
G01*
X132500000Y-141280000D02*
G75*
G02*
X134044830Y-146830000I0J-2990000D01*
G01*
X135000000Y-144270000D02*
G75*
G02*
X130000000Y-144270000I-2500000J0D01*
G01*
X130000000Y-144270000D02*
G75*
G02*
X135000000Y-144270000I2500000J0D01*
G01*
%TO.C,R1*%
X85639564Y-107265000D02*
X85185436Y-107265000D01*
X85639564Y-108735000D02*
X85185436Y-108735000D01*
%TD*%
M02*
