M48
; DRILL file KiCad 10.0.5 date 2026-08-11T18:38:41
; FORMAT={-:-/ absolute / metric / decimal}
; #@! TF.CreationDate,2026-08-11T18:38:41+05:30
; #@! TF.GenerationSoftware,Kicad,Pcbnew,10.0.5
; #@! TF.FileFunction,Plated,1,2,PTH
FMAT,2
METRIC
; #@! TA.AperFunction,Plated,PTH,ComponentDrill
T1C0.600
; #@! TA.AperFunction,Plated,PTH,ComponentDrill
T2C0.800
; #@! TA.AperFunction,Plated,PTH,ComponentDrill
T3C0.850
; #@! TA.AperFunction,Plated,PTH,ComponentDrill
T4C0.900
; #@! TA.AperFunction,Plated,PTH,ComponentDrill
T5C1.000
; #@! TA.AperFunction,Plated,PTH,ComponentDrill
T6C1.100
%
G90
G05
T2
X81.2Y-122.0
X88.8Y-122.0
X128.5Y-112.0
X128.5Y-114.54
X128.5Y-117.08
X128.5Y-119.62
T3
X90.0Y-71.0
X90.0Y-76.0
T4
X132.5Y-143.0
X132.5Y-145.54
T5
X147.0Y-136.0
X147.0Y-138.54
X154.92Y-111.5
X157.46Y-111.5
X160.0Y-111.5
X162.54Y-111.5
T6
X80.5Y-143.0
X80.5Y-147.5
X87.0Y-143.0
X87.0Y-147.5
X106.5Y-143.5
X106.5Y-148.0
X113.0Y-143.5
X113.0Y-148.0
T1
G00X86.95Y-70.0
M15
G01X87.65Y-70.0
M16
G05
G00X87.65Y-77.0
M15
G01X86.95Y-77.0
M16
G05
M30
